<?xml version="1.0" encoding="utf-8"?>
<svg viewBox="0 0 500 500" xmlns="http://www.w3.org/2000/svg" xmlns:xlink="http://www.w3.org/1999/xlink">
  <linearGradient id="lg1">
    <stop offset="0" stop-color="#bce097"/>
    <stop offset="1" stop-color="#7dc03a"/>
  </linearGradient>
  <linearGradient id="SVGID_1_" gradientUnits="userSpaceOnUse" x1="223.083" x2="300.37" y1="104.821" y2="182.108" gradientTransform="matrix(1.034631, 0, 0, 1.243091, -5.577426, -29.928581)" xlink:href="#lg1"/>
  <linearGradient id="lg2">
    <stop offset="0" stop-color="#3e6e66" stop-opacity="0"/>
    <stop offset="1" stop-color="#3e6e66"/>
  </linearGradient>
  <linearGradient id="SVGID_2_" gradientUnits="userSpaceOnUse" x1="259.493" x2="281.493" y1="125.875" y2="154.875" gradientTransform="matrix(1.034631, 0, 0, 1.243091, -5.577426, -29.928581)" xlink:href="#lg2"/>
  <linearGradient id="SVGID_3_" gradientUnits="userSpaceOnUse" x1="114.524" x2="346.754" y1="-8.12" y2="224.109" xlink:href="#lg1"/>
  <linearGradient id="SVGID_4_" gradientUnits="userSpaceOnUse" x1="135.418" x2="313.418" y1="-65.371" y2="270.629">
    <stop offset="0" stop-color="#8cc951" stop-opacity="0"/>
    <stop offset="1" stop-color="#3e6e66"/>
  </linearGradient>
  <linearGradient id="SVGID_5_" gradientUnits="userSpaceOnUse" x1="324.674" x2="348.674" y1="150.621" y2="186.621" xlink:href="#lg2"/>
  <linearGradient id="SVGID_6_" gradientTransform="matrix(-1 0 0 1 733.94 0)" gradientUnits="userSpaceOnUse" x1="548.614" x2="572.614" y1="150.621" y2="186.621" xlink:href="#lg2"/>
  <linearGradient id="SVGID_7_" gradientUnits="userSpaceOnUse" x1="203.212" x2="423.212" y1="131.861" y2="511.861">
    <stop offset="0" stop-color="#5a5a5a"/>
    <stop offset="1" stop-color="#464646"/>
  </linearGradient>
  <linearGradient id="lg3">
    <stop offset="0" stop-color="#464646" stop-opacity="0"/>
    <stop offset="1" stop-color="#202020"/>
  </linearGradient>
  <linearGradient id="SVGID_8_" gradientUnits="userSpaceOnUse" x1="381.715" x2="329.715" y1="278.112" y2="534.112" gradientTransform="matrix(0.909663, 0, 0, 1.041498, 38.149872, 1.759212)" xlink:href="#lg3"/>
  <linearGradient id="SVGID_9_" gradientUnits="userSpaceOnUse" x1="389.452" x2="414.414" y1="365.958" y2="406.15" xlink:href="#lg3"/>
  <linearGradient id="SVGID_10_" gradientTransform="matrix(-1 0 0 1 765 0)" gradientUnits="userSpaceOnUse" x1="646.052" x2="672.134" y1="371.577" y2="422.849" xlink:href="#lg3"/>
  <linearGradient id="SVGID_12_" gradientUnits="userSpaceOnUse" x1="34.789" x2="80.262" y1="218.058" y2="263.531">
    <stop offset="0" stop-color="#f7e07d"/>
    <stop offset="0.2892" stop-color="#f3cf6f"/>
    <stop offset="0.862" stop-color="#e9a24b"/>
    <stop offset="1" stop-color="#e69642"/>
  </linearGradient>
  <g transform="matrix(0.85108, 0, 0, 0.641604, 31.392426, 116.454193)" style="">
    <path d="M 282.833 382.038 L 361.08 269.299 C 366.315 261.757 369.476 248.827 369.476 234.954 L 272.801 388.579 C 272.801 378.832 385.362 348.526 380.166 356.011 L 303.284 427.92 C 295.806 438.694 267.735 418.187 259.183 418.187 L 258.253 398.198 C 266.805 398.197 275.355 392.811 282.833 382.038 Z" fill="url(#SVGID_1_)" style=""/>
    <path d="M 282.833 382.038 L 361.08 269.299 C 366.315 261.757 369.476 248.827 369.476 234.954 L 392.715 67.983 C 392.715 58.236 323.081 150.003 317.885 157.488 L 266.101 314.478 C 258.623 325.252 266.805 132.116 258.253 132.116 L 258.253 398.198 C 266.805 398.197 275.355 392.811 282.833 382.038 Z" fill="url(#SVGID_2_)" style=""/>
    <g style="" transform="matrix(1.034631, 0, 0, 1.243091, -5.577427, -29.928581)">
      <path d="M 205.51 114.403 L 59.075 19.542 C 47 11.72 31.058 20.387 31.058 34.774 L 31.058 222.128 C 31.058 234.688 37.422 246.392 47.963 253.221 L 205.51 355.28 C 235.621 374.786 274.38 374.786 304.49 355.28 L 462.037 253.221 C 472.578 246.392 478.942 234.688 478.942 222.128 L 478.942 34.775 C 478.942 20.387 396.515 72.228 384.439 80.051 L 304.49 114.403 C 274.379 133.908 235.62 133.908 205.51 114.403 Z" fill="url(#SVGID_3_)"/>
      <path d="M 209.939 145.459 L 76.608 59.087 C 65.613 51.965 51.098 59.856 51.098 72.956 L 51.098 243.544 C 51.098 254.98 56.892 265.637 66.49 271.855 L 209.938 364.781 C 237.354 382.541 272.645 382.541 300.061 364.781 L 443.51 271.855 C 453.108 265.637 458.902 254.98 458.902 243.544 L 458.902 72.957 C 458.902 59.857 444.387 51.965 433.392 59.088 L 300.061 145.46 C 272.645 163.219 237.355 163.219 209.939 145.459 Z" fill="url(#SVGID_4_)"/>
    </g>
    <g style="" transform="matrix(1.034631, 0, 0, 1.243091, -5.577427, -29.928581)">
      <path d="M 478.94 63.774 L 478.94 222.124 C 478.94 234.684 472.58 246.394 462.04 253.224 L 408.76 287.744 L 304.49 355.284 C 289.44 365.034 272.22 369.904 255 369.904 L 255 158.024 C 272.22 158.024 289.44 153.154 304.49 143.404 L 450.93 48.544 C 463 40.724 478.94 49.384 478.94 63.774 Z" fill="url(#SVGID_5_)"/>
      <path d="M 31.06 63.774 L 31.06 222.124 C 31.06 234.684 37.42 246.394 47.96 253.224 L 101.24 287.744 L 205.51 355.284 C 220.56 365.034 237.78 369.904 255 369.904 L 255 158.024 C 237.78 158.024 220.56 153.154 205.51 143.404 L 59.07 48.544 C 47 40.724 31.06 49.384 31.06 63.774 Z" fill="url(#SVGID_6_)"/>
    </g>
    <g style="" transform="matrix(1.034631, 0, 0, 1.243091, -5.577427, -29.928581)">
      <path d="M 198.646 202.462 L 31.902 94.446 C 18.152 85.539 0 95.408 0 111.791 L 0 325.128 C 0 339.43 7.246 352.758 19.25 360.533 L 198.647 476.746 C 232.933 498.957 277.068 498.957 311.354 476.746 L 490.75 360.533 C 502.753 352.757 510 339.429 510 325.128 L 510 111.791 C 510 95.408 491.848 85.539 478.098 94.446 L 311.354 202.462 C 277.067 224.673 232.933 224.673 198.646 202.462 Z" fill="url(#SVGID_7_)"/>
      <path d="M 287.235 515.153 L 484.565 377.254 C 495.485 369.157 502.076 355.274 502.076 340.38 L 502.076 118.188 C 502.076 101.126 485.562 90.848 473.055 100.125 L 321.376 212.624 C 305.78 224.189 287.945 229.973 270.113 229.973 L 262.027 502.743 C 279.859 502.743 250.076 519.774 287.235 515.153 Z" fill="url(#SVGID_8_)" style="" transform="matrix(-1, 0, 0, -1, 772.188995, 612.268204)"/>
      <path d="M 510 216.124 L 510 325.124 C 510 339.434 502.75 352.754 490.75 360.534 L 311.35 476.744 C 294.21 487.854 274.61 493.404 255 493.404 L 255 384.404 C 274.6 384.404 294.21 378.844 311.35 367.744 L 490.75 251.534 C 502.75 243.754 510 230.434 510 216.124 Z" fill="url(#SVGID_9_)"/>
      <path d="M 0 216.124 L 0 325.124 C 0 339.434 7.25 352.754 19.25 360.534 L 198.65 476.744 C 215.79 487.854 235.39 493.404 255 493.404 L 255 384.404 C 235.4 384.404 215.79 378.844 198.65 367.744 L 19.25 251.534 C 7.25 243.754 0 230.434 0 216.124 Z" fill="url(#SVGID_10_)"/>
    </g>
    <circle cx="61.955" cy="245.224" fill="url(#SVGID_12_)" r="86.736" style="" transform="matrix(1.034631, 0, 0, 1.243091, 195.209915, -301.20282)"/>
  </g>
</svg>