<?xml version="1.0" encoding="utf-8"?>
<svg viewBox="0 0 500 500" xmlns="http://www.w3.org/2000/svg">
  <path style="fill: rgb(33, 150, 243);" d="M 64.788 107.34 L 434.421 107.34 C 461.281 107.34 483.056 129.093 483.056 155.926 L 483.056 369.707 C 483.056 396.541 461.281 418.293 434.421 418.293 L 64.788 418.293 C 37.927 418.294 16.152 396.541 16.152 369.707 L 16.152 155.927 C 16.152 129.093 37.927 107.34 64.788 107.34 Z"/>
  <rect y="165.644" style="fill: rgb(69, 90, 100);" width="466.905" height="77.738" x="16.152"/>
  <g transform="matrix(0.911924, 0, 0, 0.910997, 16.151909, 29.601776)" style=""/>
  <g transform="matrix(0.911924, 0, 0, 0.910997, 16.151909, 29.601776)" style=""/>
  <g transform="matrix(0.911924, 0, 0, 0.910997, 16.151909, 29.601776)" style=""/>
  <g transform="matrix(0.911924, 0, 0, 0.910997, 16.151909, 29.601776)" style=""/>
  <g transform="matrix(0.911924, 0, 0, 0.910997, 16.151909, 29.601776)" style=""/>
  <g transform="matrix(0.911924, 0, 0, 0.910997, 16.151909, 29.601776)" style=""/>
  <g transform="matrix(0.911924, 0, 0, 0.910997, 16.151909, 29.601776)" style=""/>
  <g transform="matrix(0.911924, 0, 0, 0.910997, 16.151909, 29.601776)" style=""/>
  <g transform="matrix(0.911924, 0, 0, 0.910997, 16.151909, 29.601776)" style=""/>
  <g transform="matrix(0.911924, 0, 0, 0.910997, 16.151909, 29.601776)" style=""/>
  <g transform="matrix(0.911924, 0, 0, 0.910997, 16.151909, 29.601776)" style=""/>
  <g transform="matrix(0.911924, 0, 0, 0.910997, 16.151909, 29.601776)" style=""/>
  <g transform="matrix(0.911924, 0, 0, 0.910997, 16.151909, 29.601776)" style=""/>
  <g transform="matrix(0.911924, 0, 0, 0.910997, 16.151909, 29.601776)" style=""/>
  <g transform="matrix(0.911924, 0, 0, 0.910997, 16.151909, 29.601776)" style=""/>
  <circle style="fill: rgb(255, 193, 7);" cx="310.898" cy="192.782" r="181.333" transform="matrix(0.445498, 0, 0, 0.433941, 112.270599, 137.586548)"/>
  <path style="fill: rgb(69, 90, 100);" d="M 308.853 291.025 C 307.079 290.306 305.034 290.702 303.673 292.025 L 283.278 311.9 L 253.38 282.777 C 251.524 280.969 248.516 280.969 246.659 282.777 L 211.998 316.529 L 120.323 227.223 C 118.436 225.447 115.428 225.498 113.605 227.337 C 111.826 229.13 111.826 231.975 113.605 233.768 L 208.644 326.342 C 210.499 328.149 213.508 328.149 215.363 326.342 L 250.015 292.59 L 276.56 318.446 L 256.164 338.312 C 254.306 340.116 254.303 343.047 256.156 344.858 C 257.047 345.728 258.257 346.217 259.52 346.217 L 307.039 346.217 C 309.663 346.217 311.791 344.145 311.791 341.59 L 311.791 295.302 C 311.791 293.428 310.63 291.74 308.853 291.025 Z"/>
  <path style="fill: rgb(250, 250, 250);" d="M 269.422 235.129 C 266.825 234.966 264.559 236.829 264.29 239.35 C 264.005 242.673 259.205 244.367 250.034 244.367 C 242.297 244.367 235.777 240.128 235.777 235.111 L 250.014 235.111 C 252.639 235.111 254.767 233.038 254.767 230.481 C 254.767 227.926 252.639 225.853 250.014 225.853 L 235.759 225.853 L 235.759 216.613 L 250.014 216.613 C 252.639 216.613 254.767 214.542 254.767 211.984 C 254.767 209.428 252.639 207.357 250.014 207.357 L 235.759 207.357 C 235.759 202.338 242.288 198.099 250.014 198.099 C 259.185 198.099 263.985 199.793 264.27 203.116 C 264.491 205.672 266.798 207.571 269.422 207.357 C 272.046 207.142 273.994 204.895 273.775 202.338 C 272.986 193.377 265.003 188.841 250.015 188.841 C 238.262 187.75 227.742 195.947 226.255 207.357 L 221.503 207.357 C 218.879 207.357 216.751 209.428 216.751 211.986 C 216.751 214.542 218.879 216.614 221.503 216.614 L 226.255 216.614 L 226.255 225.871 L 221.503 225.871 C 218.879 225.871 216.751 227.944 216.751 230.5 C 216.751 233.056 218.879 235.129 221.503 235.129 L 226.255 235.129 C 227.742 246.538 238.262 254.736 250.015 253.643 C 264.984 253.643 272.977 249.108 273.775 240.147 C 274.004 237.599 272.07 235.354 269.455 235.132 C 269.444 235.13 269.432 235.13 269.422 235.129 Z"/>
  <g transform="matrix(0.445498, 0, 0, 0.433941, 112.270599, 137.586548)" style=""/>
  <g transform="matrix(0.445498, 0, 0, 0.433941, 112.270599, 137.586548)" style=""/>
  <g transform="matrix(0.445498, 0, 0, 0.433941, 112.270599, 137.586548)" style=""/>
  <g transform="matrix(0.445498, 0, 0, 0.433941, 112.270599, 137.586548)" style=""/>
  <g transform="matrix(0.445498, 0, 0, 0.433941, 112.270599, 137.586548)" style=""/>
  <g transform="matrix(0.445498, 0, 0, 0.433941, 112.270599, 137.586548)" style=""/>
  <g transform="matrix(0.445498, 0, 0, 0.433941, 112.270599, 137.586548)" style=""/>
  <g transform="matrix(0.445498, 0, 0, 0.433941, 112.270599, 137.586548)" style=""/>
  <g transform="matrix(0.445498, 0, 0, 0.433941, 112.270599, 137.586548)" style=""/>
  <g transform="matrix(0.445498, 0, 0, 0.433941, 112.270599, 137.586548)" style=""/>
  <g transform="matrix(0.445498, 0, 0, 0.433941, 112.270599, 137.586548)" style=""/>
  <g transform="matrix(0.445498, 0, 0, 0.433941, 112.270599, 137.586548)" style=""/>
  <g transform="matrix(0.445498, 0, 0, 0.433941, 112.270599, 137.586548)" style=""/>
  <g transform="matrix(0.445498, 0, 0, 0.433941, 112.270599, 137.586548)" style=""/>
  <g transform="matrix(0.445498, 0, 0, 0.433941, 112.270599, 137.586548)" style=""/>
  <path d="M 95.279 281.456 C 95.279 270.228 90.357 259.831 81.871 252.866 C 78.406 250.059 76.146 246.368 75.443 242.418 L 75.192 242.47 L 45.062 242.47 L 44.711 242.418 C 44.008 246.525 41.949 250.111 38.986 252.398 C 28.039 260.975 22.917 275.01 25.729 289.149 C 28.491 302.924 39.287 314.152 52.595 317.011 C 63.19 319.35 74.037 316.647 82.273 309.733 C 90.558 302.768 95.279 292.475 95.279 281.456 Z" fill="#ffc107" style=""/>
  <path d="M 60.122 317.834 C 57.626 317.834 55.106 317.564 52.595 317.008 C 39.287 314.149 28.491 302.922 25.729 289.147 C 22.917 275.009 28.039 260.974 38.986 252.398 C 41.949 250.111 44.008 246.524 44.711 242.418 L 45.062 242.47 L 60.127 242.47 L 60.127 317.834 C 60.122 317.834 60.122 317.834 60.122 317.834 Z" fill="#dea806" style=""/>
  <path d="M 84.496 270.641 C 82.417 270.641 80.73 272.507 80.73 274.806 C 80.73 283.23 74.538 290.077 66.921 290.077 C 64.842 290.077 63.154 291.943 63.154 294.243 C 63.154 296.541 64.842 298.407 66.921 298.407 C 78.686 298.407 88.262 287.817 88.262 274.806 C 88.262 272.507 86.575 270.641 84.496 270.641 Z" fill="#ffd54f" style=""/>
</svg>