<?xml version="1.0" encoding="utf-8"?>
<svg viewBox="0 0 500 500" xmlns="http://www.w3.org/2000/svg">
  <path style="fill: rgb(255, 193, 7);" d="M 121.887 139.089 C 91.955 139.089 67.69 159.68 67.69 185.081 C 67.69 210.482 91.955 231.074 121.887 231.074 C 151.82 231.074 176.085 210.482 176.085 185.081 C 176.051 159.692 151.806 139.118 121.887 139.089 Z"/>
  <g transform="matrix(0.25941, 0, 0, 0.190339, 58.430031, 137.491776)" style="">
    <path style="fill:#FAFAFA;" d="M256,362.667h-74.667c-5.891,0-10.667-4.776-10.667-10.667V138.667 c0-5.891,4.776-10.667,10.667-10.667H256c35.346,0.015,63.987,28.682,63.972,64.028c-0.009,21.441-10.755,41.453-28.623,53.305 c29.455,19.538,37.494,59.255,17.956,88.711C297.453,351.912,277.441,362.657,256,362.667z M192,341.333h64 c23.564,0,42.667-19.103,42.667-42.667S279.564,256,256,256h-64V341.333z M192,234.667h64c23.564,0,42.667-19.103,42.667-42.667 S279.564,149.333,256,149.333h-64V234.667z"/>
    <path style="fill:#FAFAFA;" d="M202.667,149.333c-5.891,0-10.667-4.776-10.667-10.667v-21.333c0-5.891,4.776-10.667,10.667-10.667 s10.667,4.776,10.667,10.667v21.333C213.333,144.558,208.558,149.333,202.667,149.333z"/>
    <path style="fill:#FAFAFA;" d="M245.333,149.333c-5.891,0-10.667-4.776-10.667-10.667v-21.333c0-5.891,4.776-10.667,10.667-10.667 c5.891,0,10.667,4.776,10.667,10.667v21.333C256,144.558,251.224,149.333,245.333,149.333z"/>
    <path style="fill:#FAFAFA;" d="M202.667,384c-5.891,0-10.667-4.776-10.667-10.667V352c0-5.891,4.776-10.667,10.667-10.667 s10.667,4.776,10.667,10.667v21.333C213.333,379.224,208.558,384,202.667,384z"/>
    <path style="fill:#FAFAFA;" d="M245.333,384c-5.891,0-10.667-4.776-10.667-10.667V352c0-5.891,4.776-10.667,10.667-10.667 c5.891,0,10.667,4.776,10.667,10.667v21.333C256,379.224,251.224,384,245.333,384z"/>
  </g>
  <g transform="matrix(0.761002, 0, 0, 0.602642, 3.084646, 65.584702)" style=""/>
  <g transform="matrix(0.761002, 0, 0, 0.602642, 3.084646, 65.584702)" style=""/>
  <g transform="matrix(0.761002, 0, 0, 0.602642, 3.084646, 65.584702)" style=""/>
  <g transform="matrix(0.761002, 0, 0, 0.602642, 3.084646, 65.584702)" style=""/>
  <g transform="matrix(0.761002, 0, 0, 0.602642, 3.084646, 65.584702)" style=""/>
  <g transform="matrix(0.761002, 0, 0, 0.602642, 3.084646, 65.584702)" style=""/>
  <g transform="matrix(0.761002, 0, 0, 0.602642, 3.084646, 65.584702)" style=""/>
  <g transform="matrix(0.761002, 0, 0, 0.602642, 3.084646, 65.584702)" style=""/>
  <g transform="matrix(0.761002, 0, 0, 0.602642, 3.084646, 65.584702)" style=""/>
  <g transform="matrix(0.761002, 0, 0, 0.602642, 3.084646, 65.584702)" style=""/>
  <g transform="matrix(0.761002, 0, 0, 0.602642, 3.084646, 65.584702)" style=""/>
  <g transform="matrix(0.761002, 0, 0, 0.602642, 3.084646, 65.584702)" style=""/>
  <g transform="matrix(0.761002, 0, 0, 0.602642, 3.084646, 65.584702)" style=""/>
  <g transform="matrix(0.761002, 0, 0, 0.602642, 3.084646, 65.584702)" style=""/>
  <g transform="matrix(0.761002, 0, 0, 0.602642, 3.084646, 65.584702)" style=""/>
  <g transform="matrix(0.756125, 0, 0, 0.663633, 72.186363, 95.257263)" style="">
    <circle style="fill:#FFC107;" cx="394.667" cy="234.881" r="74.667"/>
    <circle style="fill:#FFC107;" cx="266.667" cy="106.881" r="74.667"/>
  </g>
  <path style="fill: rgb(255, 224, 130);" d="M 458.467 347.233 C 447.43 327.656 422.305 317.512 398.186 322.896 L 346.004 334.35 C 343.681 316.639 187.709 269.855 163.852 264.631 L 162.663 272.708 C 158.391 271.872 154.14 274.177 153.081 277.903 L 128.885 362.849 C 127.82 366.457 130.127 370.172 134.16 371.343 L 254.833 406.581 C 265.372 410.754 276.709 413.155 288.256 413.66 C 304.613 413.66 323.744 407.388 365.877 392.24 L 454.596 356.847 C 458.65 355.227 460.441 351.031 458.596 347.472 C 458.555 347.391 458.512 347.312 458.467 347.233 Z"/>
  <path style="fill: rgb(69, 90, 100);" d="M 168.97 266.068 C 169.188 263.915 168.273 261.793 166.486 260.306 C 152.662 248.81 97.383 245.087 80.768 244.223 C 78.557 244.128 76.395 244.817 74.768 246.134 C 73.128 247.468 72.194 249.339 72.187 251.302 L 72.187 378.719 C 72.187 382.629 75.798 385.798 80.253 385.798 L 128.645 385.798 C 132.139 385.802 135.239 383.83 136.323 380.914 C 150.675 343.457 161.593 305.053 168.97 266.068 Z"/>
  <path style="fill: rgb(255, 202, 40);" d="M 304.871 356.422 C 301.166 356.425 297.471 356.107 293.837 355.474 L 231.75 344.572 C 227.385 343.79 224.569 340.051 225.459 336.219 C 226.35 332.388 230.611 329.916 234.977 330.697 L 297.048 341.599 C 302.921 342.618 308.98 342.493 314.792 341.231 L 346.214 334.336 C 348.368 341.92 343.111 349.601 334.471 351.495 L 318.679 354.964 C 314.163 355.95 309.525 356.44 304.871 356.422 Z"/>
  <g transform="matrix(0.756125, 0, 0, 0.663633, 72.186363, 95.257263)" style="">
    <path style="fill:#FFE082;" d="M394.667,266.838c-5.891,0-10.667-4.776-10.667-10.667v-42.667c0-5.891,4.776-10.667,10.667-10.667 c5.891,0,10.667,4.776,10.667,10.667v42.667C405.333,262.062,400.558,266.838,394.667,266.838z"/>
    <path style="fill:#FFE082;" d="M266.667,138.838c-5.891,0-10.667-4.776-10.667-10.667V85.505c0-5.891,4.776-10.667,10.667-10.667 c5.891,0,10.667,4.776,10.667,10.667v42.667C277.333,134.062,272.558,138.838,266.667,138.838z"/>
  </g>
  <g transform="matrix(0.756125, 0, 0, 0.663633, 72.186363, 95.257263)" style=""/>
  <g transform="matrix(0.756125, 0, 0, 0.663633, 72.186363, 95.257263)" style=""/>
  <g transform="matrix(0.756125, 0, 0, 0.663633, 72.186363, 95.257263)" style=""/>
  <g transform="matrix(0.756125, 0, 0, 0.663633, 72.186363, 95.257263)" style=""/>
  <g transform="matrix(0.756125, 0, 0, 0.663633, 72.186363, 95.257263)" style=""/>
  <g transform="matrix(0.756125, 0, 0, 0.663633, 72.186363, 95.257263)" style=""/>
  <g transform="matrix(0.756125, 0, 0, 0.663633, 72.186363, 95.257263)" style=""/>
  <g transform="matrix(0.756125, 0, 0, 0.663633, 72.186363, 95.257263)" style=""/>
  <g transform="matrix(0.756125, 0, 0, 0.663633, 72.186363, 95.257263)" style=""/>
  <g transform="matrix(0.756125, 0, 0, 0.663633, 72.186363, 95.257263)" style=""/>
  <g transform="matrix(0.756125, 0, 0, 0.663633, 72.186363, 95.257263)" style=""/>
  <g transform="matrix(0.756125, 0, 0, 0.663633, 72.186363, 95.257263)" style=""/>
  <g transform="matrix(0.756125, 0, 0, 0.663633, 72.186363, 95.257263)" style=""/>
  <g transform="matrix(0.756125, 0, 0, 0.663633, 72.186363, 95.257263)" style=""/>
  <g transform="matrix(0.756125, 0, 0, 0.663633, 72.186363, 95.257263)" style=""/>
</svg>