<?xml version="1.0" encoding="utf-8"?>
<svg viewBox="0 0 500 500" xmlns="http://www.w3.org/2000/svg" xmlns:bx="https://boxy-svg.com">
  <defs>
    <path id="path-0" style="fill: none;" d="M 69.62 191.455 C 291.157 143.656 317.607 253.164 340.981 253.164 C 357.439 253.164 235.363 238.133 244.462 238.133 C 251.2 238.133 269.16 205.868 272.152 208.861 C 284.131 210.443 296.839 216.035 306.171 219.146 C 313.341 223.522 321.025 223.715 325.949 228.639 C 333.269 231.508 339.978 238.133 346.519 238.133 C 353.39 243.422 361.755 250.4 367.089 253.956 C 367.88 257.359 374.209 260.872 374.209 264.241 L 374.209 265.823 C 374.968 266.582 376.49 269.778 376.582 269.778"/>
  </defs>
  <path d="M 240.516 135.614 C 146.038 135.614 69.18 211.949 69.18 305.786 C 69.18 399.622 146.038 475.957 240.516 475.957 C 334.996 475.957 411.854 399.622 411.854 305.786 C 411.854 211.949 334.996 135.614 240.516 135.614 Z M 240.516 135.614" fill="#f44336" style="stroke-width: 1.264; vector-effect: non-scaling-stroke;"/>
  <path d="M 63.458 634.602 C 60.919 634.602 58.86 636.445 58.86 638.716 C 58.86 640.987 60.919 642.829 63.458 642.829 C 65.996 642.829 68.057 640.987 68.057 638.716 C 68.057 636.445 65.996 634.602 63.458 634.602 Z" style=""/>
  <path d="M 335.841 278.404 C 324.525 274.327 309.814 272.082 294.416 272.082 C 279.019 272.082 264.306 274.327 252.99 278.404 C 246.303 280.813 241.197 283.757 237.856 287.061 C 234.513 283.757 229.409 280.813 222.721 278.405 C 211.406 274.327 196.694 272.082 181.296 272.082 C 165.899 272.082 151.186 274.327 139.87 278.404 C 127.145 282.989 120.137 289.508 120.137 296.762 L 120.137 395.484 C 120.137 402.738 127.145 409.259 139.87 413.844 C 150.395 417.635 163.858 419.839 178.077 420.13 L 178.077 420.166 C 178.077 434.236 203.776 444.846 237.856 444.846 C 271.935 444.846 297.634 434.236 297.634 420.166 L 297.634 420.13 C 311.853 419.839 325.317 417.635 335.841 413.844 C 348.566 409.259 355.573 402.738 355.573 395.484 L 355.573 296.762 C 355.573 289.508 348.566 282.989 335.841 278.404 Z M 346.377 370.805 C 346.377 374.316 341.023 378.426 332.406 381.531 C 323.076 384.892 310.553 386.926 297.634 387.217 L 297.634 370.805 C 297.634 370.793 297.633 370.78 297.633 370.769 C 311.853 370.478 325.316 368.274 335.842 364.483 C 339.971 362.993 343.495 361.301 346.377 359.445 L 346.377 370.805 L 346.377 370.805 Z M 233.257 321.443 C 233.257 324.954 227.904 329.065 219.286 332.17 C 209.184 335.81 195.337 337.896 181.296 337.896 C 167.253 337.896 153.407 335.81 143.307 332.17 C 134.687 329.065 129.334 324.954 129.334 321.443 L 129.334 310.084 C 132.216 311.939 135.74 313.632 139.87 315.121 C 151.186 319.197 165.899 321.443 181.296 321.443 C 196.694 321.443 211.406 319.197 222.721 315.121 C 226.851 313.632 230.375 311.939 233.257 310.084 L 233.257 321.443 Z M 139.87 339.801 C 151.186 343.879 165.899 346.123 181.296 346.123 C 196.694 346.123 211.406 343.879 222.721 339.801 C 226.851 338.313 230.375 336.619 233.257 334.765 L 233.257 346.196 C 221.361 346.556 209.952 348.303 200.726 351.21 C 191.47 354.127 184.81 358.015 181.189 362.577 C 167.184 362.566 153.382 360.481 143.307 356.85 C 134.687 353.745 129.334 349.636 129.334 346.123 L 129.334 334.765 C 132.216 336.619 135.74 338.313 139.87 339.801 Z M 129.334 359.445 C 132.216 361.301 135.74 362.993 139.87 364.483 C 150.395 368.274 163.858 370.478 178.078 370.769 C 178.078 370.781 178.077 370.793 178.077 370.805 L 178.077 387.217 C 165.157 386.926 152.635 384.892 143.307 381.531 C 134.687 378.426 129.334 374.316 129.334 370.805 L 129.334 359.445 Z M 187.76 368.784 C 191.168 361.689 210.837 354.35 237.856 354.35 C 264.873 354.35 284.544 361.689 287.947 368.776 C 288.277 369.467 288.437 370.13 288.437 370.805 C 288.437 374.42 283.453 378.438 275.105 381.55 C 265.229 385.23 252 387.258 237.856 387.258 C 223.71 387.258 210.482 385.23 200.606 381.55 C 192.258 378.438 187.273 374.42 187.273 370.805 C 187.273 370.13 187.434 369.467 187.76 368.784 Z M 346.377 346.123 C 346.377 349.636 341.023 353.745 332.406 356.85 C 322.33 360.481 308.528 362.566 294.524 362.577 C 290.905 358.017 284.244 354.128 274.986 351.21 C 265.759 348.303 254.351 346.556 242.454 346.196 L 242.454 334.765 C 245.336 336.619 248.859 338.313 252.99 339.801 C 264.306 343.879 279.019 346.123 294.416 346.123 C 309.814 346.123 324.525 343.879 335.841 339.801 C 339.971 338.313 343.494 336.619 346.377 334.765 L 346.377 346.123 Z M 346.377 321.443 C 346.377 324.954 341.023 329.065 332.406 332.17 C 322.303 335.81 308.457 337.896 294.416 337.896 C 280.373 337.896 266.527 335.81 256.427 332.17 C 247.807 329.065 242.454 324.954 242.454 321.443 L 242.454 310.084 C 245.336 311.939 248.859 313.632 252.99 315.121 C 264.306 319.197 279.019 321.443 294.416 321.443 C 309.814 321.443 324.525 319.197 335.841 315.121 C 339.971 313.632 343.494 311.939 346.377 310.084 L 346.377 321.443 Z M 256.427 286.035 C 266.527 282.396 280.373 280.309 294.416 280.309 C 308.457 280.309 322.303 282.396 332.406 286.035 C 341.023 289.14 346.377 293.251 346.377 296.762 C 346.377 300.275 341.023 304.383 332.406 307.488 C 322.303 311.129 308.457 313.216 294.416 313.216 C 280.373 313.216 266.527 311.129 256.427 307.488 C 247.807 304.383 242.454 300.275 242.454 296.762 C 242.454 293.251 247.807 289.14 256.427 286.035 Z M 143.307 286.035 C 153.407 282.396 167.253 280.309 181.296 280.309 C 195.337 280.309 209.184 282.396 219.286 286.035 C 227.904 289.14 233.257 293.251 233.257 296.762 C 233.257 300.275 227.904 304.383 219.286 307.488 C 209.184 311.129 195.337 313.216 181.296 313.216 C 167.253 313.216 153.407 311.129 143.307 307.488 C 134.687 304.383 129.334 300.275 129.334 296.762 C 129.334 293.251 134.687 289.14 143.307 286.035 Z M 143.307 406.211 C 134.687 403.106 129.334 398.996 129.334 395.484 L 129.334 384.126 C 132.216 385.981 135.74 387.674 139.87 389.162 C 150.395 392.955 163.858 395.16 178.077 395.449 L 178.077 411.898 C 165.157 411.606 152.634 409.573 143.307 406.211 Z M 275.105 430.911 C 265.229 434.592 252 436.619 237.856 436.619 C 223.71 436.619 210.482 434.592 200.606 430.911 C 192.258 427.799 187.273 423.782 187.273 420.166 L 187.273 409.046 C 188.315 409.721 189.466 410.391 190.743 411.051 C 197.883 414.747 207.599 417.482 218.841 418.958 C 219.067 418.988 219.292 419.002 219.514 419.002 C 221.758 419.002 223.722 417.531 224.057 415.486 C 224.427 413.238 222.688 411.148 220.176 410.818 C 198.805 408.012 187.273 400.823 187.273 395.484 L 187.273 384.329 C 197.681 391.142 216.053 395.484 237.856 395.484 C 259.658 395.484 278.029 391.142 288.437 384.329 L 288.437 395.484 C 288.437 400.823 276.906 408.012 255.535 410.818 C 253.022 411.148 251.285 413.238 251.653 415.486 C 251.989 417.531 253.953 419.002 256.197 419.002 C 256.419 419.002 256.644 418.988 256.872 418.958 C 268.111 417.482 277.827 414.747 284.969 411.051 C 286.244 410.391 287.396 409.721 288.437 409.046 L 288.437 420.166 C 288.437 423.782 283.453 427.799 275.105 430.911 Z M 332.406 406.211 C 323.076 409.572 310.553 411.606 297.634 411.898 L 297.634 395.449 C 311.853 395.159 325.317 392.954 335.841 389.162 C 339.971 387.674 343.494 385.98 346.377 384.125 L 346.377 395.484 C 346.377 398.996 341.023 403.106 332.406 406.211 Z" style=""/>
  <g transform="matrix(0.459837, 0, 0, 0.411343, -54.259483, 475.823212)" style=""/>
  <g transform="matrix(0.459837, 0, 0, 0.411343, -54.259483, 475.823212)" style=""/>
  <g transform="matrix(0.459837, 0, 0, 0.411343, -54.259483, 475.823212)" style=""/>
  <g transform="matrix(0.459837, 0, 0, 0.411343, -54.259483, 475.823212)" style=""/>
  <g transform="matrix(0.459837, 0, 0, 0.411343, -54.259483, 475.823212)" style=""/>
  <g transform="matrix(0.459837, 0, 0, 0.411343, -54.259483, 475.823212)" style=""/>
  <g transform="matrix(0.459837, 0, 0, 0.411343, -54.259483, 475.823212)" style=""/>
  <g transform="matrix(0.459837, 0, 0, 0.411343, -54.259483, 475.823212)" style=""/>
  <g transform="matrix(0.459837, 0, 0, 0.411343, -54.259483, 475.823212)" style=""/>
  <g transform="matrix(0.459837, 0, 0, 0.411343, -54.259483, 475.823212)" style=""/>
  <g transform="matrix(0.459837, 0, 0, 0.411343, -54.259483, 475.823212)" style=""/>
  <g transform="matrix(0.459837, 0, 0, 0.411343, -54.259483, 475.823212)" style=""/>
  <g transform="matrix(0.459837, 0, 0, 0.411343, -54.259483, 475.823212)" style=""/>
  <g transform="matrix(0.459837, 0, 0, 0.411343, -54.259483, 475.823212)" style=""/>
  <g transform="matrix(0.459837, 0, 0, 0.411343, -54.259483, 475.823212)" style=""/>
  <path style="fill: rgb(216, 216, 216);" transform="matrix(0.337411, 0.819429, -0.925323, 0.320385, 348.69754, -166.043564)" d="M 341.252 235.846 L 354.748 235.846 L 357.596 256.458 A 35.85 35.85 0 0 1 365.64 259.79 L 382.229 247.229 L 391.771 256.771 L 379.21 273.36 A 35.85 35.85 0 0 1 382.542 281.404 L 403.154 284.252 L 403.154 297.748 L 382.542 300.596 A 35.85 35.85 0 0 1 379.21 308.64 L 391.771 325.229 L 382.229 334.771 L 365.64 322.21 A 35.85 35.85 0 0 1 357.596 325.542 L 354.748 346.154 L 341.252 346.154 L 338.404 325.542 A 35.85 35.85 0 0 1 330.36 322.21 L 313.771 334.771 L 304.229 325.229 L 316.79 308.64 A 35.85 35.85 0 0 1 313.458 300.596 L 292.846 297.748 L 292.846 284.252 L 313.458 281.404 A 35.85 35.85 0 0 1 316.79 273.36 L 304.229 256.771 L 313.771 247.229 L 330.36 259.79 A 35.85 35.85 0 0 1 338.404 256.458 Z M 348 274.454 A 16.546 16.546 0 0 0 348 307.546 A 16.546 16.546 0 0 0 348 274.454" bx:shape="cog 348 291 16.546 35.85 55.154 0.38 8 1@cceb2781"/>
  <path style="fill: rgb(216, 216, 216);" transform="matrix(0.325778, 0.791175, -0.919415, 0.318338, 441.50592, -137.961075)" d="M 341.252 235.846 L 354.748 235.846 L 357.596 256.458 A 35.85 35.85 0 0 1 365.64 259.79 L 382.229 247.229 L 391.771 256.771 L 379.21 273.36 A 35.85 35.85 0 0 1 382.542 281.404 L 403.154 284.252 L 403.154 297.748 L 382.542 300.596 A 35.85 35.85 0 0 1 379.21 308.64 L 391.771 325.229 L 382.229 334.771 L 365.64 322.21 A 35.85 35.85 0 0 1 357.596 325.542 L 354.748 346.154 L 341.252 346.154 L 338.404 325.542 A 35.85 35.85 0 0 1 330.36 322.21 L 313.771 334.771 L 304.229 325.229 L 316.79 308.64 A 35.85 35.85 0 0 1 313.458 300.596 L 292.846 297.748 L 292.846 284.252 L 313.458 281.404 A 35.85 35.85 0 0 1 316.79 273.36 L 304.229 256.771 L 313.771 247.229 L 330.36 259.79 A 35.85 35.85 0 0 1 338.404 256.458 Z M 348 274.454 A 16.546 16.546 0 0 0 348 307.546 A 16.546 16.546 0 0 0 348 274.454" bx:shape="cog 348 291 16.546 35.85 55.154 0.38 8 1@cceb2781"/>
</svg>