<svg fill="#000000" xmlns="http://www.w3.org/2000/svg"  viewBox="0 0 50 50" width="50px" height="50px"><path d="M46.321,9.209L25.254,2.053c-0.21-0.07-0.439-0.069-0.65,0.003L3.671,9.341C3.227,9.495,2.95,9.939,3.008,10.406l3.308,27.123c0.039,0.321,0.23,0.604,0.515,0.758l17.647,9.592C24.626,47.96,24.791,48,24.955,48c0.165,0,0.331-0.041,0.48-0.123l17.738-9.722c0.282-0.155,0.474-0.437,0.512-0.756l3.307-27.122C47.05,9.808,46.77,9.361,46.321,9.209z M33.563,35l-2.782-5.993H19.219L16.437,35H12L25,7l13,28H33.563z"/><path d="M28.92 25L25 16.5 21.08 25z"/></svg>