<svg fill="#000000" xmlns="http://www.w3.org/2000/svg"  viewBox="0 0 50 50" width="50px" height="50px"><path fill-rule="nonzero" d="M42.027,23.034c0.028,-0.334 0.057,-0.663 0.057,-0.999c0,-7.202 -5.893,-13.035 -13.155,-13.035c-5.304,0 -9.866,3.124 -11.946,7.602c-1.094,-0.77 -2.433,-1.227 -3.88,-1.227c-3.712,0 -6.713,2.982 -6.713,6.66c0,0.55 0.072,1.085 0.201,1.598c-2.734,1.477 -4.591,4.35 -4.591,7.653c0,4.813 3.937,8.714 8.793,8.714l28.412,0c4.858,0 8.795,-3.901 8.795,-8.714c0,-3.838 -2.498,-7.082 -5.973,-8.252Zm-0.512,7.43c-0.302,3.161 -2.511,6.527 -7.815,6.527c-4.009,0 -7.822,-4.215 -9.484,-6.561c-0.007,-0.008 -3.11,-4.758 -6.549,-4.636c-3.361,0.121 -4.247,1.875 -4.398,3.445c-0.151,1.569 0.756,3.181 2.202,3.922c1.814,0.927 4.08,0.356 6.37,-1.612l2.244,2.574c-2.209,1.904 -4.569,2.876 -6.807,2.881c-1.173,0 -2.318,-0.27 -3.382,-0.812c-2.707,-1.384 -4.333,-4.307 -4.044,-7.274c0.302,-3.153 2.511,-6.525 7.815,-6.525c4.734,0 8.06,4.263 9.139,5.755c1.793,2.473 4.921,5.44 6.894,5.44c3.361,0 4.247,-1.875 4.398,-3.443c0.151,-1.57 -0.756,-3.182 -2.204,-3.923c-1.812,-0.921 -4.071,-0.356 -6.368,1.612l-2.244,-2.575c3.375,-2.895 7.087,-3.644 10.189,-2.061c2.707,1.384 4.332,4.3 4.044,7.266Z"/></svg>