<?xml version="1.0" encoding="utf-8"?>
<svg viewBox="0 0 500 500" xmlns="http://www.w3.org/2000/svg">
  <g id="freepik--Shadow--inject-5" transform="matrix(1, 0, 0, 1, -61.708855, -5.359556)">
    <ellipse id="freepik--path--inject-5" cx="250" cy="416.24" rx="193.89" ry="11.32" style="fill: rgba(255, 0, 30, 0.42);"/>
  </g>
  <g id="freepik--fireworks-2--inject-5" transform="matrix(1, 0, 0, 1, -61.708855, -5.359556)">
    <path d="M303.57,187.3l.06,0a.75.75,0,0,0,.91-1.19l-12.06-9.23Z" style="fill:#407BFF"/>
    <path d="M286.34,195.2l2-18.45L284.86,195s0,0,0,.06a.75.75,0,0,0,1.49.16Z" style="fill:#407BFF"/>
    <path d="M284.56,175.31l-13.9,6.94-.06,0a.75.75,0,1,0,.8,1.28Z" style="fill:#407BFF"/>
    <path d="M268.43,165.79a.75.75,0,0,0-.4,1.44l16.67,4.65-16.2-6.07Z" style="fill:#407BFF"/>
    <path d="M279.42,155.09a.21.21,0,0,1,0-.06.76.76,0,0,0-1-.21.74.74,0,0,0-.21,1l8.56,13Z" style="fill:#407BFF"/>
    <path d="M296,155.92,291.11,169l6.22-12.49a.25.25,0,0,0,0-.07.76.76,0,0,0-.45-1A.75.75,0,0,0,296,155.92Z" style="fill:#407BFF"/>
    <path d="M306.83,171.18a.75.75,0,0,0-.29-1.47l-13.06,2.54,13.26-1.06Z" style="fill:#407BFF"/>
    <path d="M298.52,176.65a.75.75,0,0,0,.83-.67.77.77,0,0,0-.68-.83l-7-.72,6.65,2.19A.41.41,0,0,0,298.52,176.65Z" style="fill:#407BFF"/>
    <path d="M289.85,181.62a.76.76,0,1,0,1.49-.22l-1.53-5.16Z" style="fill:#407BFF"/>
    <path d="M283.69,180.22a1.29,1.29,0,0,0-.09.16.76.76,0,0,0,.39,1,.75.75,0,0,0,1-.39l2.43-5.56Z" style="fill:#407BFF"/>
    <path d="M286.05,173.8l-6.83-.24h-.17a.75.75,0,0,0,.28,1.48Z" style="fill:#407BFF"/>
    <path d="M281.72,167.65l1,.75a.77.77,0,0,0-.81.52.78.78,0,0,0,.5,1l2.46.81L283.51,169l3.66,2.68-4.44-5.1-.12-.12a.76.76,0,0,0-1.06.17A.75.75,0,0,0,281.72,167.65Z" style="fill:#407BFF"/>
    <path d="M289.49,168.69l.38,1,.82-1.68a.86.86,0,0,0,0-.65.83.83,0,0,0-1.06-.47.5.5,0,0,0-.12.08l.07-2.39a1.23,1.23,0,0,0,0-.19.76.76,0,0,0-1.48.33l1.32,5.93Z" style="fill:#407BFF"/>
    <path d="M291.44,171.82l5.72-3.13a.71.71,0,0,0,.14-.1.76.76,0,0,0,.06-1.07.77.77,0,0,0-1.07-.06Z" style="fill:#407BFF"/>
    <path d="M293.74,192.27a.76.76,0,0,0,1,.43.75.75,0,0,0,.43-1l-1.77-4.6.31,4.92A.68.68,0,0,0,293.74,192.27Z" style="fill:#407BFF"/>
    <path d="M278.68,189.27l2.12-4.39-3.35,3.54a.94.94,0,0,0-.14.19.76.76,0,0,0,.36,1A.75.75,0,0,0,278.68,189.27Z" style="fill:#407BFF"/>
    <path d="M269.65,173.16a.65.65,0,0,0-.28,0,.76.76,0,1,0,.15,1.52l4-.39Z" style="fill:#407BFF"/>
    <path d="M273.64,160a.78.78,0,0,0-1.06.2.76.76,0,0,0,.2,1l4.23,2.9-3.21-4A1.17,1.17,0,0,0,273.64,160Z" style="fill:#407BFF"/>
    <path d="M288.9,154.18a.81.81,0,0,0,0-.22.76.76,0,0,0-.83-.68.77.77,0,0,0-.68.84l.54,5.17Z" style="fill:#407BFF"/>
    <path d="M301.47,164.14l4.33-2.36a.59.59,0,0,0,.18-.14.76.76,0,0,0-1.09-1Z" style="fill:#407BFF"/>
    <path d="M308.7,179.75a.77.77,0,0,0,.89-.61.76.76,0,0,0-.61-.88l-4.54-.84,4,2.25Z" style="fill:#407BFF"/>
    <path d="M297.66,174a.49.49,0,0,0,.24,0,.75.75,0,1,0-.24-1.49l-4.83.76Z" style="fill:#407BFF"/>
    <path d="M296.25,178.57a.76.76,0,1,0,.42-1.47l-3.65-1,3,2.36A.72.72,0,0,0,296.25,178.57Z" style="fill:#407BFF"/>
    <path d="M292.82,181.07A.77.77,0,0,0,293,180l-2-3.09.61,3.63a.65.65,0,0,0,.11.29A.76.76,0,0,0,292.82,181.07Z" style="fill:#407BFF"/>
    <path d="M286.79,181a.78.78,0,0,0,.76-.79l0-3-1.42,2.62a.85.85,0,0,0-.09.38A.79.79,0,0,0,286.79,181Z" style="fill:#407BFF"/>
    <path d="M286.41,175.39l-2.55,1.33a.8.8,0,0,0-.3.28.78.78,0,0,0,.25,1.07.77.77,0,0,0,1.07-.25Z" style="fill:#407BFF"/>
    <path d="M284.81,172.67l-3.4-.89a.86.86,0,0,0-.32,0,.77.77,0,0,0-.63.89.76.76,0,0,0,.89.62Z" style="fill:#407BFF"/>
    <path d="M286.73,166.72a.78.78,0,0,0-.08,1.11l1.61,1.88-.23-2.46a.83.83,0,0,0-.19-.44A.79.79,0,0,0,286.73,166.72Z" style="fill:#407BFF"/>
    <path d="M285.79,167.72a.78.78,0,1,0-.86,1.3l2.28,1.5L286.07,168A.79.79,0,0,0,285.79,167.72Z" style="fill:#407BFF"/>
    <path d="M294.46,168.32a.77.77,0,1,0-1.37-.71l-1.43,2.72,2.55-1.73A.69.69,0,0,0,294.46,168.32Z" style="fill:#407BFF"/>
    <g style="opacity:0.75">
      <path d="M303.57,187.3l.06,0a.75.75,0,0,0,.91-1.19l-12.06-9.23Z" style="fill:#fff"/>
      <path d="M286.34,195.2l2-18.45L284.86,195s0,0,0,.06a.75.75,0,0,0,1.49.16Z" style="fill:#fff"/>
      <path d="M284.56,175.31l-13.9,6.94-.06,0a.75.75,0,1,0,.8,1.28Z" style="fill:#fff"/>
      <path d="M268.43,165.79a.75.75,0,0,0-.4,1.44l16.67,4.65-16.2-6.07Z" style="fill:#fff"/>
      <path d="M279.42,155.09a.21.21,0,0,1,0-.06.76.76,0,0,0-1-.21.74.74,0,0,0-.21,1l8.56,13Z" style="fill:#fff"/>
      <path d="M296,155.92,291.11,169l6.22-12.49a.25.25,0,0,0,0-.07.76.76,0,0,0-.45-1A.75.75,0,0,0,296,155.92Z" style="fill:#fff"/>
      <path d="M306.83,171.18a.75.75,0,0,0-.29-1.47l-13.06,2.54,13.26-1.06Z" style="fill:#fff"/>
      <path d="M298.52,176.65a.75.75,0,0,0,.83-.67.77.77,0,0,0-.68-.83l-7-.72,6.65,2.19A.41.41,0,0,0,298.52,176.65Z" style="fill:#fff"/>
      <path d="M289.85,181.62a.76.76,0,1,0,1.49-.22l-1.53-5.16Z" style="fill:#fff"/>
      <path d="M283.69,180.22a1.29,1.29,0,0,0-.09.16.76.76,0,0,0,.39,1,.75.75,0,0,0,1-.39l2.43-5.56Z" style="fill:#fff"/>
      <path d="M286.05,173.8l-6.83-.24h-.17a.75.75,0,0,0,.28,1.48Z" style="fill:#fff"/>
      <path d="M281.72,167.65l1,.75a.77.77,0,0,0-.81.52.78.78,0,0,0,.5,1l2.46.81L283.51,169l3.66,2.68-4.44-5.1-.12-.12a.76.76,0,0,0-1.06.17A.75.75,0,0,0,281.72,167.65Z" style="fill:#fff"/>
      <path d="M289.49,168.69l.38,1,.82-1.68a.86.86,0,0,0,0-.65.83.83,0,0,0-1.06-.47.5.5,0,0,0-.12.08l.07-2.39a1.23,1.23,0,0,0,0-.19.76.76,0,0,0-1.48.33l1.32,5.93Z" style="fill:#fff"/>
      <path d="M291.44,171.82l5.72-3.13a.71.71,0,0,0,.14-.1.76.76,0,0,0,.06-1.07.77.77,0,0,0-1.07-.06Z" style="fill:#fff"/>
      <path d="M293.74,192.27a.76.76,0,0,0,1,.43.75.75,0,0,0,.43-1l-1.77-4.6.31,4.92A.68.68,0,0,0,293.74,192.27Z" style="fill:#fff"/>
      <path d="M278.68,189.27l2.12-4.39-3.35,3.54a.94.94,0,0,0-.14.19.76.76,0,0,0,.36,1A.75.75,0,0,0,278.68,189.27Z" style="fill:#fff"/>
      <path d="M269.65,173.16a.65.65,0,0,0-.28,0,.76.76,0,1,0,.15,1.52l4-.39Z" style="fill:#fff"/>
      <path d="M273.64,160a.78.78,0,0,0-1.06.2.76.76,0,0,0,.2,1l4.23,2.9-3.21-4A1.17,1.17,0,0,0,273.64,160Z" style="fill:#fff"/>
      <path d="M288.9,154.18a.81.81,0,0,0,0-.22.76.76,0,0,0-.83-.68.77.77,0,0,0-.68.84l.54,5.17Z" style="fill:#fff"/>
      <path d="M301.47,164.14l4.33-2.36a.59.59,0,0,0,.18-.14.76.76,0,0,0-1.09-1Z" style="fill:#fff"/>
      <path d="M308.7,179.75a.77.77,0,0,0,.89-.61.76.76,0,0,0-.61-.88l-4.54-.84,4,2.25Z" style="fill:#fff"/>
      <path d="M297.66,174a.49.49,0,0,0,.24,0,.75.75,0,1,0-.24-1.49l-4.83.76Z" style="fill:#fff"/>
      <path d="M296.25,178.57a.76.76,0,1,0,.42-1.47l-3.65-1,3,2.36A.72.72,0,0,0,296.25,178.57Z" style="fill:#fff"/>
      <path d="M292.82,181.07A.77.77,0,0,0,293,180l-2-3.09.61,3.63a.65.65,0,0,0,.11.29A.76.76,0,0,0,292.82,181.07Z" style="fill:#fff"/>
      <path d="M286.79,181a.78.78,0,0,0,.76-.79l0-3-1.42,2.62a.85.85,0,0,0-.09.38A.79.79,0,0,0,286.79,181Z" style="fill:#fff"/>
      <path d="M286.41,175.39l-2.55,1.33a.8.8,0,0,0-.3.28.78.78,0,0,0,.25,1.07.77.77,0,0,0,1.07-.25Z" style="fill:#fff"/>
      <path d="M284.81,172.67l-3.4-.89a.86.86,0,0,0-.32,0,.77.77,0,0,0-.63.89.76.76,0,0,0,.89.62Z" style="fill:#fff"/>
      <path d="M286.73,166.72a.78.78,0,0,0-.08,1.11l1.61,1.88-.23-2.46a.83.83,0,0,0-.19-.44A.79.79,0,0,0,286.73,166.72Z" style="fill:#fff"/>
      <path d="M285.79,167.72a.78.78,0,1,0-.86,1.3l2.28,1.5L286.07,168A.79.79,0,0,0,285.79,167.72Z" style="fill:#fff"/>
      <path d="M294.46,168.32a.77.77,0,1,0-1.37-.71l-1.43,2.72,2.55-1.73A.69.69,0,0,0,294.46,168.32Z" style="fill:#fff"/>
    </g>
    <path d="M359.05,90.23H359a.74.74,0,0,0-.84.64.77.77,0,0,0,.65.85l15.06,2Z" style="fill:#407BFF"/>
    <path d="M370,74.77l7.47,17-6.08-17.53a.14.14,0,0,0,0-.06.75.75,0,0,0-1-.38A.74.74,0,0,0,370,74.77Z" style="fill:#407BFF"/>
    <path d="M381.51,91.11l8.56-13,0-.06a.75.75,0,0,0-1.33-.71Z" style="fill:#407BFF"/>
    <path d="M400.23,91.29a.74.74,0,0,0,.54-.91.73.73,0,0,0-.91-.54L383.1,94.15l17.07-2.85Z" style="fill:#407BFF"/>
    <path d="M396.07,106l.06,0a.76.76,0,0,0,1-.34.73.73,0,0,0-.34-1l-13.89-6.95Z" style="fill:#407BFF"/>
    <path d="M381.33,113.6,379,99.85l.85,13.92s0,.06,0,.08a.75.75,0,1,0,1.48-.25Z" style="fill:#407BFF"/>
    <path d="M364.29,105.82a.75.75,0,0,0-.08,1.06.76.76,0,0,0,1.06.07l10-8.73-11,7.55Z" style="fill:#407BFF"/>
    <path d="M368.75,96.92a.76.76,0,0,0-.38,1,.75.75,0,0,0,1,.38l6.4-2.85-6.86,1.42Z" style="fill:#407BFF"/>
    <path d="M373.77,88.29a.75.75,0,0,0-.14-.17.76.76,0,0,0-1,1.1l3.9,3.71Z" style="fill:#407BFF"/>
    <path d="M379.8,86.42a.6.6,0,0,0,0-.19.75.75,0,0,0-1.5.17l.68,6Z" style="fill:#407BFF"/>
    <path d="M381,93.16,387,90a.42.42,0,0,0,.14-.09.76.76,0,0,0,.08-1.06.75.75,0,0,0-1.06-.09Z" style="fill:#407BFF"/>
    <path d="M387.8,96.32l-1.26-.14a.77.77,0,0,0,.44-.86.78.78,0,0,0-.93-.6l-2.54.53,2.08.83-4.51-.49,6.39,2.19.17,0a.75.75,0,0,0,.16-1.5Z" style="fill:#407BFF"/>
    <path d="M380.55,99.31l-.82-.66.13,1.87a.82.82,0,0,0,1.46.45.45.45,0,0,0,.06-.12l1.14,2.1a.86.86,0,0,0,.1.16.77.77,0,0,0,1.07,0,.76.76,0,0,0,.05-1.07l-4.11-4.47Z" style="fill:#407BFF"/>
    <path d="M377.29,97.57l-3.39,5.57-.07.16a.76.76,0,0,0,1.44.47Z" style="fill:#407BFF"/>
    <path d="M365.08,81a.76.76,0,1,0-.95,1.19L368,85.29l-2.74-4.11A.8.8,0,0,0,365.08,81Z" style="fill:#407BFF"/>
    <path d="M379.62,76.08l.35,4.86,1.14-4.74a.58.58,0,0,0,0-.23.76.76,0,0,0-1.51.11Z" style="fill:#407BFF"/>
    <path d="M395.49,85.52a1.23,1.23,0,0,0,.26-.12.78.78,0,0,0,.18-1.07.77.77,0,0,0-1.07-.17l-3.27,2.33Z" style="fill:#407BFF"/>
    <path d="M398.63,98.92a.76.76,0,0,0,.11-1.51l-5.1-.39,4.77,1.85A.79.79,0,0,0,398.63,98.92Z" style="fill:#407BFF"/>
    <path d="M388.31,111.58a.93.93,0,0,0,.11.19.74.74,0,0,0,1.05.17.75.75,0,0,0,.17-1.06l-3.05-4.21Z" style="fill:#407BFF"/>
    <path d="M372.45,109.24l-2.57,4.2a.85.85,0,0,0-.09.22.76.76,0,0,0,1.47.36Z" style="fill:#407BFF"/>
    <path d="M358.38,99.33a.76.76,0,0,0,.51,1.44l4.34-1.55-4.61.07A1,1,0,0,0,358.38,99.33Z" style="fill:#407BFF"/>
    <path d="M370.84,98.83a.82.82,0,0,0-.2.12.76.76,0,0,0-.12,1.07.77.77,0,0,0,1.07.11l3.8-3.08Z" style="fill:#407BFF"/>
    <path d="M369.75,94.13a.77.77,0,0,0-.56.93.76.76,0,0,0,.93.55l3.68-.93-3.75-.56A.76.76,0,0,0,369.75,94.13Z" style="fill:#407BFF"/>
    <path d="M371.47,90.25a.77.77,0,0,0,.34,1L375.09,93l-2.34-2.84a.79.79,0,0,0-.25-.19A.77.77,0,0,0,371.47,90.25Z" style="fill:#407BFF"/>
    <path d="M376.73,87.28a.77.77,0,0,0-.27,1.06L378,90.9l-.09-3a.83.83,0,0,0-.11-.37A.77.77,0,0,0,376.73,87.28Z" style="fill:#407BFF"/>
    <path d="M379.86,92l1.55-2.43a.85.85,0,0,0,.12-.39.78.78,0,1,0-1.56-.06Z" style="fill:#407BFF"/>
    <path d="M382.61,93.52l3.38-.93a.73.73,0,0,0,.29-.15.77.77,0,1,0-1-1.18Z" style="fill:#407BFF"/>
    <path d="M383.92,99.63a.78.78,0,0,0-.48-1l-2.34-.82,1.43,2a.78.78,0,0,0,.39.29A.79.79,0,0,0,383.92,99.63Z" style="fill:#407BFF"/>
    <path d="M384.24,98.3a.77.77,0,0,0,.82-.73.78.78,0,0,0-.73-.83l-2.73-.16,2.23,1.58A.84.84,0,0,0,384.24,98.3Z" style="fill:#407BFF"/>
    <path d="M376.42,102.11a.78.78,0,0,0,1.55-.06L377.84,99l-1.34,2.77A.91.91,0,0,0,376.42,102.11Z" style="fill:#407BFF"/>
    <g style="opacity:0.75">
      <path d="M359.05,90.23H359a.74.74,0,0,0-.84.64.77.77,0,0,0,.65.85l15.06,2Z" style="fill:#fff"/>
      <path d="M370,74.77l7.47,17-6.08-17.53a.14.14,0,0,0,0-.06.75.75,0,0,0-1-.38A.74.74,0,0,0,370,74.77Z" style="fill:#fff"/>
      <path d="M381.51,91.11l8.56-13,0-.06a.75.75,0,0,0-1.33-.71Z" style="fill:#fff"/>
      <path d="M400.23,91.29a.74.74,0,0,0,.54-.91.73.73,0,0,0-.91-.54L383.1,94.15l17.07-2.85Z" style="fill:#fff"/>
      <path d="M396.07,106l.06,0a.76.76,0,0,0,1-.34.73.73,0,0,0-.34-1l-13.89-6.95Z" style="fill:#fff"/>
      <path d="M381.33,113.6,379,99.85l.85,13.92s0,.06,0,.08a.75.75,0,1,0,1.48-.25Z" style="fill:#fff"/>
      <path d="M364.29,105.82a.75.75,0,0,0-.08,1.06.76.76,0,0,0,1.06.07l10-8.73-11,7.55Z" style="fill:#fff"/>
      <path d="M368.75,96.92a.76.76,0,0,0-.38,1,.75.75,0,0,0,1,.38l6.4-2.85-6.86,1.42Z" style="fill:#fff"/>
      <path d="M373.77,88.29a.75.75,0,0,0-.14-.17.76.76,0,0,0-1,1.1l3.9,3.71Z" style="fill:#fff"/>
      <path d="M379.8,86.42a.6.6,0,0,0,0-.19.75.75,0,0,0-1.5.17l.68,6Z" style="fill:#fff"/>
      <path d="M381,93.16,387,90a.42.42,0,0,0,.14-.09.76.76,0,0,0,.08-1.06.75.75,0,0,0-1.06-.09Z" style="fill:#fff"/>
      <path d="M387.8,96.32l-1.26-.14a.77.77,0,0,0,.44-.86.78.78,0,0,0-.93-.6l-2.54.53,2.08.83-4.51-.49,6.39,2.19.17,0a.75.75,0,0,0,.16-1.5Z" style="fill:#fff"/>
      <path d="M380.55,99.31l-.82-.66.13,1.87a.82.82,0,0,0,1.46.45.45.45,0,0,0,.06-.12l1.14,2.1a.86.86,0,0,0,.1.16.77.77,0,0,0,1.07,0,.76.76,0,0,0,.05-1.07l-4.11-4.47Z" style="fill:#fff"/>
      <path d="M377.29,97.57l-3.39,5.57-.07.16a.76.76,0,0,0,1.44.47Z" style="fill:#fff"/>
      <path d="M365.08,81a.76.76,0,1,0-.95,1.19L368,85.29l-2.74-4.11A.8.8,0,0,0,365.08,81Z" style="fill:#fff"/>
      <path d="M379.62,76.08l.35,4.86,1.14-4.74a.58.58,0,0,0,0-.23.76.76,0,0,0-1.51.11Z" style="fill:#fff"/>
      <path d="M395.49,85.52a1.23,1.23,0,0,0,.26-.12.78.78,0,0,0,.18-1.07.77.77,0,0,0-1.07-.17l-3.27,2.33Z" style="fill:#fff"/>
      <path d="M398.63,98.92a.76.76,0,0,0,.11-1.51l-5.1-.39,4.77,1.85A.79.79,0,0,0,398.63,98.92Z" style="fill:#fff"/>
      <path d="M388.31,111.58a.93.93,0,0,0,.11.19.74.74,0,0,0,1.05.17.75.75,0,0,0,.17-1.06l-3.05-4.21Z" style="fill:#fff"/>
      <path d="M372.45,109.24l-2.57,4.2a.85.85,0,0,0-.09.22.76.76,0,0,0,1.47.36Z" style="fill:#fff"/>
      <path d="M358.38,99.33a.76.76,0,0,0,.51,1.44l4.34-1.55-4.61.07A1,1,0,0,0,358.38,99.33Z" style="fill:#fff"/>
      <path d="M370.84,98.83a.82.82,0,0,0-.2.12.76.76,0,0,0-.12,1.07.77.77,0,0,0,1.07.11l3.8-3.08Z" style="fill:#fff"/>
      <path d="M369.75,94.13a.77.77,0,0,0-.56.93.76.76,0,0,0,.93.55l3.68-.93-3.75-.56A.76.76,0,0,0,369.75,94.13Z" style="fill:#fff"/>
      <path d="M371.47,90.25a.77.77,0,0,0,.34,1L375.09,93l-2.34-2.84a.79.79,0,0,0-.25-.19A.77.77,0,0,0,371.47,90.25Z" style="fill:#fff"/>
      <path d="M376.73,87.28a.77.77,0,0,0-.27,1.06L378,90.9l-.09-3a.83.83,0,0,0-.11-.37A.77.77,0,0,0,376.73,87.28Z" style="fill:#fff"/>
      <path d="M379.86,92l1.55-2.43a.85.85,0,0,0,.12-.39.78.78,0,1,0-1.56-.06Z" style="fill:#fff"/>
      <path d="M382.61,93.52l3.38-.93a.73.73,0,0,0,.29-.15.77.77,0,1,0-1-1.18Z" style="fill:#fff"/>
      <path d="M383.92,99.63a.78.78,0,0,0-.48-1l-2.34-.82,1.43,2a.78.78,0,0,0,.39.29A.79.79,0,0,0,383.92,99.63Z" style="fill:#fff"/>
      <path d="M384.24,98.3a.77.77,0,0,0,.82-.73.78.78,0,0,0-.73-.83l-2.73-.16,2.23,1.58A.84.84,0,0,0,384.24,98.3Z" style="fill:#fff"/>
      <path d="M376.42,102.11a.78.78,0,0,0,1.55-.06L377.84,99l-1.34,2.77A.91.91,0,0,0,376.42,102.11Z" style="fill:#fff"/>
    </g>
    <path d="M201.49,83l0-.06a.75.75,0,0,0-.19-1,.74.74,0,0,0-1,.18l-8.73,12.43Z" style="fill:#407BFF"/>
    <path d="M210.09,99.91l-18.51-1.26,18.35,2.75H210a.76.76,0,0,0,.8-.7A.75.75,0,0,0,210.09,99.91Z" style="fill:#407BFF"/>
    <path d="M190.29,102.51l7.51,13.6a.21.21,0,0,0,0,.06.75.75,0,0,0,1,.2.77.77,0,0,0,.2-1.05Z" style="fill:#407BFF"/>
    <path d="M181.45,119a.75.75,0,0,0,.55.9.77.77,0,0,0,.91-.56l4-16.85L181.46,119S181.45,119,181.45,119Z" style="fill:#407BFF"/>
    <path d="M170.31,108.48l-.06,0a.75.75,0,0,0,.87,1.22l12.6-9.09Z" style="fill:#407BFF"/>
    <path d="M170.45,91.92l13.27,4.3L171,90.52l-.07,0A.76.76,0,0,0,170,91,.74.74,0,0,0,170.45,91.92Z" style="fill:#407BFF"/>
    <path d="M185.25,80.43a.75.75,0,0,0-.91-.55.74.74,0,0,0-.55.9l3.07,12.94-1.6-13.2S185.25,80.46,185.25,80.43Z" style="fill:#407BFF"/>
    <path d="M191.06,88.51a.76.76,0,0,0-1.51-.09l-.44,7L191,88.67A.45.45,0,0,0,191.06,88.51Z" style="fill:#407BFF"/>
    <path d="M196.38,97a.78.78,0,0,0,.21,0,.76.76,0,0,0,.47-1,.75.75,0,0,0-1-.47L191,97.23Z" style="fill:#407BFF"/>
    <path d="M195.24,103.17a.51.51,0,0,0,.16.09.76.76,0,0,0,.55-1.41l-5.66-2.2Z" style="fill:#407BFF"/>
    <path d="M188.72,101.08l0,6.84a1,1,0,0,0,0,.17.75.75,0,0,0,1.47-.34Z" style="fill:#407BFF"/>
    <path d="M182.76,105.67l.7-1.06a.78.78,0,0,0,.56.79.79.79,0,0,0,1-.54l.7-2.49L184,103.82l2.52-3.76-4.91,4.64-.11.13a.75.75,0,0,0,.21,1A.75.75,0,0,0,182.76,105.67Z" style="fill:#407BFF"/>
    <path d="M183.47,97.86l1-.42-1.71-.75a.8.8,0,0,0-.66,0,.82.82,0,0,0-.42,1.08s.06.07.08.11l-2.39,0a.57.57,0,0,0-.18,0,.74.74,0,0,0-.54.92.76.76,0,0,0,.92.54l5.87-1.56Z" style="fill:#407BFF"/>
    <path d="M186.52,95.78l-3.36-5.59-.11-.13a.75.75,0,1,0-1.08,1Z" style="fill:#407BFF"/>
    <path d="M206.85,92.64a.76.76,0,1,0-.6-1.39l-4.52,2,4.9-.51A.79.79,0,0,0,206.85,92.64Z" style="fill:#407BFF"/>
    <path d="M204.48,107.81,200,105.87l3.67,3.21a.82.82,0,0,0,.2.12.76.76,0,1,0,.6-1.39Z" style="fill:#407BFF"/>
    <path d="M188.76,117.49a.93.93,0,0,0,0,.29.76.76,0,0,0,.86.65.77.77,0,0,0,.66-.86l-.56-4Z" style="fill:#407BFF"/>
    <path d="M175.43,114.06a.76.76,0,0,0,1.29.8l2.71-4.34-3.86,3.37A.61.61,0,0,0,175.43,114.06Z" style="fill:#407BFF"/>
    <path d="M169,99.05h-.22a.76.76,0,0,0,.22,1.5l5.14-.75Z" style="fill:#407BFF"/>
    <path d="M178.43,86.08l-2.53-4.23a.65.65,0,0,0-.15-.18.76.76,0,1,0-1,1.14Z" style="fill:#407BFF"/>
    <path d="M193.73,78.21a.76.76,0,0,0-1.5-.22l-.65,4.57,2.08-4.12A.88.88,0,0,0,193.73,78.21Z" style="fill:#407BFF"/>
    <path d="M188.4,89.47a.91.91,0,0,0,0-.23.76.76,0,0,0-1.49.3l1,4.79Z" style="fill:#407BFF"/>
    <path d="M193.07,90.69a.77.77,0,0,0-1.49-.35L190.7,94,192.94,91A.72.72,0,0,0,193.07,90.69Z" style="fill:#407BFF"/>
    <path d="M195.7,94a.76.76,0,0,0-1.06-.18l-3,2.13,3.61-.76a.7.7,0,0,0,.28-.12A.76.76,0,0,0,195.7,94Z" style="fill:#407BFF"/>
    <path d="M195.9,100.05a.77.77,0,0,0-.81-.73l-3,.17,2.68,1.3a.71.71,0,0,0,.38.08A.77.77,0,0,0,195.9,100.05Z" style="fill:#407BFF"/>
    <path d="M190.29,100.65l1.44,2.5a.89.89,0,0,0,.29.29.78.78,0,0,0,.77-1.35Z" style="fill:#407BFF"/>
    <path d="M187.65,102.37l-.75,3.43a.91.91,0,0,0,0,.33.77.77,0,0,0,1.5-.33Z" style="fill:#407BFF"/>
    <path d="M181.63,100.7a.79.79,0,0,0,1.11,0l1.8-1.68-2.44.33a.84.84,0,0,0-.44.2A.8.8,0,0,0,181.63,100.7Z" style="fill:#407BFF"/>
    <path d="M182.66,101.6a.78.78,0,1,0,1.33.8l1.41-2.34L183,101.3A.75.75,0,0,0,182.66,101.6Z" style="fill:#407BFF"/>
    <path d="M182.9,92.9a.77.77,0,1,0-.66,1.4L185,95.62l-1.83-2.48A.87.87,0,0,0,182.9,92.9Z" style="fill:#407BFF"/>
    <g style="opacity:0.75">
      <path d="M201.49,83l0-.06a.75.75,0,0,0-.19-1,.74.74,0,0,0-1,.18l-8.73,12.43Z" style="fill:#fff"/>
      <path d="M210.09,99.91l-18.51-1.26,18.35,2.75H210a.76.76,0,0,0,.8-.7A.75.75,0,0,0,210.09,99.91Z" style="fill:#fff"/>
      <path d="M190.29,102.51l7.51,13.6a.21.21,0,0,0,0,.06.75.75,0,0,0,1,.2.77.77,0,0,0,.2-1.05Z" style="fill:#fff"/>
      <path d="M181.45,119a.75.75,0,0,0,.55.9.77.77,0,0,0,.91-.56l4-16.85L181.46,119S181.45,119,181.45,119Z" style="fill:#fff"/>
      <path d="M170.31,108.48l-.06,0a.75.75,0,0,0,.87,1.22l12.6-9.09Z" style="fill:#fff"/>
      <path d="M170.45,91.92l13.27,4.3L171,90.52l-.07,0A.76.76,0,0,0,170,91,.74.74,0,0,0,170.45,91.92Z" style="fill:#fff"/>
      <path d="M185.25,80.43a.75.75,0,0,0-.91-.55.74.74,0,0,0-.55.9l3.07,12.94-1.6-13.2S185.25,80.46,185.25,80.43Z" style="fill:#fff"/>
      <path d="M191.06,88.51a.76.76,0,0,0-1.51-.09l-.44,7L191,88.67A.45.45,0,0,0,191.06,88.51Z" style="fill:#fff"/>
      <path d="M196.38,97a.78.78,0,0,0,.21,0,.76.76,0,0,0,.47-1,.75.75,0,0,0-1-.47L191,97.23Z" style="fill:#fff"/>
      <path d="M195.24,103.17a.51.51,0,0,0,.16.09.76.76,0,0,0,.55-1.41l-5.66-2.2Z" style="fill:#fff"/>
      <path d="M188.72,101.08l0,6.84a1,1,0,0,0,0,.17.75.75,0,0,0,1.47-.34Z" style="fill:#fff"/>
      <path d="M182.76,105.67l.7-1.06a.78.78,0,0,0,.56.79.79.79,0,0,0,1-.54l.7-2.49L184,103.82l2.52-3.76-4.91,4.64-.11.13a.75.75,0,0,0,.21,1A.75.75,0,0,0,182.76,105.67Z" style="fill:#fff"/>
      <path d="M183.47,97.86l1-.42-1.71-.75a.8.8,0,0,0-.66,0,.82.82,0,0,0-.42,1.08s.06.07.08.11l-2.39,0a.57.57,0,0,0-.18,0,.74.74,0,0,0-.54.92.76.76,0,0,0,.92.54l5.87-1.56Z" style="fill:#fff"/>
      <path d="M186.52,95.78l-3.36-5.59-.11-.13a.75.75,0,1,0-1.08,1Z" style="fill:#fff"/>
      <path d="M206.85,92.64a.76.76,0,1,0-.6-1.39l-4.52,2,4.9-.51A.79.79,0,0,0,206.85,92.64Z" style="fill:#fff"/>
      <path d="M204.48,107.81,200,105.87l3.67,3.21a.82.82,0,0,0,.2.12.76.76,0,1,0,.6-1.39Z" style="fill:#fff"/>
      <path d="M188.76,117.49a.93.93,0,0,0,0,.29.76.76,0,0,0,.86.65.77.77,0,0,0,.66-.86l-.56-4Z" style="fill:#fff"/>
      <path d="M175.43,114.06a.76.76,0,0,0,1.29.8l2.71-4.34-3.86,3.37A.61.61,0,0,0,175.43,114.06Z" style="fill:#fff"/>
      <path d="M169,99.05h-.22a.76.76,0,0,0,.22,1.5l5.14-.75Z" style="fill:#fff"/>
      <path d="M178.43,86.08l-2.53-4.23a.65.65,0,0,0-.15-.18.76.76,0,1,0-1,1.14Z" style="fill:#fff"/>
      <path d="M193.73,78.21a.76.76,0,0,0-1.5-.22l-.65,4.57,2.08-4.12A.88.88,0,0,0,193.73,78.21Z" style="fill:#fff"/>
      <path d="M188.4,89.47a.91.91,0,0,0,0-.23.76.76,0,0,0-1.49.3l1,4.79Z" style="fill:#fff"/>
      <path d="M193.07,90.69a.77.77,0,0,0-1.49-.35L190.7,94,192.94,91A.72.72,0,0,0,193.07,90.69Z" style="fill:#fff"/>
      <path d="M195.7,94a.76.76,0,0,0-1.06-.18l-3,2.13,3.61-.76a.7.7,0,0,0,.28-.12A.76.76,0,0,0,195.7,94Z" style="fill:#fff"/>
      <path d="M195.9,100.05a.77.77,0,0,0-.81-.73l-3,.17,2.68,1.3a.71.71,0,0,0,.38.08A.77.77,0,0,0,195.9,100.05Z" style="fill:#fff"/>
      <path d="M190.29,100.65l1.44,2.5a.89.89,0,0,0,.29.29.78.78,0,0,0,.77-1.35Z" style="fill:#fff"/>
      <path d="M187.65,102.37l-.75,3.43a.91.91,0,0,0,0,.33.77.77,0,0,0,1.5-.33Z" style="fill:#fff"/>
      <path d="M181.63,100.7a.79.79,0,0,0,1.11,0l1.8-1.68-2.44.33a.84.84,0,0,0-.44.2A.8.8,0,0,0,181.63,100.7Z" style="fill:#fff"/>
      <path d="M182.66,101.6a.78.78,0,1,0,1.33.8l1.41-2.34L183,101.3A.75.75,0,0,0,182.66,101.6Z" style="fill:#fff"/>
      <path d="M182.9,92.9a.77.77,0,1,0-.66,1.4L185,95.62l-1.83-2.48A.87.87,0,0,0,182.9,92.9Z" style="fill:#fff"/>
    </g>
  </g>
  <g id="freepik--fireworks-1--inject-5" transform="matrix(1, 0, 0, 1, -22.943031, -40.960823)">
    <path d="M403,178,381.1,193a.75.75,0,1,1-.84-1.24l0,0Z" style="fill:#407BFF"/>
    <path d="M405.44,171.19l-29.58-13.35a.75.75,0,0,1-.38-1,.76.76,0,0,1,1-.38l0,0Z" style="fill:#407BFF"/>
    <path d="M409.81,165.57l-6.5-26.37a.75.75,0,0,1,1.46-.36v0Z" style="fill:#407BFF"/>
    <path d="M415.47,167.56l16.79-25.18a.75.75,0,0,1,1-.21.76.76,0,0,1,.2,1.05l0,0Z" style="fill:#407BFF"/>
    <path d="M419.58,172.46l26.2-7.13a.75.75,0,0,1,.39,1.45h0Z" style="fill:#407BFF"/>
    <path d="M417,179.77,436,195a.75.75,0,1,1-.94,1.17l0,0Z" style="fill:#407BFF"/>
    <path d="M410.36,182.07l-3,23.06a.75.75,0,0,1-.84.65.76.76,0,0,1-.65-.85s0,0,0,0Z" style="fill:#407BFF"/>
    <path d="M407.62,178l-5.28,11a.76.76,0,0,1-1,.35.75.75,0,0,1-.35-1,.22.22,0,0,1,0-.08Z" style="fill:#407BFF"/>
    <path d="M405.55,173.88l-9.33-.65a.75.75,0,0,1-.69-.8.74.74,0,0,1,.8-.7h.12Z" style="fill:#407BFF"/>
    <path d="M408.14,170.28,400.5,163a.75.75,0,0,1,1-1.09.27.27,0,0,1,.07.08Z" style="fill:#407BFF"/>
    <path d="M411.57,168.84l1.9-11.77a.75.75,0,1,1,1.48.24.36.36,0,0,1,0,.1Z" style="fill:#407BFF"/>
    <path d="M414.6,171.81l9.76-6.58a.76.76,0,0,1,1.05.2.75.75,0,0,1-.21,1l-.08.05Z" style="fill:#407BFF"/>
    <path d="M415.16,176.13l10.48,1.39a.75.75,0,0,1,.65.84.77.77,0,0,1-.85.65l-.1,0Z" style="fill:#407BFF"/>
    <path d="M412.11,178.87l4.27,10.53a.76.76,0,0,1-1.4.57l0-.1Z" style="fill:#407BFF"/>
    <path d="M385.53,174.26l-8.53-.32a.38.38,0,0,1-.37-.39.39.39,0,0,1,.39-.36h0Z" style="fill:#407BFF"/>
    <path d="M395.72,154.37,390.2,148a.38.38,0,0,1,.57-.49l0,0Z" style="fill:#407BFF"/>
    <path d="M417.22,147.63l2.27-6.54a.38.38,0,0,1,.48-.23.37.37,0,0,1,.23.48v0Z" style="fill:#407BFF"/>
    <path d="M432.39,158.68l7.48-4.78a.37.37,0,1,1,.4.63l0,0Z" style="fill:#407BFF"/>
    <path d="M434.88,179.44l8.61,2.64a.38.38,0,1,1-.22.72h0Z" style="fill:#407BFF"/>
    <path d="M419.82,199.59l3.3,7.87a.37.37,0,0,1-.69.29v0Z" style="fill:#407BFF"/>
    <path d="M396.08,197.75l-4.48,6.6a.38.38,0,1,1-.62-.43l0,0Z" style="fill:#407BFF"/>
    <path d="M409.06,180.48l-2.09,8.2a.38.38,0,0,1-.46.27.38.38,0,0,1-.27-.46v0Z" style="fill:#407BFF"/>
    <path d="M404.2,179.33l-4.27,4.93a.38.38,0,0,1-.53,0,.37.37,0,0,1,0-.53l0,0Z" style="fill:#407BFF"/>
    <path d="M403.79,175.58l-6.27.84a.38.38,0,0,1-.42-.32.37.37,0,0,1,.32-.42h.05Z" style="fill:#407BFF"/>
    <path d="M405.05,169.51l-4.53-2.27a.38.38,0,1,1,.34-.67l0,0Z" style="fill:#407BFF"/>
    <path d="M408.73,168.63l-2.45-4.22a.39.39,0,0,1,.14-.52.37.37,0,0,1,.51.14l0,.05Z" style="fill:#407BFF"/>
    <path d="M414.09,167.34l1.64-5.78a.37.37,0,1,1,.72.2s0,0,0,.05Z" style="fill:#407BFF"/>
    <path d="M417.31,168.48l3.2-3a.38.38,0,1,1,.51.55.1.1,0,0,1,0,0Z" style="fill:#407BFF"/>
    <path d="M417.28,174.63l4.06-.8a.38.38,0,1,1,.14.74h-.06Z" style="fill:#407BFF"/>
    <path d="M416.45,172.47l4.07-2.19a.37.37,0,1,1,.35.66l-.05,0Z" style="fill:#407BFF"/>
    <path d="M416.53,177.35l3,.64a.38.38,0,0,1,.29.45.38.38,0,0,1-.45.29l-.09,0Z" style="fill:#407BFF"/>
    <path d="M414.49,180l3,4.27a.38.38,0,0,1-.62.44l0-.05Z" style="fill:#407BFF"/>
    <path d="M110.44,108.62,108.6,84.07A.69.69,0,1,1,110,84v0Z" style="fill:#407BFF"/>
    <path d="M114.8,113.71l24.43-17.57a.7.7,0,0,1,1,.16.68.68,0,0,1-.16,1l0,0Z" style="fill:#407BFF"/>
    <path d="M117.29,119.82l24.18,7a.69.69,0,0,1,.48.86.7.7,0,0,1-.86.48h0Z" style="fill:#407BFF"/>
    <path d="M113.06,123.44,125.5,148.6a.7.7,0,0,1-1.25.62l0,0Z" style="fill:#407BFF"/>
    <path d="M107.22,124.47l-6.43,24.35a.69.69,0,1,1-1.34-.35v0Z" style="fill:#407BFF"/>
    <path d="M102.55,119l-21.08,8.22a.69.69,0,0,1-.9-.39.7.7,0,0,1,.39-.9l0,0Z" style="fill:#407BFF"/>
    <path d="M103.78,112.61,86.65,99.5a.7.7,0,1,1,.85-1.1l0,0Z" style="fill:#407BFF"/>
    <path d="M108.33,112.3,101.94,103a.69.69,0,0,1,.18-1,.71.71,0,0,1,1,.18.3.3,0,0,1,0,.08Z" style="fill:#407BFF"/>
    <path d="M112.58,112.55l4.85-7.19a.7.7,0,1,1,1.16.78l-.07.09Z" style="fill:#407BFF"/>
    <path d="M114.27,116.3l9.4-2.75a.69.69,0,1,1,.39,1.33l-.09,0Z" style="fill:#407BFF"/>
    <path d="M113.84,119.72l8.57,7a.7.7,0,0,1,.1,1,.69.69,0,0,1-1,.1l-.07-.06Z" style="fill:#407BFF"/>
    <path d="M110.05,120.77l.76,10.9a.7.7,0,0,1-1.39.1v-.09Z" style="fill:#407BFF"/>
    <path d="M106.32,119.22l-6,7.77a.7.7,0,1,1-1.11-.85l.07-.07Z" style="fill:#407BFF"/>
    <path d="M105.53,115.5l-10.44-1.45a.7.7,0,0,1,.2-1.39l.09,0Z" style="fill:#407BFF"/>
    <path d="M121.56,96.29l4.21-6.7a.34.34,0,0,1,.48-.11.33.33,0,0,1,.11.48v0Z" style="fill:#407BFF"/>
    <path d="M132.81,113.7l7.68-1.47a.34.34,0,0,1,.41.27.35.35,0,0,1-.28.41h0Z" style="fill:#407BFF"/>
    <path d="M128.25,134.09l4.2,4.86a.35.35,0,0,1-.53.46l0,0Z" style="fill:#407BFF"/>
    <path d="M112.34,141.15l.37,8.23a.35.35,0,0,1-.34.36.35.35,0,0,1-.37-.33v0Z" style="fill:#407BFF"/>
    <path d="M94.52,133.52l-6.12,5.7a.35.35,0,0,1-.47-.51l0,0Z" style="fill:#407BFF"/>
    <path d="M85.32,112.09l-7.85-1a.35.35,0,1,1,.08-.69h0Z" style="fill:#407BFF"/>
    <path d="M97.81,93.87l-3.23-6.65a.36.36,0,0,1,.17-.47.34.34,0,0,1,.46.17,0,0,0,0,1,0,0Z" style="fill:#407BFF"/>
    <path d="M105.65,112.3,100,106.82a.35.35,0,0,1,0-.49.34.34,0,0,1,.49,0l0,0Z" style="fill:#407BFF"/>
    <path d="M108.83,108.94l-2-5.72a.35.35,0,0,1,.22-.44.34.34,0,0,1,.44.21.06.06,0,0,1,0,0Z" style="fill:#407BFF"/>
    <path d="M112,110.35l2.22-5.42a.35.35,0,0,1,.46-.19.34.34,0,0,1,.19.45s0,0,0,0Z" style="fill:#407BFF"/>
    <path d="M116.32,114.18l3.93-2.59a.34.34,0,0,1,.48.1.34.34,0,0,1-.1.48l0,0Z" style="fill:#407BFF"/>
    <path d="M115.32,117.53h4.53a.35.35,0,0,1,.35.35.35.35,0,0,1-.35.35h0Z" style="fill:#407BFF"/>
    <path d="M113.88,122.44l3.88,4a.34.34,0,0,1,0,.49.35.35,0,0,1-.49,0l0,0Z" style="fill:#407BFF"/>
    <path d="M111.47,124.5l.9,3.94a.35.35,0,0,1-.27.42.34.34,0,0,1-.41-.26.13.13,0,0,1,0-.06Z" style="fill:#407BFF"/>
    <path d="M106.54,121.62l-1.24,3.63a.35.35,0,0,1-.44.22.36.36,0,0,1-.22-.45l0,0Z" style="fill:#407BFF"/>
    <path d="M108.66,122l-.12,4.28a.36.36,0,0,1-.36.34.35.35,0,0,1-.34-.36.13.13,0,0,1,0-.06Z" style="fill:#407BFF"/>
    <path d="M104.71,119.76l-1.89,2.07a.35.35,0,0,1-.49,0,.34.34,0,0,1,0-.49l.07-.06Z" style="fill:#407BFF"/>
    <path d="M103.51,116.89l-4.83.44a.35.35,0,1,1-.07-.69h0Z" style="fill:#407BFF"/>
    <path d="M272.67,82.71l20.95-28.53a1,1,0,1,1,1.61,1.18l0,0Z" style="fill:#407BFF"/>
    <path d="M272.67,92.33,315.77,96a1,1,0,0,1-.17,2h-.05Z" style="fill:#407BFF"/>
    <path d="M269.67,101.33l19.85,30.27a1,1,0,1,1-1.68,1.1s0,0,0,0Z" style="fill:#407BFF"/>
    <path d="M261.67,101.33l-10,39.1a1,1,0,0,1-1.94-.5s0,0,0,0Z" style="fill:#407BFF"/>
    <path d="M254.33,97l-29.78,20.57a1,1,0,0,1-1.4-.26,1,1,0,0,1,.26-1.39l0,0Z" style="fill:#407BFF"/>
    <path d="M254.33,86.67,223.64,75.93a1,1,0,0,1-.61-1.27A1,1,0,0,1,224.3,74l.06,0Z" style="fill:#407BFF"/>
    <path d="M261.67,80.83l-6.44-30.32a1,1,0,1,1,2-.42s0,0,0,.07Z" style="fill:#407BFF"/>
    <path d="M266.92,84.75l1.76-16.17a1,1,0,1,1,2,.22.5.5,0,0,1,0,.12Z" style="fill:#407BFF"/>
    <path d="M271.33,89l12-3.32a1,1,0,0,1,.53,1.94l-.16,0Z" style="fill:#407BFF"/>
    <path d="M269.67,94.67l12.84,5.78a1,1,0,1,1-.83,1.83.47.47,0,0,1-.12-.07Z" style="fill:#407BFF"/>
    <path d="M266,98l2.83,15.63a1,1,0,0,1-.81,1.17,1,1,0,0,1-1.17-.81s0-.08,0-.12Z" style="fill:#407BFF"/>
    <path d="M260.88,95.6l-9.36,12.61a1,1,0,1,1-1.61-1.19.39.39,0,0,1,.08-.1Z" style="fill:#407BFF"/>
    <path d="M258.26,90.43l-13.79,2.89a1,1,0,1,1-.41-2l.14,0Z" style="fill:#407BFF"/>
    <path d="M260.88,85.63l-10-11.35A1,1,0,0,1,252.35,73l.08.11Z" style="fill:#407BFF"/>
    <path d="M296.33,79.65l10.88-3.38a.48.48,0,0,1,.62.33.49.49,0,0,1-.33.62h0Z" style="fill:#407BFF"/>
    <path d="M292.33,109.17l9.77,5.57a.52.52,0,0,1,.19.69.51.51,0,0,1-.69.18l0,0Z" style="fill:#407BFF"/>
    <path d="M268.29,127.17l0,9.22a.5.5,0,1,1-1,0v-.06Z" style="fill:#407BFF"/>
    <path d="M244.33,120l-7.28,9.32a.5.5,0,1,1-.79-.61l0,0Z" style="fill:#407BFF"/>
    <path d="M232,95.25l-12,.38c-.28,0-.51,0-.52-.3s.2-.33.48-.33h0Z" style="fill:#407BFF"/>
    <path d="M242,63l-7.64-8.43a.51.51,0,0,1,0-.71.51.51,0,0,1,.71,0l0,0Z" style="fill:#407BFF"/>
    <path d="M272.67,54.79l2.7-10.27a.5.5,0,1,1,1,.25s0,0,0,0Z" style="fill:#407BFF"/>
    <path d="M264,82.25,263,71a.5.5,0,0,1,1-.09V82.25Z" style="fill:#407BFF"/>
    <path d="M270.62,81.55l3.18-8.09a.5.5,0,1,1,.94.36l0,.06Z" style="fill:#407BFF"/>
    <path d="M272.8,86.08l7.5-3.83a.49.49,0,0,1,.67.22.5.5,0,0,1-.21.67l-.06,0Z" style="fill:#407BFF"/>
    <path d="M273.9,94.27l6.7.84a.5.5,0,0,1-.13,1l-.07,0Z" style="fill:#407BFF"/>
    <path d="M269.67,97l4.94,4.23a.5.5,0,1,1-.65.76.12.12,0,0,1,0,0Z" style="fill:#407BFF"/>
    <path d="M263.5,101l.5,8a.5.5,0,0,1-.47.53.5.5,0,0,1-.53-.47V109Z" style="fill:#407BFF"/>
    <path d="M258.94,101l-2.7,5.14a.51.51,0,0,1-.68.22.5.5,0,0,1-.21-.68.43.43,0,0,1,0-.07Z" style="fill:#407BFF"/>
    <path d="M256.26,93.25l-4.75,2.8a.49.49,0,0,1-.69-.17.51.51,0,0,1,.18-.69l.08,0Z" style="fill:#407BFF"/>
    <path d="M258.26,95.6l-4.14,4.56a.51.51,0,0,1-.75-.68l.06,0Z" style="fill:#407BFF"/>
    <path d="M256,89.5l-4,.5a.5.5,0,1,1-.12-1,.48.48,0,0,1,.12,0Z" style="fill:#407BFF"/>
    <path d="M257.38,85.25l-5.7-4a.51.51,0,0,1-.12-.7.5.5,0,0,1,.7-.12l.06,0Z" style="fill:#407BFF"/>
  </g>
  <g id="freepik--character-2--inject-5" transform="matrix(1, 0, 0, 1, -61.708855, -5.359556)">
    <g id="freepik--group--inject-5">
      <path d="M388.62,320.87a5.63,5.63,0,0,1-2.54,1.53c-10.34,4.07-47.21,8.51-48,8.08s.15-32.21-12.57-39.81a6.42,6.42,0,0,1-.08-.64c-.09-.91-.1-2.51.81-3.07,1.29-.8,4.88-7.21,22.71-11.46s25.8,4.82,29.33,9.68C383,291.72,391.5,316.48,388.62,320.87Z" style="fill:#407BFF"/>
      <path d="M386.08,322.4c-10.34,4.07-47.21,8.51-48,8.08s.15-32.21-12.57-39.81a6.42,6.42,0,0,1-.08-.64c1.92-3.67,5.78-7,13.49-7,16.86.18,36.85,2.11,36.85,2.11S387.68,304.79,386.08,322.4Z" style="opacity:0.2;isolation:isolate"/>
      <path d="M323.71,296.32s-8.17,28.46-12.26,34.34-31.73,32.94-31.73,32.94l4.43,5s34.29-29.22,36.45-32,14.8-31,14.8-31Z" style="fill:#e4897b"/>
      <path d="M325.48,290.67c-5.23,6.28-9.32,19.55-9.32,19.55a22.22,22.22,0,0,0,16,8.3s2.8-7.6,9.74-8.3L334.8,293Z" style="fill:#407BFF"/>
      <path d="M341.9,310.22a2.7,2.7,0,0,0-.41,0c-4.59.65-7.29,4.35-8.52,6.56a12.61,12.61,0,0,0-.8,1.69,22.29,22.29,0,0,1-16-8.3s4.09-13.26,9.33-19.55l9.33,2.36Z" style="fill:#fff;opacity:0.5;isolation:isolate"/>
      <path d="M341.49,310.27c-4.59.65-7.29,4.35-8.52,6.56-.29-6.26,3-15.16,3-15.16Z" style="opacity:0.2;isolation:isolate"/>
      <polygon points="340.45 409.5 332.4 411.2 323.81 397.07 331.85 395.37 340.45 409.5" style="fill:#e4897b"/>
      <path d="M330.78,407.79h9a.63.63,0,0,1,.63.51l1.46,6.6a1.08,1.08,0,0,1-.84,1.29l-.24,0c-2.91-.05-5-.23-8.69-.23-2.25,0-9.05.24-12.16.24s-3.51-3.08-2.24-3.36c5.71-1.24,10-3,11.84-4.61A1.78,1.78,0,0,1,330.78,407.79Z" style="fill:#263238"/>
      <path d="M328.33,409.09a2.24,2.24,0,0,1-1.42-.37,1,1,0,0,1-.37-1,.53.53,0,0,1,.3-.49c.82-.42,3.22,1.05,3.48,1.22a.15.15,0,0,1,.08.17.17.17,0,0,1-.13.15A9,9,0,0,1,328.33,409.09Zm-1.1-1.53a.45.45,0,0,0-.23,0s-.1.07-.11.21a.72.72,0,0,0,.24.63,3.52,3.52,0,0,0,2.63.13A7.23,7.23,0,0,0,327.23,407.56Z" style="fill:#407BFF"/>
      <path d="M330.23,408.83h-.09c-.76-.42-2.24-2.05-2.09-2.83a.57.57,0,0,1,.56-.46.94.94,0,0,1,.75.23c.86.69,1,2.82,1,2.93a.18.18,0,0,1-.08.16A.14.14,0,0,1,330.23,408.83Zm-1.49-3h-.09c-.22,0-.24.13-.25.18-.1.48.85,1.72,1.61,2.29a4.2,4.2,0,0,0-.88-2.32A.63.63,0,0,0,328.74,405.82Z" style="fill:#407BFF"/>
      <polygon points="331.85 395.37 323.81 397.07 328.25 404.36 336.29 402.66 331.85 395.37" style="opacity:0.2;isolation:isolate"/>
      <path d="M362.57,373.22l-1.33-.09a131.59,131.59,0,0,1-26-5.33c-7.58-2.28-12.82-4.4-12.82-4.4-1.73,10,14.57,37,14.57,37l-13.32.83s-37.22-43.36-21.36-60.47c11.84-12.78,44,1.09,44,1.09l44,.32S393.55,374.87,362.57,373.22Z" style="fill:#263238"/>
      <polygon points="324.33 402.82 337.6 400.7 336.33 397.09 321.89 400.1 324.33 402.82" style="fill:#407BFF"/>
      <path d="M279.72,363.6c-1.1.42-4.71,2.55-8.32,4.71s-2.36,3.09,0,4.82,4.4,3.93,6.75,3.14,5.4-5.49,6-7.69S279.72,363.6,279.72,363.6Z" style="fill:#e4897b"/>
      <path d="M362.57,373.22l-1.33-.09a131.59,131.59,0,0,1-26-5.33c12.89-2.37,25.19-11.63,25.19-11.63Z" style="opacity:0.2;isolation:isolate"/>
      <polygon points="421.7 394.44 422.4 401.81 405.37 404.03 404.67 396.64 421.7 394.44" style="fill:#e4897b"/>
      <path d="M421.64,402.91l-.84-9a.64.64,0,0,1,.44-.67l6.43-2.08a1.1,1.1,0,0,1,1.37.72,1,1,0,0,1,0,.24c.23,2.9.25,5,.59,8.67.21,2.24,1.08,9,1.37,12.08s-2.73,3.79-3.13,2.55c-1.77-5.57-3.89-9.68-5.69-11.35A1.75,1.75,0,0,1,421.64,402.91Z" style="fill:#263238"/>
      <path d="M423.16,405.23a2.15,2.15,0,0,1-.24,1.45,1,1,0,0,1-.9.46.55.55,0,0,1-.52-.26c-.5-.77.74-3.29.89-3.57a.14.14,0,0,1,.16-.1.18.18,0,0,1,.16.11A9,9,0,0,1,423.16,405.23Zm-1.42,1.24a.34.34,0,0,0,.07.22c0,.05.07.1.21.1a.71.71,0,0,0,.61-.3,3.55,3.55,0,0,0-.12-2.64A7.33,7.33,0,0,0,421.74,406.47Z" style="fill:#407BFF"/>
      <path d="M422.72,403.37v.09c-.34.79-1.82,2.42-2.62,2.34a.58.58,0,0,1-.51-.52.94.94,0,0,1,.16-.76c.61-.92,2.71-1.3,2.82-1.32a.2.2,0,0,1,.16.07A.12.12,0,0,1,422.72,403.37Zm-2.85,1.76v.09c0,.22.15.23.2.24.49,0,1.63-1,2.13-1.82a4.19,4.19,0,0,0-2.23,1.09A.62.62,0,0,0,419.87,405.13Z" style="fill:#407BFF"/>
      <polygon points="404.68 396.64 405.38 404.03 414.16 402.88 413.46 395.5 404.68 396.64" style="opacity:0.2;isolation:isolate"/>
      <path d="M358.22,347c-2.71,4-14.23,53,2.06,64.55,12,8.48,51.1-5.57,51.1-5.57l-.84-12.27s-31.55,4.85-35.32,1.57,13.36-33.13,14.26-41.15S358.22,347,358.22,347Z" style="fill:#263238"/>
      <polygon points="408.85 392.75 409.84 407.56 413.55 406.62 411.88 391.97 408.85 392.75" style="fill:#407BFF"/>
      <path d="M390.3,342.19l-43.67,3.14s-6.77-41.47-21.15-54.66a35.17,35.17,0,0,1,7.42-6.12,44.93,44.93,0,0,1,19.75-6.83,51.44,51.44,0,0,1,16,1S388.42,301.67,390.3,342.19Z" style="fill:#407BFF"/>
      <path d="M390.3,342.19l-43.67,3.14s-6.77-41.47-21.15-54.66a35.17,35.17,0,0,1,7.42-6.12c-.33,2.56,2.16,5,8.37,4.24,10.84-1.36,14.08-7.87,11.38-11.07a51.44,51.44,0,0,1,16,1,61.33,61.33,0,0,1,5,7.14A104.37,104.37,0,0,1,381.3,301,122.74,122.74,0,0,1,390.3,342.19Z" style="fill:#fff;opacity:0.6000000000000001;isolation:isolate"/>
      <path d="M341.27,288.79c-6.21.78-8.7-1.68-8.37-4.24a44.93,44.93,0,0,1,19.75-6.83C355.35,280.92,352.11,287.43,341.27,288.79Z" style="fill:#fff;opacity:0.5;isolation:isolate"/>
      <path d="M317.13,257.51s1.71,8.33,8.15,10.15-.1-16-.1-16Z" style="fill:#263238"/>
      <path d="M351.89,278.52c1.34,4.83-12.56,11.61-17.43,6.78,2.63-2,3.32-4.06,3-6.08a9.41,9.41,0,0,0-1.44-3.44,18.14,18.14,0,0,0-1.2-1.71l5.91-12.25C341.94,267.22,344.67,279.38,351.89,278.52Z" style="fill:#e4897b"/>
      <path d="M340.88,267.55c2.66,6-1.27,10.12-3.43,11.67a9.41,9.41,0,0,0-1.44-3.44Z" style="opacity:0.2;isolation:isolate"/>
      <path d="M342.84,269.87a9.26,9.26,0,0,1-8.75,7,10.28,10.28,0,0,1-7.18-2.48,9.36,9.36,0,0,1-.8-.75c-4.65-4.94-9.2-14.9-4.41-21a10,10,0,0,1,14.07-1.8,10.17,10.17,0,0,1,2.94,3.63C342,261.06,344.21,264.77,342.84,269.87Z" style="fill:#e4897b"/>
      <path d="M330.06,261.81a.92.92,0,0,1-.08,1.29c-.34.19-.85-.08-1.15-.59s-.26-1.1.08-1.29S329.76,261.29,330.06,261.81Z" style="fill:#263238"/>
      <path d="M324.2,265.17a.93.93,0,0,1-.08,1.29c-.34.19-.85-.08-1.15-.59s-.26-1.1.08-1.29S323.92,264.68,324.2,265.17Z" style="fill:#263238"/>
      <path d="M326.21,264.36a21.22,21.22,0,0,1,.06,5.85,3.47,3.47,0,0,0,2.76-1Z" style="fill:#de5753"/>
      <path d="M330.79,258.87a.36.36,0,0,1-.36.05,2.82,2.82,0,0,0-2.53.1.36.36,0,0,1-.49-.1.35.35,0,0,1,.1-.48h0a3.49,3.49,0,0,1,3.19-.17.36.36,0,0,1,.2.46h0A.45.45,0,0,1,330.79,258.87Z" style="fill:#263238"/>
      <path d="M331.41,271.45h0a5.37,5.37,0,0,0,3.28-3.73.19.19,0,0,0-.15-.22.18.18,0,0,0-.21.14h0a5.15,5.15,0,0,1-3.07,3.45.18.18,0,0,0-.1.23v0a.19.19,0,0,0,.23.11Z" style="fill:#263238"/>
      <path d="M320.52,264.59a.34.34,0,0,1-.17.11.33.33,0,0,1-.37-.31h0a3.47,3.47,0,0,1,1.22-3,.36.36,0,0,1,.49.07h0a.36.36,0,0,1-.07.49h0a2.82,2.82,0,0,0-.93,2.36A.35.35,0,0,1,320.52,264.59Z" style="fill:#263238"/>
      <path d="M343,258.35c-1.46-6.49-3.79-11.25-6.11-12.32s-8.09,6.89-8.09,6.89a2.61,2.61,0,0,1,4.32,1.52c.3,2.9,3.6,5.95,6.22,6.5,0,0-.47-1.08.54-1.28s3.56,5.38,3.16,8.87C343,268.53,344.4,264.84,343,258.35Z" style="fill:#263238"/>
      <path d="M344.48,258.12a7,7,0,0,1-1.72,5.05c-1.63,1.83-3.76.69-4.42-1.53-.57-2-.45-5.38,1.73-6.37S344.3,255.86,344.48,258.12Z" style="fill:#e4897b"/>
      <path d="M381.3,301c-2.46,4-10.39,5.53-14.87,2.63-5.53-3.57,2.74-12.48,7.2-17.76A104.37,104.37,0,0,1,381.3,301Z" style="opacity:0.2;isolation:isolate"/>
      <path d="M268.61,361.71a7,7,0,0,1,1.89,2.63,3,3,0,0,1-.24,2.31S267.08,366.1,268.61,361.71Z" style="fill:#407BFF"/>
      <path d="M268.61,361.71a7,7,0,0,1,1.89,2.63,3,3,0,0,1-.24,2.31S267.08,366.1,268.61,361.71Z" style="fill:#fff;opacity:0.30000000000000004;isolation:isolate"/>
      <path d="M269.14,363.47a3.14,3.14,0,0,1,1.12,3.18A2.54,2.54,0,0,1,269.14,363.47Z" style="fill:#fff"/>
      <polygon points="269.99 367.36 272.46 364.69 280.59 370.02 278.58 373.22 269.99 367.36" style="fill:#407BFF"/>
      <polygon points="271.5 365.73 272.54 366.22 273.72 365.52 272.46 364.69 271.5 365.73" style="fill:#263238"/>
      <path d="M332.13,283.33s-1.08,7.35,9.77,12.13c0,0,12.12-8.68,14.86-21.07l9.74,2.23s-15,19-22,19.7c0,0,9,13.31,9.06,24.13l-4.25,2.62s-4.85-21.08-6.12-24.34l-2.73-1.38s-3.32,14.91-2.85,23.52L334.46,324s-.67-16.32,4.43-27.64c0,0-11.22-1.65-12.68-9.36Z" style="fill:#407BFF"/>
      <path d="M360.14,294.93s-8.87,24.33-14.56,29.73c-5,4.73-29.42,15.25-29.42,15.25l1.44,5.42s30.55-9.17,36-14.06c6.59-5.89,16.57-28.35,16.57-28.35Z" style="fill:#e4897b"/>
      <path d="M316.16,339.91c-1.1.33-9.48-1.05-10.83-.55s.63,6.53,1.17,7.59c.71,1.37,8.39.68,9.66,0s3.93-4.6,3.93-4.6Z" style="fill:#e4897b"/>
      <path d="M368.63,278.7c-7.39-3.13-14.45,24.69-14.45,24.69l13.19,8S387.47,286.67,368.63,278.7Z" style="fill:#407BFF"/>
      <path d="M368.63,278.7c-7.39-3.13-14.45,24.69-14.45,24.69l13.19,8S387.47,286.67,368.63,278.7Z" style="fill:#fff;opacity:0.5;isolation:isolate"/>
      <path d="M336.18,247.13s-2-4.17-10.7-2.53-11,11.79-8.35,13.92,9.08-5.39,9.08-5.39-2.4,4.28-4.47,5.39C321.74,258.52,329.36,257.13,336.18,247.13Z" style="fill:#263238"/>
    </g>
  </g>
  <g id="freepik--Rocket--inject-5" transform="matrix(1, 0, 0, 1, -65.664551, -1.40386)">
    <path d="M254.55,373.69a10.07,10.07,0,0,1-7.61-3c-4.35-4.56-3.88-12.53-3.86-12.87l.94.06c0,.08-.46,7.9,3.6,12.16a9.32,9.32,0,0,0,7.16,2.74c3.22-.06,5.69-1.08,7.35-3,3.27-3.89,2.33-10.22,2.32-10.29l.94-.14c0,.27,1,6.82-2.54,11-1.84,2.19-4.55,3.32-8.05,3.38Z" style="fill:#263238"/>
    <polygon points="243.55 416.23 237.06 349.88 234.93 350.09 241.4 416.23 243.55 416.23" style="fill:#263238"/>
    <rect x="233.13" y="320.91" width="16.96" height="39.58" transform="matrix(1, -0.1, 0.1, 1, -32.01, 25.13)" style="fill:#407BFF"/>
    <polygon points="245.3 320.45 231.87 328.21 231.24 321.83 245.3 320.45" style="fill:#fff;opacity:0.6000000000000001;isolation:isolate"/>
    <polygon points="248.41 323.07 249 329.09 232.86 338.38 232.26 332.2 248.41 323.07" style="fill:#fff;opacity:0.6000000000000001;isolation:isolate"/>
    <polygon points="249.39 333.07 249.99 339.21 233.85 348.5 233.25 342.37 249.39 333.07" style="fill:#fff;opacity:0.6000000000000001;isolation:isolate"/>
    <polygon points="250.38 343.19 250.98 349.33 234.84 358.62 234.24 352.49 250.38 343.19" style="fill:#fff;opacity:0.6000000000000001;isolation:isolate"/>
    <polygon points="238.16 360.92 251.37 353.31 251.98 359.57 238.16 360.92" style="fill:#fff;opacity:0.6000000000000001;isolation:isolate"/>
    <polygon points="248.13 320.18 249.13 330.48 231.84 327.92 231.24 321.83 248.13 320.18" style="opacity:0.2;isolation:isolate"/>
    <polygon points="237.53 300.72 228.14 325.92 251.62 323.62 237.53 300.72" style="fill:#407BFF"/>
    <polygon points="267.09 356.7 269.99 355.23 266.4 354.97 266.92 353.03 265.3 354.61 263 351.93 263 354.7 261.98 354.05 262.71 355.42 260.51 356.18 262.9 357.45 261.69 358.8 263.13 358.56 262.46 361.35 264.49 359.06 265 360.17 265.43 358.61 268.42 360.28 267.24 357.88 268.81 357.62 267.09 356.7" style="fill:#407BFF"/>
    <polygon points="267.09 356.7 269.99 355.23 266.4 354.97 266.92 353.03 265.3 354.61 263 351.93 263 354.7 261.98 354.05 262.71 355.42 260.51 356.18 262.9 357.45 261.69 358.8 263.13 358.56 262.46 361.35 264.49 359.06 265 360.17 265.43 358.61 268.42 360.28 267.24 357.88 268.81 357.62 267.09 356.7" style="fill:#fff;opacity:0.30000000000000004;isolation:isolate"/>
    <polygon points="262.35 356.17 263.95 356.84 263.59 358.6 265.04 357.26 266.44 358.29 265.74 356.77 267.39 356 265.27 356 264 354.05 264 355.7 262.35 356.17" style="fill:#fff"/>
    <polygon points="265 352.87 265 350.04 265.63 349.67 265 352.87" style="fill:#407BFF"/>
    <polygon points="268.1 354.05 272.03 352.36 271.87 353.31 268.1 354.05" style="fill:#407BFF"/>
    <polygon points="270.26 358.6 273.48 359.19 272.97 359.86 270.26 358.6" style="fill:#407BFF"/>
    <polygon points="266.92 361.35 268.61 364.77 268.1 365.2 266.92 361.35" style="fill:#407BFF"/>
    <polygon points="260.88 360.53 258.48 362.88 257.97 362.25 260.88 360.53" style="fill:#407BFF"/>
    <polygon points="260.56 354.05 258.28 351.69 257.97 352.36 260.56 354.05" style="fill:#407BFF"/>
    <polygon points="265 352.87 265 350.04 265.63 349.67 265 352.87" style="fill:#fff;opacity:0.30000000000000004;isolation:isolate"/>
    <polygon points="268.1 354.05 272.03 352.36 271.87 353.31 268.1 354.05" style="fill:#fff;opacity:0.30000000000000004;isolation:isolate"/>
    <polygon points="270.26 358.6 273.48 359.19 272.97 359.86 270.26 358.6" style="fill:#fff;opacity:0.30000000000000004;isolation:isolate"/>
    <polygon points="266.92 361.35 268.61 364.77 268.1 365.2 266.92 361.35" style="fill:#fff;opacity:0.30000000000000004;isolation:isolate"/>
    <polygon points="260.88 360.53 258.48 362.88 257.97 362.25 260.88 360.53" style="fill:#fff;opacity:0.30000000000000004;isolation:isolate"/>
    <polygon points="260.56 354.05 258.28 351.69 257.97 352.36 260.56 354.05" style="fill:#fff;opacity:0.30000000000000004;isolation:isolate"/>
  </g>
  <g id="freepik--character-1--inject-5" transform="matrix(1, 0, 0, 1, -61.708855, -5.359556)">
    <path d="M83.43,158.15l-1.34-13.64s1.39-2.2,1.12-3.35-3.86-7.3-4.83-7.41-5.3,3.32-5,4.82,4.11,6.35,4.66,6.67l.11,16.36Z" style="fill:#b97964"/>
    <path d="M115,201.65s-17.67-5.09-23.09-14.58-7.54-34.94-7.54-34.94l-9.19,1.65S74.67,185.89,82,197.9s36.55,23,36.55,23Z" style="fill:#407BFF"/>
    <path d="M110.63,217.6,114,201.35l-.9-.3-3.37,16.15Z" style="fill:#fff;opacity:0.5"/>
    <path d="M101.21,213l4.88-14.76-.86-.41-4.86,14.71Z" style="fill:#fff;opacity:0.5"/>
    <path d="M91.28,206.93l6.22-13.78-.76-.6L90.5,206.37Z" style="fill:#fff;opacity:0.5"/>
    <path d="M92.12,187.48l-10.39,10c.09.15.16.3.25.44l.26.39,10.41-10C92.46,188,92.28,187.75,92.12,187.48Z" style="fill:#fff;opacity:0.5"/>
    <path d="M89.29,180.73,77.84,186l.21.94,11.52-5.31Z" style="fill:#fff;opacity:0.5"/>
    <path d="M87.35,173.05l-11.12,2.49c0,.31.07.63.1.94L87.55,174C87.48,173.67,87.41,173.36,87.35,173.05Z" style="fill:#fff;opacity:0.5"/>
    <path d="M85.81,164.36l-10.39,1c0,.31,0,.62,0,.94l10.48-1C85.9,165,85.85,164.67,85.81,164.36Z" style="fill:#fff;opacity:0.5"/>
    <path d="M84.69,155.74l-9.55.56c0,.29,0,.61,0,.94l9.64-.56C84.76,156.36,84.72,156,84.69,155.74Z" style="fill:#fff;opacity:0.5"/>
    <path d="M118.54,220.93s-3.74-1.41-8.88-3.76c-.53-8.26,4.35-12.34,4.35-12.34l2.64,5.92Z" style="opacity:0.2;isolation:isolate"/>
    <polygon points="97.09 408.84 103.37 409.95 105.94 401.39 108.29 393.54 101.05 391.01 98.95 400.45 97.09 408.84" style="fill:#b97964"/>
    <polygon points="98.92 400.64 105.91 401.56 108.28 393.62 101.05 391.05 98.92 400.64" style="opacity:0.2;isolation:isolate"/>
    <polygon points="139 409 145.37 409 146.42 400.45 147.37 392.46 139.8 391.31 139.37 400.69 139 409" style="fill:#b97964"/>
    <polygon points="139.37 401.25 146.42 400.94 147.37 392.71 139.8 391.44 139.37 401.25" style="opacity:0.2;isolation:isolate"/>
    <path d="M98.33,393.78l10.32,1.82c10.41-26,17.82-47.61,23-65.58,2.81-9.7,5.05-18.32,6.73-26L138,332.29V396h10.41c25.49-121,7.42-149.13,7.42-149.13l-30.49-5.1a138.92,138.92,0,0,0-2.56,17.13L121.41,269l-11.93,61.57Z" style="fill:#407BFF"/>
    <g style="opacity:0.5;isolation:isolate">
      <path d="M98.33,393.78l10.32,1.82c9.5-23.71,16.52-43.83,21.64-60.83.48-1.61,1-3.19,1.45-4.75,2.56-8.8,4.26-16.72,6.26-23.82v0a9.93,9.93,0,0,1,.48-2.13L138,332.29V396h10.41c15.57-74,14.89-113.29,12-132.61-1.84-12.32-4.58-16.41-4.58-16.41l-30.49-5.15a138.54,138.54,0,0,0-2.56,17.09l-.41,3.05-1,7.06-11.93,61.56Z" style="fill:#fff"/>
    </g>
    <polygon points="110.26 394.32 97.46 390.08 97.64 395.52 108.22 398.9 110.26 394.32" style="fill:#407BFF"/>
    <polygon points="110.26 394.32 97.46 390.08 97.64 395.52 108.22 398.9 110.26 394.32" style="fill:#fff;opacity:0.6000000000000001;isolation:isolate"/>
    <polygon points="149.77 394.91 136.43 392.96 137.55 398.29 148.56 399.77 149.77 394.91" style="fill:#407BFF"/>
    <polygon points="149.77 394.91 136.43 392.96 137.55 398.29 148.56 399.77 149.77 394.91" style="fill:#fff;opacity:0.6000000000000001;isolation:isolate"/>
    <path d="M130.29,334.77c.48-1.61,1-3.19,1.45-4.75,2.55-8.8,4.26-16.72,6.26-23.82v0l1-13.08s-6.52-14.37-4.08-24.49c-.23.58-4.54,11.59-2.85,22.6A320.41,320.41,0,0,1,130.29,334.77Z" style="opacity:0.2;isolation:isolate"/>
    <path d="M121.46,191.26a1.42,1.42,0,0,0,.29.1,11.22,11.22,0,0,0,4.32.72c4.27-.28,6.83-1.65,8.07-4h0c1.67-3.45.86-8.44-1.23-14.12a22.7,22.7,0,0,0-3.3-6.38s0-.08-.05-.09a1.84,1.84,0,0,0-.17-.22,8.26,8.26,0,0,0-7.25-3.08,16.91,16.91,0,0,0-3.54.65C107.3,168.12,110.88,187.42,121.46,191.26Z" style="fill:#b97964"/>
    <path d="M121.75,191.36a11,11,0,0,0,4.28.56c4.26-.28,6.78-1.77,8-4.14a11.76,11.76,0,0,1-7.33,1.56A6.16,6.16,0,0,0,121.75,191.36Z" style="opacity:0.2;isolation:isolate"/>
    <path d="M122.43,200.94c-.51,3.4,3.91,4.48,3.91,4.48,6.9-3.48,8-7.34,8-7.34-6.11-2.7-5-11.54-5-11.54l-1.17.67-8.34,2.2s2.63,4.34,3,5.35c0,0,0,0,0,0C124.8,200.05,122.43,200.94,122.43,200.94Z" style="fill:#b97964"/>
    <path d="M129.6,167.52s3,7.72-3.47,13.37c0,0-.75,9.19-5.46,10.73-6.41,2.1-14.87-5.39-15.44-15.42C104.48,163.18,122.58,156.67,129.6,167.52Z" style="fill:#263238"/>
    <path d="M129.24,177.48c-.37-1.23-2-3-3.82-2.15s-1.53,6.11,3.68,5.74C129.85,181,130,180.05,129.24,177.48Z" style="fill:#b97964"/>
    <path d="M79.14,212.13a.23.23,0,0,1-.22-.17c-1.87-7.06,3.09-10.3,10.6-15.2L92.21,195c4.85-3.24,4.61-5.54,4.22-9.34a27.38,27.38,0,0,1,1.12-12.55c4.14-12.9,13-13.11,13.28-13.11h0c.13,0,.23.37.23.5s-.1.5-.24.5h0c-.23,0-8.78-.07-12.82,12.52a26.32,26.32,0,0,0-1.1,12.18c.4,3.85.66,6.34-4.43,9.74l-2.69,1.74c-7.34,4.79-12.19,7.94-10.41,14.67a.23.23,0,0,1-.17.28Z" style="fill:#263238"/>
    <path d="M146.05,407.79h-7.12a.65.65,0,0,0-.63.51l-1.46,6.6a1.09,1.09,0,0,0,.84,1.29l.24,0c2.92-.05,3.15-.23,6.81-.23,2.25,0,9,.24,12.15.24s3.52-3.08,2.25-3.36c-5.71-1.24-10-3-11.84-4.61A1.78,1.78,0,0,0,146.05,407.79Z" style="fill:#263238"/>
    <path d="M146.56,408.82a.19.19,0,0,1-.14-.15.17.17,0,0,1,.09-.17c.26-.17,2.66-1.64,3.48-1.22a.55.55,0,0,1,.3.49,1,1,0,0,1-.37,1,2.24,2.24,0,0,1-1.42.37A9,9,0,0,1,146.56,408.82Zm.5-.25a3.55,3.55,0,0,0,2.64-.13.72.72,0,0,0,.24-.63c0-.14-.07-.21-.11-.21a.45.45,0,0,0-.23,0A7.35,7.35,0,0,0,147.06,408.57Z" style="fill:#407BFF"/>
    <path d="M146.51,408.86a.19.19,0,0,1-.09-.16c0-.11.19-2.24,1.05-2.93a.92.92,0,0,1,.74-.23.57.57,0,0,1,.57.46c.15.78-1.33,2.41-2.09,2.83h-.09A.14.14,0,0,1,146.51,408.86ZM147.7,406a4.13,4.13,0,0,0-.88,2.32c.76-.57,1.71-1.81,1.61-2.29,0-.05,0-.18-.25-.18h-.09A.63.63,0,0,0,147.7,406Z" style="fill:#407BFF"/>
    <path d="M103.61,407.79H96.5a.63.63,0,0,0-.63.51l-1.47,6.6a1.09,1.09,0,0,0,.85,1.29l.24,0c2.91-.05,3.15-.23,6.8-.23,2.25,0,9,.24,12.16.24s3.51-3.08,2.24-3.36c-5.71-1.24-10-3-11.84-4.61A1.76,1.76,0,0,0,103.61,407.79Z" style="fill:#263238"/>
    <path d="M104.12,408.82a.18.18,0,0,1-.13-.15.16.16,0,0,1,.08-.17c.27-.17,2.66-1.64,3.48-1.22a.52.52,0,0,1,.3.49,1,1,0,0,1-.37,1,2.22,2.22,0,0,1-1.42.37A9.16,9.16,0,0,1,104.12,408.82Zm.51-.25a3.55,3.55,0,0,0,2.64-.13.71.71,0,0,0,.23-.63c0-.14-.06-.21-.11-.21a.45.45,0,0,0-.23,0A7.23,7.23,0,0,0,104.63,408.57Z" style="fill:#407BFF"/>
    <path d="M104.07,408.86a.21.21,0,0,1-.08-.16c0-.11.19-2.24,1-2.93a.94.94,0,0,1,.75-.23.57.57,0,0,1,.56.46c.15.78-1.32,2.41-2.09,2.83h-.08A.17.17,0,0,1,104.07,408.86Zm1.19-2.89a4.2,4.2,0,0,0-.88,2.32c.77-.57,1.71-1.81,1.62-2.29,0-.05,0-.18-.26-.18h-.08A.64.64,0,0,0,105.26,406Z" style="fill:#407BFF"/>
    <path d="M147.89,192.55s-23.17,8.11-38,9.88c1,1.89,13.61,35.22,12.89,56.52l36-3.83C156.85,235.05,147.89,192.55,147.89,192.55Z" style="fill:#407BFF"/>
    <g style="opacity:0.5">
      <path d="M149.86,202.21c-11.37,2.41-25.43,5.38-37.1,7.81.09.27.19.54.28.82,11.85-2.43,26-5.4,37-7.74Z" style="fill:#fff"/>
      <path d="M151.81,212.13l-35.9,7.64.27.91L152,213.06Z" style="fill:#fff"/>
      <path d="M154,223.71l-35.3,6c.08.3.15.61.23.91l35.24-6C154.08,224.33,154,224,154,223.71Z" style="fill:#fff"/>
      <path d="M155.93,235l-35,5.11c0,.31.11.62.17.93l34.94-5.11Z" style="fill:#fff"/>
      <path d="M158.12,249.63l-35.48,2.87c0,.32,0,.63,0,.95l35.55-2.88Z" style="fill:#fff"/>
    </g>
    <path d="M121,200.4s7.9,1.55,14.08-3.75C135.05,196.65,125.56,195.9,121,200.4Z" style="fill:#407BFF"/>
    <path d="M121,200.4s7.9,1.55,14.08-3.75C135.05,196.65,125.56,195.9,121,200.4Z" style="fill:#fff;opacity:0.5"/>
    <path d="M116.68,159s12.73-3.77,14.3,6.91-9.23,17.28-9.23,17.28l4.38-2.26s1.23,16.08-13.53,22.05-7.4,14-7.4,14-6.77-4.46,0-11.5c0,0-7.48.59-6.87,9.5s-10.23,11-14.47,6c0,0,5,1,3.92-1.5s-3.3-9-.78-12.72c0,0-2.67.75-2.2,4.57a6.5,6.5,0,0,1,1.06-8.14C90,199,97.21,197.83,97.52,189.86S99.56,156.29,116.68,159Z" style="fill:#263238"/>
    <path d="M109.45,210h0c-.13,0-.23-.18-.22-.31.14-3,3.3-5.68,7-8.72a45.52,45.52,0,0,0,7.77-7.63c4.9-6.69-1-12.64-1.31-12.89a.24.24,0,0,1,0-.33.23.23,0,0,1,.33,0c.07.06,6.5,6.47,1.36,13.49a46,46,0,0,1-7.85,7.7c-3.57,3-6.66,5.6-6.79,8.41C109.68,209.83,109.58,210,109.45,210Z" style="fill:#263238"/>
    <polygon points="75.13 151.07 84.44 149.71 85.03 153.01 74.61 154.19 75.13 151.07" style="fill:#407BFF"/>
    <polygon points="75.13 151.07 84.44 149.71 85.03 153.01 74.61 154.19 75.13 151.07" style="fill:#fff;opacity:0.5"/>
    <path d="M152.59,216.21c-7.93-5.24-6.76-15-6.76-15s2.08,1.82,4.7,4.28C151.16,208.74,151.86,212.36,152.59,216.21Z" style="opacity:0.2;isolation:isolate"/>
    <path d="M186,150.79l3.58-13.23s-1-2.4-.55-3.49,5-6.56,6-6.51,4.68,4.16,4.19,5.59-5.11,5.58-5.7,5.8l-2.82,16.13Z" style="fill:#b97964"/>
    <path d="M145.11,194s-.38,12.36,6.06,17.1c0,0,26.37-18.61,32.77-28.41s10.59-35,10.59-35l-8.48-2.13S177.17,171.48,170.7,178,145.11,194,145.11,194Z" style="fill:#407BFF"/>
    <g style="opacity:0.5">
      <path d="M193.8,151.63l-9-2.55c-.1.28-.21.58-.33.89l9.17,2.58C193.68,152.23,193.74,151.92,193.8,151.63Z" style="fill:#fff"/>
      <path d="M192.17,159.24,182,156.37c-.12.29-.23.58-.35.88L192,160.16Z" style="fill:#fff"/>
      <path d="M190.11,167.26l-11.35-3.2q-.18.44-.39.87l11.47,3.23Z" style="fill:#fff"/>
      <path d="M187.14,176.15l-11.57-5.47c-.14.28-.29.56-.44.83L186.79,177C186.91,176.74,187,176.45,187.14,176.15Z" style="fill:#fff"/>
      <path d="M182.05,185.14l-10.47-8.09-.62.71,10.48,8.09Z" style="fill:#fff"/>
      <path d="M149.28,191.83l6.47,15.9.78-.58-6.41-15.76Z" style="fill:#fff"/>
      <path d="M157.13,187.51l7.1,13.74c.26-.19.51-.39.76-.59L157.94,187Z" style="fill:#fff"/>
      <path d="M164.89,182.67l8,11.48.72-.63-7.91-11.39Z" style="fill:#fff"/>
    </g>
    <polygon points="194.84 144.94 185.71 142.67 184.79 145.9 195.05 148.1 194.84 144.94" style="fill:#407BFF"/>
    <polygon points="194.84 144.94 185.71 142.67 184.79 145.9 195.05 148.1 194.84 144.94" style="fill:#fff;opacity:0.5"/>
  </g>
</svg>