<?xml version="1.0" encoding="utf-8"?>
<svg viewBox="0 0 500 500" xmlns="http://www.w3.org/2000/svg">
  <g id="freepik--Plants--inject-4" transform="matrix(1.379464, 0, 0, 1.527073, -102.392502, -111.087418)" style="">
    <path d="M 399.46 293.36 C 398.841 293.36 398.34 292.859 398.34 292.24 L 398.34 281.8 C 398.34 280.938 399.273 280.399 400.02 280.83 C 400.367 281.03 400.58 281.4 400.58 281.8 L 400.58 292.24 C 400.58 292.859 400.079 293.36 399.46 293.36 Z" style="fill:#E54068"/>
    <path d="M 404.68 288.14 L 394.24 288.14 C 393.378 288.14 392.839 287.207 393.27 286.46 C 393.47 286.113 393.84 285.9 394.24 285.9 L 404.68 285.9 C 405.542 285.9 406.081 286.833 405.65 287.58 C 405.45 287.927 405.08 288.14 404.68 288.14 Z" style="fill:#E54068"/>
    <path d="M 92 304.54 C 91.381 304.54 90.88 304.039 90.88 303.42 L 90.88 296.71 C 90.88 295.848 91.813 295.309 92.56 295.74 C 92.907 295.94 93.12 296.31 93.12 296.71 L 93.12 303.42 C 93.12 304.039 92.619 304.54 92 304.54 Z" style="fill:#E54068"/>
    <path d="M 95.31 301.18 L 88.6 301.18 C 87.742 301.261 87.117 300.383 87.476 299.599 C 87.674 299.165 88.125 298.905 88.6 298.95 L 95.31 298.95 C 96.168 298.869 96.793 299.747 96.434 300.531 C 96.236 300.965 95.785 301.225 95.31 301.18 Z" style="fill:#E54068"/>
    <g style="opacity:0.5">
      <path d="M 399.46 293.36 C 398.841 293.36 398.34 292.859 398.34 292.24 L 398.34 281.8 C 398.34 280.938 399.273 280.399 400.02 280.83 C 400.367 281.03 400.58 281.4 400.58 281.8 L 400.58 292.24 C 400.58 292.859 400.079 293.36 399.46 293.36 Z" style="fill:#fff"/>
      <path d="M 404.68 288.14 L 394.24 288.14 C 393.378 288.14 392.839 287.207 393.27 286.46 C 393.47 286.113 393.84 285.9 394.24 285.9 L 404.68 285.9 C 405.542 285.9 406.081 286.833 405.65 287.58 C 405.45 287.927 405.08 288.14 404.68 288.14 Z" style="fill:#fff"/>
      <path d="M 92 304.54 C 91.381 304.54 90.88 304.039 90.88 303.42 L 90.88 296.71 C 90.88 295.848 91.813 295.309 92.56 295.74 C 92.907 295.94 93.12 296.31 93.12 296.71 L 93.12 303.42 C 93.12 304.039 92.619 304.54 92 304.54 Z" style="fill:#fff"/>
      <path d="M 95.31 301.18 L 88.6 301.18 C 87.742 301.261 87.117 300.383 87.476 299.599 C 87.674 299.165 88.125 298.905 88.6 298.95 L 95.31 298.95 C 96.168 298.869 96.793 299.747 96.434 300.531 C 96.236 300.965 95.785 301.225 95.31 301.18 Z" style="fill:#fff"/>
    </g>
    <path d="M 432 316.39 C 427.73 313.46 421.34 312.97 421.34 312.97 C 427.486 312.176 433.729 312.677 439.67 314.44 C 439.67 314.44 433.67 310.04 429.44 310.04 C 425.21 310.04 418.36 309.55 418.36 309.55 C 420.92 306.62 430.29 303.2 430.29 303.2 C 427.017 303.184 423.745 303.347 420.49 303.69 C 417.49 304.18 416.66 307.6 416.66 307.6 C 416.66 307.6 415.8 305.6 409.41 304.18 C 403.02 302.76 401.32 307.6 401.32 307.6 L 407.32 307.6 C 409.45 307.6 412.43 310.53 412.43 310.53 C 412.43 310.53 405.62 310.53 403.06 312 C 400.86 313.26 398.06 318.49 397.29 319.93 C 399.042 310.921 401.53 302.071 404.73 293.47 L 404.9 293.34 C 407.015 291.885 409.02 290.277 410.9 288.53 L 418.1 300.53 L 417.5 290.32 C 417.5 290.32 423.5 292.13 425.31 293.93 C 427.12 295.73 432.52 301.73 432.52 301.73 C 432.52 301.73 430.12 292.73 427.11 289.73 C 424.483 287.314 421.671 285.108 418.7 283.13 C 418.7 283.13 425.31 283.13 427.7 284.33 C 430.09 285.53 437.31 290.33 437.31 290.33 C 437.31 290.33 432.51 281.93 428.9 280.12 C 425.29 278.31 415.69 278.32 415.69 278.32 C 415.69 278.32 419.9 274.72 422.9 274.72 L 431.31 274.72 C 431.31 274.72 428.9 268.72 419.9 270.52 C 410.9 272.32 409.69 274.72 409.69 274.72 C 409.69 274.72 408.48 270.52 404.28 269.91 C 400.08 269.3 390.47 269.31 390.47 269.31 C 390.47 269.31 403.68 273.52 407.28 277.12 C 407.28 277.12 397.67 277.72 391.67 277.72 C 385.67 277.72 377.26 283.13 377.26 283.13 C 377.26 283.13 389.87 279.52 403.08 281.33 C 403.08 281.33 394.08 281.93 388.08 285.53 C 382.08 289.13 376.08 297.53 376.08 297.53 C 379.652 294.155 383.979 291.683 388.7 290.32 C 395.9 288.52 406.11 286.12 406.11 286.12 C 406.11 286.12 395.9 294.53 394.7 298.73 C 393.363 302.639 391.759 306.451 389.9 310.14 C 389.9 310.14 398.51 299.14 403.35 294.64 C 397.564 310.488 394.288 327.142 393.64 344 C 391.86 336.71 386.64 321.63 373.08 314.08 C 375.65 314.78 379.36 315.8 382.35 316.66 C 387.47 318.13 391.3 322.52 391.3 322.52 C 391.3 322.52 387.04 315.68 382.78 312.75 C 378.52 309.82 372.13 309.33 372.13 309.33 C 378.272 308.531 384.514 309.031 390.45 310.8 C 390.45 310.8 384.45 306.4 380.22 306.4 C 375.99 306.4 369.14 305.91 369.14 305.91 C 371.7 302.98 381.08 299.56 381.08 299.56 C 377.804 299.544 374.529 299.704 371.27 300.04 C 368.27 300.53 367.44 303.95 367.44 303.95 C 367.44 303.95 366.59 302 360.2 300.53 C 353.81 299.06 352.1 303.95 352.1 303.95 L 358.1 303.95 C 360.24 303.95 363.22 306.89 363.22 306.89 C 363.22 306.89 356.4 306.89 353.84 308.35 C 351.28 309.81 347.84 316.66 347.84 316.66 C 347.84 316.66 352.95 312.75 354.66 311.77 C 356.37 310.79 361.05 310.77 361.05 310.77 C 358.91 312.397 356.903 314.192 355.05 316.14 C 352.92 318.58 351.22 325.92 351.22 325.92 C 351.22 325.92 355.05 321.03 356.33 319.56 C 357.61 318.09 361.87 316.63 361.87 316.63 L 361.44 324.94 L 366.56 315.16 C 367.88 316.568 369.304 317.875 370.82 319.07 C 373.82 321.52 381.47 332.76 381.47 332.76 C 380.142 329.737 379.003 326.634 378.06 323.47 C 377.36 320.65 372.33 315.47 370.58 313.8 C 387.95 321.95 392.58 342.47 393.38 347.21 L 386.18 347.21 L 387.77 361.21 L 400.45 361.21 L 402.03 347.21 L 394.58 347.21 C 395.624 340.585 397.724 334.17 400.8 328.21 C 400.59 329.02 400.46 329.55 400.46 329.55 C 400.46 329.55 404.3 324.66 405.58 323.2 C 406.86 321.74 411.12 320.26 411.12 320.26 L 410.69 328.57 L 415.8 318.8 C 417.123 320.205 418.547 321.511 420.06 322.71 C 423.06 325.15 430.72 336.39 430.72 336.39 C 429.392 333.371 428.253 330.271 427.31 327.11 C 426.46 323.68 419.21 316.84 419.21 316.84 C 419.21 316.84 426.46 318.84 431.57 320.26 C 436.68 321.68 440.52 326.13 440.52 326.13 C 440.52 326.13 436.29 319.33 432 316.39 Z M 394.55 342.74 C 394.868 335.168 395.754 327.63 397.2 320.19 C 398 319.58 402.33 316.3 403.87 315.42 C 405.58 314.42 410.26 314.42 410.26 314.42 C 408.12 316.048 406.114 317.843 404.26 319.79 C 403.186 321.288 402.368 322.954 401.84 324.72 C 398.396 330.262 395.94 336.359 394.58 342.74 L 394.55 342.74 Z" style="fill:#E54068"/>
    <path d="M 432 316.39 C 427.73 313.46 421.34 312.97 421.34 312.97 C 427.486 312.176 433.729 312.677 439.67 314.44 C 439.67 314.44 433.67 310.04 429.44 310.04 C 425.21 310.04 418.36 309.55 418.36 309.55 C 420.92 306.62 430.29 303.2 430.29 303.2 C 427.017 303.184 423.745 303.347 420.49 303.69 C 417.49 304.18 416.66 307.6 416.66 307.6 C 416.66 307.6 415.8 305.6 409.41 304.18 C 403.02 302.76 401.32 307.6 401.32 307.6 L 407.32 307.6 C 409.45 307.6 412.43 310.53 412.43 310.53 C 412.43 310.53 405.62 310.53 403.06 312 C 400.86 313.26 398.06 318.49 397.29 319.93 C 399.042 310.921 401.53 302.071 404.73 293.47 L 404.9 293.34 C 407.015 291.885 409.02 290.277 410.9 288.53 L 418.1 300.53 L 417.5 290.32 C 417.5 290.32 423.5 292.13 425.31 293.93 C 427.12 295.73 432.52 301.73 432.52 301.73 C 432.52 301.73 430.12 292.73 427.11 289.73 C 424.483 287.314 421.671 285.108 418.7 283.13 C 418.7 283.13 425.31 283.13 427.7 284.33 C 430.09 285.53 437.31 290.33 437.31 290.33 C 437.31 290.33 432.51 281.93 428.9 280.12 C 425.29 278.31 415.69 278.32 415.69 278.32 C 415.69 278.32 419.9 274.72 422.9 274.72 L 431.31 274.72 C 431.31 274.72 428.9 268.72 419.9 270.52 C 410.9 272.32 409.69 274.72 409.69 274.72 C 409.69 274.72 408.48 270.52 404.28 269.91 C 400.08 269.3 390.47 269.31 390.47 269.31 C 390.47 269.31 403.68 273.52 407.28 277.12 C 407.28 277.12 397.67 277.72 391.67 277.72 C 385.67 277.72 377.26 283.13 377.26 283.13 C 377.26 283.13 389.87 279.52 403.08 281.33 C 403.08 281.33 394.08 281.93 388.08 285.53 C 382.08 289.13 376.08 297.53 376.08 297.53 C 379.652 294.155 383.979 291.683 388.7 290.32 C 395.9 288.52 406.11 286.12 406.11 286.12 C 406.11 286.12 395.9 294.53 394.7 298.73 C 393.363 302.639 391.759 306.451 389.9 310.14 C 389.9 310.14 398.51 299.14 403.35 294.64 C 397.564 310.488 394.288 327.142 393.64 344 C 391.86 336.71 386.64 321.63 373.08 314.08 C 375.65 314.78 379.36 315.8 382.35 316.66 C 387.47 318.13 391.3 322.52 391.3 322.52 C 391.3 322.52 387.04 315.68 382.78 312.75 C 378.52 309.82 372.13 309.33 372.13 309.33 C 378.272 308.531 384.514 309.031 390.45 310.8 C 390.45 310.8 384.45 306.4 380.22 306.4 C 375.99 306.4 369.14 305.91 369.14 305.91 C 371.7 302.98 381.08 299.56 381.08 299.56 C 377.804 299.544 374.529 299.704 371.27 300.04 C 368.27 300.53 367.44 303.95 367.44 303.95 C 367.44 303.95 366.59 302 360.2 300.53 C 353.81 299.06 352.1 303.95 352.1 303.95 L 358.1 303.95 C 360.24 303.95 363.22 306.89 363.22 306.89 C 363.22 306.89 356.4 306.89 353.84 308.35 C 351.28 309.81 347.84 316.66 347.84 316.66 C 347.84 316.66 352.95 312.75 354.66 311.77 C 356.37 310.79 361.05 310.77 361.05 310.77 C 358.91 312.397 356.903 314.192 355.05 316.14 C 352.92 318.58 351.22 325.92 351.22 325.92 C 351.22 325.92 355.05 321.03 356.33 319.56 C 357.61 318.09 361.87 316.63 361.87 316.63 L 361.44 324.94 L 366.56 315.16 C 367.88 316.568 369.304 317.875 370.82 319.07 C 373.82 321.52 381.47 332.76 381.47 332.76 C 380.142 329.737 379.003 326.634 378.06 323.47 C 377.36 320.65 372.33 315.47 370.58 313.8 C 387.95 321.95 392.58 342.47 393.38 347.21 L 386.18 347.21 L 387.77 361.21 L 400.45 361.21 L 402.03 347.21 L 394.58 347.21 C 395.624 340.585 397.724 334.17 400.8 328.21 C 400.59 329.02 400.46 329.55 400.46 329.55 C 400.46 329.55 404.3 324.66 405.58 323.2 C 406.86 321.74 411.12 320.26 411.12 320.26 L 410.69 328.57 L 415.8 318.8 C 417.123 320.205 418.547 321.511 420.06 322.71 C 423.06 325.15 430.72 336.39 430.72 336.39 C 429.392 333.371 428.253 330.271 427.31 327.11 C 426.46 323.68 419.21 316.84 419.21 316.84 C 419.21 316.84 426.46 318.84 431.57 320.26 C 436.68 321.68 440.52 326.13 440.52 326.13 C 440.52 326.13 436.29 319.33 432 316.39 Z M 394.55 342.74 C 394.868 335.168 395.754 327.63 397.2 320.19 C 398 319.58 402.33 316.3 403.87 315.42 C 405.58 314.42 410.26 314.42 410.26 314.42 C 408.12 316.048 406.114 317.843 404.26 319.79 C 403.186 321.288 402.368 322.954 401.84 324.72 C 398.396 330.262 395.94 336.359 394.58 342.74 L 394.55 342.74 Z" style="fill:#fff;opacity:0.4"/>
    <path d="M 153.6 316.39 C 149.33 313.46 142.94 312.97 142.94 312.97 C 149.086 312.176 155.329 312.677 161.27 314.44 C 161.27 314.44 155.27 310.04 151.04 310.04 C 146.81 310.04 139.96 309.55 139.96 309.55 C 142.52 306.62 151.89 303.2 151.89 303.2 C 148.617 303.184 145.345 303.347 142.09 303.69 C 139.09 304.18 138.26 307.6 138.26 307.6 C 138.26 307.6 137.4 305.6 131.01 304.18 C 124.62 302.76 122.91 307.6 122.91 307.6 L 128.91 307.6 C 131.04 307.6 134.02 310.53 134.02 310.53 C 134.02 310.53 127.21 310.53 124.65 312 C 122.45 313.26 119.65 318.49 118.88 319.93 C 120.627 310.92 123.115 302.07 126.32 293.47 L 126.49 293.34 C 128.602 291.882 130.607 290.274 132.49 288.53 L 139.69 300.53 L 139.09 290.32 C 139.09 290.32 145.09 292.13 146.9 293.93 C 148.71 295.73 154.11 301.73 154.11 301.73 C 154.11 301.73 151.7 292.73 148.7 289.73 C 146.073 287.314 143.261 285.108 140.29 283.13 C 140.29 283.13 146.9 283.13 149.29 284.33 C 151.68 285.53 158.9 290.33 158.9 290.33 C 158.9 290.33 154.1 281.93 150.49 280.12 C 146.88 278.31 137.28 278.32 137.28 278.32 C 137.28 278.32 141.48 274.72 144.49 274.72 L 152.9 274.72 C 152.9 274.72 150.49 268.72 141.48 270.52 C 132.47 272.32 131.28 274.72 131.28 274.72 C 131.28 274.72 130.07 270.52 125.87 269.91 C 121.67 269.3 112.06 269.31 112.06 269.31 C 112.06 269.31 125.27 273.52 128.87 277.12 C 128.87 277.12 119.26 277.72 113.26 277.72 C 107.26 277.72 98.84 283.13 98.84 283.13 C 98.84 283.13 111.46 279.52 124.67 281.33 C 124.67 281.33 115.67 281.93 109.67 285.53 C 103.67 289.13 97.67 297.53 97.67 297.53 C 101.242 294.155 105.569 291.683 110.29 290.32 C 117.49 288.52 127.7 286.12 127.7 286.12 C 127.7 286.12 117.49 294.53 116.29 298.73 C 114.953 302.639 113.349 306.451 111.49 310.14 C 111.49 310.14 120.1 299.14 124.94 294.64 C 119.147 310.486 115.864 327.14 115.21 344 C 113.43 336.71 108.21 321.63 94.65 314.08 C 97.22 314.78 100.93 315.8 103.92 316.66 C 109.04 318.13 112.92 322.52 112.92 322.52 C 112.92 322.52 108.66 315.68 104.4 312.75 C 100.14 309.82 93.75 309.33 93.75 309.33 C 99.872 308.554 106.089 309.068 112 310.84 C 112 310.84 106 306.44 101.77 306.44 C 97.54 306.44 90.71 306 90.71 306 C 93.27 303.07 102.64 299.65 102.64 299.65 C 99.367 299.634 96.096 299.794 92.84 300.13 C 89.86 300.57 89 304 89 304 C 89 304 88.15 302.05 81.75 300.58 C 75.35 299.11 73.67 304 73.67 304 L 79.67 304 C 81.8 304 84.79 306.94 84.79 306.94 C 84.79 306.94 77.97 306.94 75.41 308.4 C 72.85 309.86 69.41 316.71 69.41 316.71 C 69.41 316.71 74.52 312.8 76.23 311.82 C 77.94 310.84 82.62 310.82 82.62 310.82 C 80.48 312.447 78.473 314.242 76.62 316.19 C 74.49 318.63 72.79 325.97 72.79 325.97 C 72.79 325.97 76.62 321.08 77.9 319.61 C 79.18 318.14 83.44 316.68 83.44 316.68 L 83 325 L 88.12 315.22 C 89.437 316.631 90.861 317.939 92.38 319.13 C 95.38 321.58 103.03 332.82 103.03 332.82 C 101.702 329.797 100.563 326.694 99.62 323.53 C 98.92 320.71 93.89 315.53 92.13 313.86 C 109.51 322.01 114.13 342.53 114.94 347.27 L 107.74 347.27 L 109.33 361.27 L 122.01 361.27 L 123.59 347.27 L 116.14 347.27 C 117.184 340.645 119.284 334.23 122.36 328.27 C 122.15 329.08 122.02 329.61 122.02 329.61 C 122.02 329.61 125.86 324.72 127.14 323.26 C 128.42 321.8 132.68 320.32 132.68 320.32 L 132.25 328.63 L 137.36 318.86 C 138.683 320.265 140.107 321.571 141.62 322.77 C 144.62 325.21 152.28 336.45 152.28 336.45 C 150.952 333.431 149.813 330.331 148.87 327.17 C 148.02 323.74 140.77 316.9 140.77 316.9 C 140.77 316.9 148.02 318.9 153.13 320.32 C 158.24 321.74 162.13 326.19 162.13 326.19 C 162.13 326.19 157.86 319.33 153.6 316.39 Z M 116.15 342.74 C 116.468 335.168 117.354 327.63 118.8 320.19 C 119.6 319.58 123.93 316.3 125.47 315.42 C 127.18 314.42 131.86 314.42 131.86 314.42 C 129.72 316.048 127.714 317.843 125.86 319.79 C 124.786 321.288 123.968 322.954 123.44 324.72 C 119.986 330.26 117.519 336.357 116.15 342.74 Z" style="fill:#E54068"/>
    <path d="M 153.6 316.39 C 149.33 313.46 142.94 312.97 142.94 312.97 C 149.086 312.176 155.329 312.677 161.27 314.44 C 161.27 314.44 155.27 310.04 151.04 310.04 C 146.81 310.04 139.96 309.55 139.96 309.55 C 142.52 306.62 151.89 303.2 151.89 303.2 C 148.617 303.184 145.345 303.347 142.09 303.69 C 139.09 304.18 138.26 307.6 138.26 307.6 C 138.26 307.6 137.4 305.6 131.01 304.18 C 124.62 302.76 122.91 307.6 122.91 307.6 L 128.91 307.6 C 131.04 307.6 134.02 310.53 134.02 310.53 C 134.02 310.53 127.21 310.53 124.65 312 C 122.45 313.26 119.65 318.49 118.88 319.93 C 120.627 310.92 123.115 302.07 126.32 293.47 L 126.49 293.34 C 128.602 291.882 130.607 290.274 132.49 288.53 L 139.69 300.53 L 139.09 290.32 C 139.09 290.32 145.09 292.13 146.9 293.93 C 148.71 295.73 154.11 301.73 154.11 301.73 C 154.11 301.73 151.7 292.73 148.7 289.73 C 146.073 287.314 143.261 285.108 140.29 283.13 C 140.29 283.13 146.9 283.13 149.29 284.33 C 151.68 285.53 158.9 290.33 158.9 290.33 C 158.9 290.33 154.1 281.93 150.49 280.12 C 146.88 278.31 137.28 278.32 137.28 278.32 C 137.28 278.32 141.48 274.72 144.49 274.72 L 152.9 274.72 C 152.9 274.72 150.49 268.72 141.48 270.52 C 132.47 272.32 131.28 274.72 131.28 274.72 C 131.28 274.72 130.07 270.52 125.87 269.91 C 121.67 269.3 112.06 269.31 112.06 269.31 C 112.06 269.31 125.27 273.52 128.87 277.12 C 128.87 277.12 119.26 277.72 113.26 277.72 C 107.26 277.72 98.84 283.13 98.84 283.13 C 98.84 283.13 111.46 279.52 124.67 281.33 C 124.67 281.33 115.67 281.93 109.67 285.53 C 103.67 289.13 97.67 297.53 97.67 297.53 C 101.242 294.155 105.569 291.683 110.29 290.32 C 117.49 288.52 127.7 286.12 127.7 286.12 C 127.7 286.12 117.49 294.53 116.29 298.73 C 114.953 302.639 113.349 306.451 111.49 310.14 C 111.49 310.14 120.1 299.14 124.94 294.64 C 119.147 310.486 115.864 327.14 115.21 344 C 113.43 336.71 108.21 321.63 94.65 314.08 C 97.22 314.78 100.93 315.8 103.92 316.66 C 109.04 318.13 112.92 322.52 112.92 322.52 C 112.92 322.52 108.66 315.68 104.4 312.75 C 100.14 309.82 93.75 309.33 93.75 309.33 C 99.872 308.554 106.089 309.068 112 310.84 C 112 310.84 106 306.44 101.77 306.44 C 97.54 306.44 90.71 306 90.71 306 C 93.27 303.07 102.64 299.65 102.64 299.65 C 99.367 299.634 96.096 299.794 92.84 300.13 C 89.86 300.57 89 304 89 304 C 89 304 88.15 302.05 81.75 300.58 C 75.35 299.11 73.67 304 73.67 304 L 79.67 304 C 81.8 304 84.79 306.94 84.79 306.94 C 84.79 306.94 77.97 306.94 75.41 308.4 C 72.85 309.86 69.41 316.71 69.41 316.71 C 69.41 316.71 74.52 312.8 76.23 311.82 C 77.94 310.84 82.62 310.82 82.62 310.82 C 80.48 312.447 78.473 314.242 76.62 316.19 C 74.49 318.63 72.79 325.97 72.79 325.97 C 72.79 325.97 76.62 321.08 77.9 319.61 C 79.18 318.14 83.44 316.68 83.44 316.68 L 83 325 L 88.12 315.22 C 89.437 316.631 90.861 317.939 92.38 319.13 C 95.38 321.58 103.03 332.82 103.03 332.82 C 101.702 329.797 100.563 326.694 99.62 323.53 C 98.92 320.71 93.89 315.53 92.13 313.86 C 109.51 322.01 114.13 342.53 114.94 347.27 L 107.74 347.27 L 109.33 361.27 L 122.01 361.27 L 123.59 347.27 L 116.14 347.27 C 117.184 340.645 119.284 334.23 122.36 328.27 C 122.15 329.08 122.02 329.61 122.02 329.61 C 122.02 329.61 125.86 324.72 127.14 323.26 C 128.42 321.8 132.68 320.32 132.68 320.32 L 132.25 328.63 L 137.36 318.86 C 138.683 320.265 140.107 321.571 141.62 322.77 C 144.62 325.21 152.28 336.45 152.28 336.45 C 150.952 333.431 149.813 330.331 148.87 327.17 C 148.02 323.74 140.77 316.9 140.77 316.9 C 140.77 316.9 148.02 318.9 153.13 320.32 C 158.24 321.74 162.13 326.19 162.13 326.19 C 162.13 326.19 157.86 319.33 153.6 316.39 Z M 116.15 342.74 C 116.468 335.168 117.354 327.63 118.8 320.19 C 119.6 319.58 123.93 316.3 125.47 315.42 C 127.18 314.42 131.86 314.42 131.86 314.42 C 129.72 316.048 127.714 317.843 125.86 319.79 C 124.786 321.288 123.968 322.954 123.44 324.72 C 119.986 330.26 117.519 336.357 116.15 342.74 Z" style="fill:#fff;opacity:0.4"/>
  </g>
  <g id="freepik--character-1--inject-4" transform="matrix(1.793149, 0, 0, 1.527073, -141.578964, -111.087418)" style="">
    <ellipse cx="133.33" cy="377.97" rx="28.33" ry="11.18" style="fill:#E54068"/>
    <ellipse cx="133.33" cy="377.97" rx="28.33" ry="11.18" style="fill:#fff;opacity:0.5"/>
    <path d="M 113.06 197.2 C 111.737 198.01 110.626 199.124 109.82 200.45 C 108.74 202.45 102.43 220.62 100.45 224.76 C 98.47 228.9 97.57 230.34 100.09 231.76 C 102.61 233.18 105.86 231.04 108.02 227.08 C 110.18 223.12 114.14 212.13 114.86 209.61 C 115.58 207.09 118.1 197.56 113.06 197.2 Z" style="fill:#E54068;stroke:#263238;stroke-linecap:round;stroke-linejoin:round"/>
    <polygon points="152.05 360.65 153.54 371.32 152.54 371.81 149.57 366.11 152.05 360.65" style="fill:#263238;stroke:#263238;stroke-linecap:round;stroke-linejoin:round"/>
    <path d="M 121.29 296.17 C 121.29 296.17 124.52 311.54 127.74 321.46 C 130.96 331.38 141.38 354.46 142.13 358.46 C 142.88 362.46 141.88 362.46 141.88 365.65 C 141.88 368.84 137.42 372.35 137.17 374.08 C 136.92 375.81 140.39 376.08 143.62 375.08 C 146.85 374.08 149.07 371.36 149.07 369.08 C 149.07 366.8 152.07 362.88 152.07 360.65 C 152.07 358.42 148.35 358.17 148.07 353.95 C 147.79 349.73 146.33 334.61 143.85 325.68 C 141.37 316.75 138.85 312.04 136.91 309.56 C 134.97 307.08 132.45 301.37 132.91 299.39 C 133.37 297.41 121.29 296.17 121.29 296.17 Z" style="fill:#fff;stroke:#263238;stroke-linecap:round;stroke-linejoin:round"/>
    <path d="M 149.07 369.08 C 149.07 366.85 152.07 362.88 152.07 360.65 C 152.07 359.71 151.41 359.12 150.62 358.44 C 149.52 361.39 147.28 366.5 143.88 369.33 C 141.77 371.1 140.38 371.07 139.5 370.56 C 138.4 371.97 137.31 373.21 137.19 374.04 C 136.94 375.78 140.41 376.04 143.64 375.04 C 146.87 374.04 149.07 371.32 149.07 369.08 Z" style="fill:#263238;stroke:#263238;stroke-linecap:round;stroke-linejoin:round"/>
    <path d="M 127 299.64 C 127 299.64 126 307.82 126 313.03 C 126 318.24 123 352.59 122 359.16 C 121.07 365.54 119.27 368.34 118.28 371.81 C 117.29 375.28 116.28 379.01 114.56 380 C 112.84 380.99 114.56 382 117.56 381.73 C 120.56 381.46 123.56 380 123.76 377.27 C 123.96 374.54 126.37 372.14 127.98 371.07 C 130.98 369.07 127.24 363.13 131.45 350.23 C 133.31 344.57 137.9 337.09 138.89 328.41 C 139.88 319.73 138.15 311.79 138.15 309.81 C 138.15 307.83 139.89 300.38 139.89 300.38 L 127 299.64 Z" style="fill:#fff;stroke:#263238;stroke-linecap:round;stroke-linejoin:round"/>
    <path d="M 128.75 371.49 C 131.97 370.26 129.63 367.49 129.36 364.49 C 126.77 367 123.31 373.49 121.29 375.49 C 120.121 376.623 118.407 376.984 116.88 376.42 C 116.26 378.08 115.54 379.42 114.6 379.96 C 112.86 380.96 114.6 381.96 117.6 381.69 C 120.6 381.42 123.6 379.96 123.8 377.23 C 124 374.5 126.94 372.18 128.75 371.49 Z" style="fill:#263238;stroke:#263238;stroke-linecap:round;stroke-linejoin:round"/>
    <path d="M 129.23 369.08 L 130 380 L 128 380 L 126.26 372.56 C 126.26 372.56 128 368.84 129.23 369.08 Z" style="fill:#263238;stroke:#263238;stroke-linecap:round;stroke-linejoin:round"/>
    <path d="M 124.76 195.4 L 117.2 198.28 C 117.2 198.28 113.06 208.19 111.62 215.39 C 110.18 222.59 112.16 229.98 113.62 234.48 C 115.08 238.98 116.86 264.92 117.62 274.82 C 118.38 284.72 119.72 299 119.72 299 C 119.72 299 122.96 301.53 129.45 302.79 C 135.94 304.05 145.12 302.07 145.12 302.07 C 145.12 302.07 150.52 286.4 151.6 277.21 C 152.68 268.02 143.67 253.08 140.79 246.6 C 137.91 240.12 136.79 229.67 137.37 226.6 C 137.95 223.53 144.75 200.31 142.37 199.22 C 139.99 198.13 131.61 195 124.76 195.4 Z" style="fill:#263238;stroke:#263238;stroke-linecap:round;stroke-linejoin:round"/>
    <path d="M 124.76 189.1 C 124.76 189.1 124.04 194.1 123.5 196.3 C 122.96 198.5 118.82 206.03 120.44 209.3 C 122.06 212.57 127.44 212.54 129.81 206.96 C 131.267 203.108 131.947 199.006 131.81 194.89 L 132.71 189.49 C 132.71 189.49 126.93 191.44 124.76 189.1 Z" style="fill:#fff;stroke:#263238;stroke-linecap:round;stroke-linejoin:round"/>
    <path d="M 146.74 181.18 C 145.865 179.697 144.089 179.003 142.44 179.5 C 145.7 176.81 147.76 172.45 144.57 166.23 C 140.57 158.48 131.25 160.29 131.25 160.29 C 127.675 160.128 124.293 161.92 122.42 164.97 C 119.18 170.19 120.98 177.39 123.68 179.38 C 126.18 181.2 134.02 183.17 138.76 181.63 C 135.99 184.5 134.2 188.63 136.76 192.23 C 138.933 195.648 143.798 195.976 146.41 192.88 C 149.62 189.1 148.72 184.6 146.74 181.18 Z" style="fill:#263238;stroke:#263238;stroke-linecap:round;stroke-linejoin:round"/>
    <path d="M 124.32 179.78 C 124.32 179.78 122.15 176.2 121.6 178.67 C 121.05 181.14 122.09 183 122.81 183.46 C 123.23 183.731 123.737 183.834 124.23 183.75" style="fill:#fff;stroke:#263238;stroke-linecap:round;stroke-linejoin:round"/>
    <path d="M 124.21 173.41 C 124.21 173.41 120.96 186.74 125.47 191.41 C 129.98 196.08 135.01 188.53 139.15 182.77 L 140.41 178.99 C 139.39 177.114 138.247 175.306 136.99 173.58 C 135.691 171.887 134.659 170.005 133.93 168 C 133.93 168 129.25 174 124.21 173.41 Z" style="fill:#fff;stroke:#263238;stroke-linecap:round;stroke-linejoin:round"/>
    <path d="M 138.06 182.85 C 138.06 182.85 141.81 180.98 140.95 183.36 C 140.09 185.74 138.23 186.77 137.38 186.77 C 136.877 186.771 136.39 186.59 136.01 186.26" style="fill:#fff;stroke:#263238;stroke-linecap:round;stroke-linejoin:round"/>
    <path d="M 131.76 178.25 C 133.191 177.115 135.195 177.046 136.7 178.08" style="fill:none;stroke:#263238;stroke-miterlimit:10;stroke-width:0.5px"/>
    <path d="M 129.2 176.38 C 129.2 176.38 127.33 174.38 125.29 175.19" style="fill:none;stroke:#263238;stroke-miterlimit:10;stroke-width:0.5px"/>
    <line x1="128.52" y1="184.89" x2="129.71" y2="185.41" style="fill:none;stroke:#263238;stroke-miterlimit:10;stroke-width:0.5px"/>
    <path d="M 126.65 186.77 C 127.976 187.581 129.572 187.826 131.08 187.45" style="fill:none;stroke:#263238;stroke-miterlimit:10;stroke-width:0.5px"/>
    <path d="M 129.32 180.23 C 128.647 182.439 125.834 183.091 124.258 181.403 C 122.682 179.715 123.523 176.954 125.773 176.433 C 126.379 176.292 127.014 176.344 127.59 176.58 C 129.074 177.112 129.848 178.744 129.32 180.23 Z" style="fill:none;stroke:#263238;stroke-miterlimit:10;stroke-width:0.5px"/>
    <path d="M 136.3 182.11 C 135.624 184.318 132.811 184.966 131.236 183.276 C 129.662 181.587 130.508 178.826 132.758 178.308 C 133.366 178.168 134.003 178.221 134.58 178.46 C 136.06 178.996 136.829 180.627 136.3 182.11 Z" style="fill:none;stroke:#263238;stroke-miterlimit:10;stroke-width:0.5px"/>
    <line x1="129.37" y1="179.44" x2="130.79" y2="179.85" style="fill:none;stroke:#263238;stroke-miterlimit:10;stroke-width:0.5px"/>
    <line x1="136.36" y1="181.49" x2="139.25" y2="181.83" style="fill:none;stroke:#263238;stroke-miterlimit:10;stroke-width:0.5px"/>
    <path d="M 123.5 196.3 C 120.644 202.157 118.463 208.32 117 214.67 C 115.2 223.67 115.38 240.43 115.74 246.91 C 116.1 253.39 115.74 271.91 115.74 271.91 L 107.46 268.31 C 107.46 268.31 107.82 256.6 109.26 249.04 C 110.441 242.022 110.923 234.904 110.7 227.79 C 110.52 223.65 108.7 217.7 109.8 212.12 C 110.9 206.54 112.5 197.71 113.04 197.12 C 113.58 196.53 123.5 196.3 123.5 196.3 Z" style="fill:#E54068;stroke:#263238;stroke-linecap:round;stroke-linejoin:round"/>
    <path d="M 131.79 195.94 C 131.79 195.94 128.55 208.73 126.57 220.44 C 124.59 232.15 129.45 271.44 129.45 271.44 C 132.953 271.243 136.44 270.822 139.89 270.18 C 147.82 268.92 151.6 266.58 151.6 266.58 C 151.6 266.58 146.92 254.69 143.85 248.58 C 140.78 242.47 138.45 237.58 138.45 237.58 C 137.861 232.898 138.166 228.148 139.35 223.58 C 141.35 216.19 146.74 201.07 144.57 199.26 C 142.4 197.45 131.79 195.94 131.79 195.94 Z" style="fill:#E54068;stroke:#263238;stroke-linecap:round;stroke-linejoin:round"/>
    <path d="M 139.35 205.13 C 139.35 205.13 137.35 214.13 136.65 218.27 C 135.95 222.41 134.49 228.54 134.49 228.54 C 134.49 228.54 121.88 229.08 118.82 228.9 C 115.76 228.72 112.52 228.72 112.52 228.72 L 113.6 234.48 C 113.6 234.48 123.68 238.08 129.99 239.16 C 136.3 240.24 139.71 241.87 140.79 239.89 C 141.87 237.91 145.48 217.55 146.79 209.81 C 148.1 202.07 148.95 200.27 143.54 198.81" style="fill:none;stroke:#263238;stroke-linecap:round;stroke-linejoin:round"/>
    <path d="M 126.93 223.86 C 126.93 223.86 133.77 222.96 134.31 222.78 C 134.85 222.6 141.87 225.66 141.87 225.66 C 141.87 225.66 141.51 226.56 140.97 226.74 C 140.43 226.92 136.11 224.74 136.11 224.74 L 135.39 224.92 L 140.79 228.52 C 140.79 228.52 141.51 229.42 140.79 229.78 C 140.07 230.14 134.31 226.36 134.31 226.36 L 139.31 231.22 C 138.707 231.633 137.913 231.633 137.31 231.22 C 136.41 230.5 134.43 228.52 134.43 228.52 C 134.43 228.52 136.59 231.04 135.51 231.22 C 134.43 231.4 132.45 228.34 132.45 228.34 L 129.21 227.8 L 125.79 227.44 L 126.93 223.86 Z" style="fill:#fff;stroke:#263238;stroke-linecap:round;stroke-linejoin:round"/>
    <path d="M 116.49 224 C 116.49 224 111.95 218.8 111.67 218.31 C 111.39 217.82 104.09 215.47 104.09 215.47 C 103.927 215.926 103.927 216.424 104.09 216.88 C 104.38 217.37 109.09 218.61 109.09 218.61 L 109.51 219.22 L 103.07 218.35 C 103.07 218.35 101.94 218.55 102.24 219.29 C 102.54 220.03 109.37 221.01 109.37 221.01 L 102.37 221.33 C 102.552 222.03 103.142 222.549 103.86 222.64 C 105.01 222.69 107.8 222.52 107.8 222.52 C 107.8 222.52 104.51 222.98 105.21 223.83 C 105.91 224.68 109.41 223.69 109.41 223.69 L 112.2 225.43 L 115 227.43 L 116.49 224 Z" style="fill:#fff;stroke:#263238;stroke-linecap:round;stroke-linejoin:round"/>
    <path d="M 103.69 223.14 C 103.69 223.14 121.34 223.68 123.69 223.68 C 124.776 223.648 125.864 223.708 126.94 223.86 L 125.68 232.68 C 121.252 233.13 116.8 233.311 112.35 233.22 C 102.8 233.22 98.48 233.76 98.84 230.16 C 99.2 226.56 103.69 223.14 103.69 223.14 Z" style="fill:#E54068;stroke:#263238;stroke-linecap:round;stroke-linejoin:round"/>
  </g>
  <g id="freepik--character-2--inject-4" transform="matrix(1.379464, 0, 0, 1.527073, -90.525414, -111.087418)" style="">
    <ellipse cx="184.02" cy="385.42" rx="28.33" ry="11.18" style="fill:#E54068"/>
    <ellipse cx="184.02" cy="385.42" rx="28.33" ry="11.18" style="fill:#fff;opacity:0.5"/>
    <path d="M 177.45 157 C 177.45 157 171.57 157.37 167.79 164.5 C 164.01 171.63 165.79 184.5 167.15 188.5 C 168.51 192.5 174.72 211.45 178.29 224.7 C 181.86 237.95 188.29 249.75 199.8 249.33 C 211.31 248.91 226.8 243.56 221.8 224.16 C 216.8 204.76 205.94 196.78 203.8 191.83 C 201.66 186.88 201.2 181.76 200.25 170.99 C 199.3 160.22 191.93 154.27 184.55 152.12 C 177.17 149.97 177.45 157 177.45 157 Z" style="fill:#263238;stroke:#263238;stroke-linecap:round;stroke-linejoin:round"/>
    <path d="M 199.11 188.11 C 200.99 189.85 201.73 189.9 201.73 189.9" style="fill:none;stroke:#fff;stroke-linecap:round;stroke-linejoin:round;stroke-width:0.5px"/>
    <path d="M 182.48 158.35 C 182.48 158.35 182.64 166.08 190.84 177.91 C 192.896 180.958 195.158 183.861 197.61 186.6" style="fill:none;stroke:#fff;stroke-linecap:round;stroke-linejoin:round;stroke-width:0.5px"/>
    <path d="M 184.37 163.55 C 184.37 163.55 191.79 180.9 200.31 185.79" style="fill:none;stroke:#fff;stroke-linecap:round;stroke-linejoin:round;stroke-width:0.5px"/>
    <path d="M 206.46 207.56 C 206.46 207.56 218.6 221.56 218.76 231.56 C 218.92 241.56 212.61 245.76 211.98 245.76" style="fill:none;stroke:#fff;stroke-linecap:round;stroke-linejoin:round;stroke-width:0.5px"/>
    <path d="M 212.56 209.64 C 215.93 216.16 219.66 225.14 218.76 231.54" style="fill:none;stroke:#fff;stroke-linecap:round;stroke-linejoin:round;stroke-width:0.5px"/>
    <path d="M 207.72 201.25 C 207.72 201.25 208.92 203.07 210.54 205.91" style="fill:none;stroke:#fff;stroke-linecap:round;stroke-linejoin:round;stroke-width:0.5px"/>
    <path d="M 171.28 172.39 C 171.28 172.39 166.65 181.82 167.15 188.46" style="fill:none;stroke:#fff;stroke-linecap:round;stroke-linejoin:round;stroke-width:0.5px"/>
    <path d="M 169.07 177.91 C 169.07 177.91 168.92 183.74 170.65 186.91" style="fill:none;stroke:#fff;stroke-linecap:round;stroke-linejoin:round;stroke-width:0.5px"/>
    <path d="M 210.86 267.17 C 210.86 267.17 208.62 272.17 208.62 273.6 C 208.62 275.03 208.9 281.15 209.74 280.03 C 210.58 278.91 209.74 274.72 210.86 274.44 C 211.98 274.16 212.86 275 211.7 278.35 C 210.54 281.7 209.7 285.06 211.98 283.35 C 214.26 281.64 214.21 279.43 215.05 274.4 C 215.561 271.428 215.466 268.384 214.77 265.45 L 210.86 267.17 Z" style="fill:#fff;stroke:#263238;stroke-linecap:round;stroke-linejoin:round"/>
    <path d="M 203.59 193.37 L 208.06 234.46 L 216.17 265.77 L 209.17 268.85 C 209.17 268.85 199.95 243.13 197.71 238.38 C 195.47 233.63 194.63 229.71 194.63 227.75 C 194.63 225.79 203.59 193.37 203.59 193.37 Z" style="fill:#E54068;stroke:#263238;stroke-linecap:round;stroke-linejoin:round"/>
    <path d="M 163.06 308 C 163.06 308 164.17 313.59 164.45 316.38 C 164.73 319.17 163.89 329.24 165.29 338.75 C 166.69 348.26 174 376.2 174 376.2 C 174 376.2 166.73 382.62 166.73 385.7 C 166.73 388.78 168.97 388.22 172.6 385.98 C 176.23 383.74 179.87 378.71 180.15 375.36 C 180.43 372.01 177.35 352.43 178.47 343.77 C 179.59 335.11 177.91 320.01 177.91 313.86 L 177.91 307.71 L 163.06 308 Z" style="fill:#fff;stroke:#263238;stroke-linecap:round;stroke-linejoin:round"/>
    <path d="M 171.16 382.62 C 170.16 382.14 170.73 380.22 171.35 378.71 C 169.27 380.85 166.69 383.87 166.69 385.71 C 166.69 388.78 168.93 388.23 172.56 385.99 C 175.554 383.99 177.927 381.191 179.41 377.91 C 176.28 381.32 172.44 383.26 171.16 382.62 Z" style="fill:#263238;stroke:#263238;stroke-linecap:round;stroke-linejoin:round"/>
    <path d="M 176.75 309.94 C 176.75 309.94 176.47 320.01 177.59 324.2 C 178.71 328.39 185.7 349.92 186.82 356.35 C 188.013 363.093 188.758 369.908 189.05 376.75 C 189.05 381.23 193.25 391.29 196.05 391.85 C 198.85 392.41 200.53 392.41 199.69 387.94 C 198.85 383.47 193.54 376.47 193.54 376.47 C 193.54 376.47 196.32 348 195.2 339 C 194.08 330 191 321.12 191 320.29 C 191 319.46 192.4 309.1 192.4 309.1 L 176.75 309.94 Z" style="fill:#fff;stroke:#263238;stroke-linecap:round;stroke-linejoin:round"/>
    <path d="M 197.61 382.8 C 197.27 384.21 196.61 385.42 195.48 385.42 C 192.69 385.42 189.89 380.67 189.89 380.67 L 189.75 380.91 C 191.06 385.66 193.94 391.43 196.04 391.85 C 198.84 392.41 200.52 392.41 199.68 387.94 C 199.244 386.135 198.546 384.403 197.61 382.8 Z" style="fill:#263238;stroke:#263238;stroke-linecap:round;stroke-linejoin:round"/>
    <path d="M 175.36 188.34 C 175.36 188.34 155.51 192.53 155.23 193.65 C 154.95 194.77 161.66 229.71 161.66 231.11 C 161.66 232.51 153.83 250.68 153.27 261.86 C 152.71 273.04 156.91 310.22 156.91 310.22 C 156.91 310.22 165.29 313.86 173.4 313.86 C 181.51 313.86 195.2 311.86 195.2 311.86 C 195.2 311.86 201.91 290.33 202.47 272.16 C 203.03 253.99 194.92 231.35 194.92 231.35 C 194.92 231.35 203.59 194.73 203.59 193.35 C 203.59 191.97 185.14 187.22 175.36 188.34 Z" style="fill:#263238;stroke:#263238;stroke-linecap:round;stroke-linejoin:round"/>
    <path d="M 194.92 231.39 C 194.92 231.39 203.59 194.77 203.59 193.39 C 203.59 192.01 185.14 187.24 175.36 188.39 C 175.36 188.39 155.51 192.58 155.23 193.7 C 154.95 194.82 161.66 229.76 161.66 231.16 C 161.66 232.16 157.66 241.67 155.2 251.1 C 158.864 253.035 162.713 254.596 166.69 255.76 C 175.36 258.28 178.69 254.64 178.69 254.64 C 178.69 254.64 177.85 256.64 182.88 257.16 C 187.34 257.65 194.88 257.48 200.8 253.94 C 199.39 246.29 197.425 238.754 194.92 231.39 Z" style="fill:#E54068;stroke:#263238;stroke-linecap:round;stroke-linejoin:round"/>
    <path d="M 179.17 245.92 C 178.77 248.66 178.47 250.48 178.47 250.48" style="fill:none;stroke:#263238;stroke-linecap:round;stroke-linejoin:round"/>
    <path d="M 180.71 209 C 181.404 215.643 181.584 222.329 181.25 229 C 180.98 232.36 180.5 236.35 180.01 240" style="fill:none;stroke:#263238;stroke-linecap:round;stroke-linejoin:round"/>
    <path d="M 177.71 186.18 C 177.71 186.18 172.32 187.98 169.92 190.08 C 167.52 192.18 163.63 195.77 163.63 195.77 L 173.52 196.37 L 180.71 209 L 185.8 196.72 L 191.8 196.72 C 193.472 196.738 195.116 197.149 196.6 197.92 C 196.6 197.92 189.71 188.63 185.81 186.83 C 183.249 185.753 180.41 185.526 177.71 186.18 Z" style="fill:#fff;stroke:#263238;stroke-linecap:round;stroke-linejoin:round"/>
    <path d="M 174.42 182.59 C 174.42 182.59 175.32 195.17 177.71 198.47 C 180.1 201.77 183.4 193.08 183.4 189.18 C 183.4 185.28 183.7 179.89 183.7 179.89 L 174.42 182.59 Z" style="fill:#fff;stroke:#263238;stroke-linecap:round;stroke-linejoin:round"/>
    <path d="M 155.23 193.65 C 155.23 193.65 143.23 233.65 143.23 236.42 C 143.23 239.19 146.58 242.29 149.94 240.33 C 153.3 238.37 160 219.65 160 219.65 L 155.23 193.65 Z" style="fill:#E54068;stroke:#263238;stroke-linecap:round;stroke-linejoin:round"/>
    <polygon points="139.57 219.09 152.99 245.09 171.44 247.04 160.54 215.46 139.57 219.09" style="fill:#fff;stroke:#263238;stroke-linecap:round;stroke-linejoin:round"/>
    <path d="M 155.79 235.58 L 160.79 226.36 L 166.66 224.36 L 167.5 225.48 L 164.14 227.48 C 164.14 227.48 168.34 227.75 169.46 227.75 C 170.58 227.75 170.29 229.43 170.29 229.43 L 169.74 230.55 C 169.74 230.55 170.29 234.18 170.29 235.3 C 170.29 236.42 157.99 240.05 157.99 240.05 L 155.79 235.58 Z" style="fill:#fff;stroke:#263238;stroke-linecap:round;stroke-linejoin:round"/>
    <path d="M 156.29 232.82 L 160.08 243.06 C 160.08 243.06 152.96 246.39 147.84 246.39 C 142.72 246.39 140.06 239.72 142.06 236.39 C 144.06 233.06 156.29 232.82 156.29 232.82 Z" style="fill:#E54068;stroke:#263238;stroke-linecap:round;stroke-linejoin:round"/>
    <path d="M 179.48 160.1 L 170.15 171.36 C 170.15 171.36 169.83 179.97 174.09 186.59 C 179.94 195.71 187.56 177.59 187.56 177.59 L 179.48 160.1 Z" style="fill:#fff;stroke:#263238;stroke-linecap:round;stroke-linejoin:round"/>
    <path d="M 175.68 174.1 C 175.78 174.91 175.53 175.61 175.13 175.66 C 174.73 175.71 174.32 175.09 174.22 174.29 C 174.12 173.49 174.36 172.78 174.77 172.73 C 175.18 172.68 175.58 173.3 175.68 174.1 Z" style="fill:#263238"/>
    <path d="M 181 174.53 C 181 175.34 180.66 176 180.25 176 C 179.84 176 179.53 175.33 179.53 174.52 C 179.53 173.71 179.87 173.05 180.27 173.05 C 180.67 173.05 181 173.72 181 174.53 Z" style="fill:#263238"/>
    <path d="M 175.35 181.66 C 176.837 182.133 178.44 182.09 179.9 181.54" style="fill:none;stroke:#263238;stroke-linecap:round;stroke-linejoin:round;stroke-width:0.5px"/>
    <path d="M 178.62 171 C 179.723 170.144 181.286 170.22 182.3 171.18" style="fill:none;stroke:#263238;stroke-linecap:round;stroke-linejoin:round;stroke-width:0.5px"/>
    <path d="M 175.86 171.41 C 175.122 170.36 173.6 170.268 172.74 171.22" style="fill:none;stroke:#263238;stroke-linecap:round;stroke-linejoin:round;stroke-width:0.5px"/>
    <path d="M 176.78 173.26 C 177.007 174.116 176.944 175.024 176.6 175.84 C 176.05 177.51 175.31 178.43 175.86 178.84 C 176.378 179.088 176.946 179.215 177.52 179.21" style="fill:none;stroke:#263238;stroke-linecap:round;stroke-linejoin:round;stroke-width:0.5px"/>
  </g>
  <g id="freepik--character-5--inject-4" transform="matrix(1.659483, 0, 0, 1.527073, -188.955185, -111.087418)" style="">
    <ellipse cx="356.22" cy="376.47" rx="38.76" ry="11.18" style="fill:#E54068"/>
    <ellipse cx="356.22" cy="376.47" rx="38.76" ry="11.18" style="fill:#fff;opacity:0.5"/>
    <path d="M 351.58 175.67 C 351.58 175.67 349.66 173.2 348.74 174.26 C 347.82 175.32 350.74 181.88 351.99 181.32 C 353.24 180.76 351.58 175.67 351.58 175.67 Z" style="fill:#fff;stroke:#263238;stroke-linecap:round;stroke-linejoin:round"/>
    <path d="M 366.93 176 C 366.93 176 368.75 173.6 369.71 174.7 C 370.67 175.8 368.06 182.25 366.76 181.64 C 365.46 181.03 366.93 176 366.93 176 Z" style="fill:#fff;stroke:#263238;stroke-linecap:round;stroke-linejoin:round"/>
    <path d="M 353.82 191.71 C 353.82 191.71 350.55 193.13 350.18 195.63 C 349.81 198.13 351.18 251.63 351.18 251.63 L 373.61 252.84 L 372.61 194.94 C 369.924 193.042 366.85 191.765 363.61 191.2 C 360.344 190.746 357.021 190.919 353.82 191.71 Z" style="fill:#fff;stroke:#263238;stroke-linecap:round;stroke-linejoin:round"/>
    <path d="M 342.49 249.52 L 376.84 250.75 C 376.84 250.75 379.95 276.24 381.43 292.91 C 382.91 309.58 385.13 324.99 384.9 336.58 C 384.67 348.17 384.95 365.52 385.01 366.13 C 385.07 366.74 388.65 369.27 390.92 371.22 C 393.19 373.17 397.99 375.02 396.4 376.13 C 394.81 377.24 392.75 377.54 389.12 376.89 C 385.49 376.24 381.28 373.76 380.18 373.19 L 379.07 372.62 L 379.01 374.28 L 374.87 372.62 C 374.87 372.62 374.17 371.83 373.61 367.92 C 373.05 364.01 372.18 351.87 371.73 346.72 C 371.28 341.57 366.51 304.59 364.73 296 C 362.95 287.41 359.28 272.48 359.28 272.48 C 359.28 272.48 345.28 320.92 343.54 327 C 341.8 333.08 334.4 365.89 334.28 366.93 C 334.16 367.97 332.28 370.34 332.33 370.93 C 332.38 371.52 330.47 373.71 328.96 375.64 C 327.45 377.57 321.1 379.33 319.42 379.41 C 317.74 379.49 317.02 376.01 320.36 373.41 C 322.615 371.58 324.756 369.613 326.77 367.52 C 326.77 367.52 328.35 342.84 328.28 334.99 C 328.21 327.14 332.85 301.28 333.71 299.17 C 334.57 297.06 339.35 268.09 339.35 268.09 L 342.49 249.52 Z" style="fill:#263238;stroke:#263238;stroke-linecap:round;stroke-linejoin:round"/>
    <path d="M 353.61 197.81 C 353.61 197.81 357.25 220.03 357.67 222.38 C 358.09 224.73 352.45 271.21 352.45 271.21 C 349.548 271.632 346.587 271.315 343.84 270.29 C 338.84 268.58 334.32 266.71 334.32 266.71 L 343.86 237.27 L 335.24 197.85 C 337.504 196.564 339.915 195.557 342.42 194.85 C 346.116 193.781 349.886 192.989 353.7 192.48 L 353.61 197.81 Z" style="fill:#E54068;stroke:#263238;stroke-linecap:round;stroke-linejoin:round"/>
    <polygon points="357.25 202.24 359.7 205.74 356.47 247.87 361.54 253.65 364.02 248.06 361.62 206.36 364.14 201.81 360.56 196.45 357.25 202.24" style="fill:#263238;stroke:#263238;stroke-linecap:round;stroke-linejoin:round"/>
    <path d="M 366.68 191.84 C 366.68 191.84 364.27 209.69 364.33 211.09 C 364.39 212.49 363.78 224.24 363.83 225.34 C 363.88 226.44 368.83 271.18 368.83 271.18 C 371.976 271.762 375.198 271.81 378.36 271.32 C 383.88 270.52 389.76 266.91 389.76 266.91 L 378.66 237.51 L 382.91 196.24 C 382.91 196.24 369.89 192.46 366.68 191.84 Z" style="fill:#E54068;stroke:#263238;stroke-linecap:round;stroke-linejoin:round"/>
    <path d="M 360.36 199.83 L 355.78 204.23 C 355.78 204.23 352.78 194.06 352.78 192.49 C 352.672 190.66 353.574 188.918 355.13 187.95 C 356.84 187.01 363.69 187.78 365.32 188.56 C 366.95 189.34 368.21 193.09 368.21 193.09 L 364.55 205 L 360.36 199.83 Z" style="fill:#fff;stroke:#263238;stroke-linecap:round;stroke-linejoin:round"/>
    <path d="M 354.63 184.51 C 354.63 184.51 355.18 190.14 356.57 192.96 C 357.96 195.78 359.9 200.15 360.36 199.83 C 360.82 199.51 364.54 193.57 364.64 192.31 C 364.74 191.05 365.01 186.05 365.01 186.05 L 354.63 184.51 Z" style="fill:#fff;stroke:#263238;stroke-linecap:round;stroke-linejoin:round"/>
    <path d="M 354.93 165.75 C 354.93 165.75 351.82 167.6 351.38 169.34 C 350.94 171.08 351.24 180.01 353.11 183.89 C 354.98 187.77 358.46 190.96 360.17 190.98 C 361.88 191 365.83 188.33 366.38 184.39 C 366.997 180.841 367.288 177.242 367.25 173.64 C 367.05 171 369.2 172.18 365.93 168.72 C 362.66 165.26 356.84 164.06 354.93 165.75 Z" style="fill:#fff;stroke:#263238;stroke-linecap:round;stroke-linejoin:round"/>
    <path d="M 357.31 178.06 C 357.31 178.68 357.05 179.19 356.74 179.19 C 356.43 179.19 356.18 178.68 356.18 178.06 C 356.18 177.44 356.43 176.94 356.74 176.94 C 357.05 176.94 357.31 177.44 357.31 178.06 Z" style="fill:#263238"/>
    <path d="M 362.64 178.06 C 362.64 178.68 362.39 179.19 362.08 179.19 C 361.77 179.19 361.52 178.68 361.52 178.06 C 361.52 177.44 361.77 176.94 362.08 176.94 C 362.39 176.94 362.64 177.44 362.64 178.06 Z" style="fill:#263238"/>
    <path d="M 354.78 176.24 C 355.337 175.385 356.507 175.191 357.31 175.82" style="fill:none;stroke:#263238;stroke-linecap:round;stroke-linejoin:round;stroke-width:0.5px"/>
    <path d="M 360.82 176 C 360.82 176 361.94 174.17 363.91 176.28" style="fill:none;stroke:#263238;stroke-linecap:round;stroke-linejoin:round;stroke-width:0.5px"/>
    <polyline points="360.4 177.92 360.68 182.84 358.43 182.56" style="fill:none;stroke:#263238;stroke-linecap:round;stroke-linejoin:round;stroke-width:0.5px"/>
    <path d="M 357.73 184.39 C 359.356 184.972 361.142 184.919 362.73 184.24" style="fill:none;stroke:#263238;stroke-linecap:round;stroke-linejoin:round;stroke-width:0.5px"/>
    <path d="M 352.71 165.58 C 352.71 165.58 349.65 164.49 349.14 167.58 C 348.63 170.67 351.26 176.34 351.26 176.34 C 351.26 176.34 351.68 174.93 352.4 173.21 C 353.12 171.49 354.67 170.54 354.08 168.04 C 353.49 165.54 352.71 165.58 352.71 165.58 Z" style="fill:#263238;stroke:#263238;stroke-linecap:round;stroke-linejoin:round"/>
    <path d="M 353.26 167.45 C 353.26 167.45 354.8 169.96 359.11 170.57 C 363.42 171.18 365.62 170.57 366.11 171.34 C 366.6 172.11 366.65 176.5 366.65 176.5 C 366.65 176.5 368.09 176.97 368.18 175.25 C 368.343 173.888 368.959 172.619 369.93 171.65 C 370.39 171.18 372.71 169.76 370.16 165.85 C 367.61 161.94 364.39 160.7 358.83 160.71 C 353.27 160.72 349.92 163.55 353.26 167.45 Z" style="fill:#263238;stroke:#263238;stroke-linecap:round;stroke-linejoin:round"/>
    <path d="M 382.88 196.24 C 382.88 196.24 390.88 223.85 391.39 226.74 C 391.9 229.63 388.65 231.29 385.25 230.06 C 381.85 228.83 379.62 211.06 379.62 211.06 L 382.88 196.24 Z" style="fill:#E54068;stroke:#263238;stroke-linecap:round;stroke-linejoin:round"/>
    <path d="M 388 220.76 C 388 220.76 375.13 218.51 371.78 218.52 C 368.43 218.53 352.35 220 352.35 220 L 351.75 225.58 C 351.75 225.58 376.29 231.11 381.13 231.72 C 385.97 232.33 390.78 232.11 391.28 229.01 C 391.78 225.91 390.66 224.47 390.66 224.47" style="fill:#E54068;stroke:#263238;stroke-linecap:round;stroke-linejoin:round"/>
    <path d="M 309.132 259.559 C 309.132 259.559 335.57 213.85 335.94 222.48 C 336.31 231.11 338.72 234.28 343.12 234.27 C 347.52 234.26 343.95 209.47 343.95 209.47" style="fill:#E54068;stroke:#263238;stroke-linecap:round;stroke-linejoin:round"/>
    <path d="M 352.35 220 C 352.35 220 349.14 218.36 347.26 218.36 C 345.38 218.36 339.87 221.89 339.89 222.51 C 339.91 223.13 342.89 223.95 346.64 223.51 C 348.655 223.251 350.695 223.251 352.71 223.51 L 352.35 220 Z" style="fill:#fff;stroke:#263238;stroke-linecap:round;stroke-linejoin:round"/>
    <path d="M 374 215.83 C 375.573 215.469 377.177 215.258 378.79 215.2 C 380.88 215.2 383.36 219.32 383.36 219.32 L 375.22 219.96 L 374 215.83 Z" style="fill:#fff;stroke:#263238;stroke-linecap:round;stroke-linejoin:round"/>
    <path d="M 340.59 224.16 L 372.25 215 C 372.25 215 372.85 214.38 373.96 215.82 C 374.705 217.073 375.124 218.493 375.18 219.95 C 375.18 219.95 356.49 228.66 350.73 231.15 C 344.97 233.64 343.05 237.57 339.96 233.86 C 336.87 230.15 338.83 227.04 338.83 227.04" style="fill:#E54068;stroke:#263238;stroke-linecap:round;stroke-linejoin:round"/>
  </g>
  <g id="freepik--character-4--inject-4" transform="matrix(1.616834, 0, 0, 1.527073, -170.669525, -111.087418)" style="">
    <ellipse cx="315.97" cy="386.17" rx="28.33" ry="11.18" style="fill:#E54068"/>
    <ellipse cx="315.97" cy="386.17" rx="28.33" ry="11.18" style="fill:#fff;opacity:0.5"/>
    <path d="M 327.05 169.68 C 329.242 167.361 330.66 164.419 331.11 161.26 C 331.56 156.44 326 153.89 322.24 154.04 C 319.893 154.18 317.641 155.015 315.77 156.44 C 315.77 156.44 307 156 300.43 161 C 293.86 166 294.71 180.86 295.16 186.42 C 295.385 190.685 295.284 194.96 294.86 199.21 C 299.505 201.07 304.351 202.382 309.3 203.12 C 316.97 204.17 327.35 202.37 328.4 202.12 C 329.45 201.87 325.4 200.91 324.79 195.05 C 324.18 189.19 325.69 182.41 326.3 179.25 C 326.91 176.09 325.85 169.93 325.85 169.93 L 327.05 169.68 Z" style="fill:#263238;stroke:#263238;stroke-linecap:round;stroke-linejoin:round"/>
    <path d="M 326.25 156.45 C 326.25 156.45 324.72 161.73 323.87 163.78" style="fill:none;stroke:#fff;stroke-linecap:round;stroke-linejoin:round;stroke-width:0.5px"/>
    <path d="M 320 158.67 C 320 158.67 321.36 163.09 316.59 170.76 C 311.82 178.43 302.12 186.6 301.78 192.22" style="fill:none;stroke:#fff;stroke-linecap:round;stroke-linejoin:round;stroke-width:0.5px"/>
    <path d="M 303.94 179.44 C 303.94 179.44 297.94 189.49 300.54 195.62" style="fill:none;stroke:#fff;stroke-linecap:round;stroke-linejoin:round;stroke-width:0.5px"/>
    <path d="M 318.78 196.75 C 318.78 196.75 326.9 200.96 328.1 201.41 C 329.3 201.86 330.36 202.92 331.26 205.62 C 332.16 208.32 337.13 227.88 337.58 229.99 C 338.03 232.1 333.82 234.2 331.11 234.35 C 328.4 234.5 324.94 232.1 324.94 230.29 C 324.94 228.48 318.78 196.75 318.78 196.75 Z" style="fill:#E54068;stroke:#263238;stroke-linecap:round;stroke-linejoin:round"/>
    <path d="M 322.09 228.64 C 323.745 226.458 325.553 224.396 327.5 222.47 C 329.3 220.97 333.06 219.76 335.32 220.97 C 337.58 222.18 337.13 224.27 336.22 224.58 C 335.31 224.89 333.06 224.88 331.56 225.78 C 330.06 226.68 327.65 228.34 326 228.78 C 324.702 229.018 323.368 228.97 322.09 228.64 Z" style="fill:#fff;stroke:#263238;stroke-linecap:round;stroke-linejoin:round"/>
    <polygon points="297.65 376.63 297.51 384.73 298.46 384.73 299.67 379.19 297.65 376.63" style="fill:#263238;stroke:#263238;stroke-linecap:round;stroke-linejoin:round"/>
    <path d="M 328.64 307.89 C 328.64 307.89 327.15 328.02 323.24 341.07 C 319.33 354.12 311.5 374.42 311.31 377.59 C 311.31 377.59 316.16 382.25 317.83 383.18 C 319.5 384.11 320.83 383.93 319.7 384.86 C 318.57 385.79 315.41 386.35 312.99 385.42 C 310.57 384.49 308.7 381.69 307.4 380.95 C 306.1 380.21 304.4 379.27 304.23 377.59 C 304.06 375.91 306.65 373.49 306.65 373.49 C 306.65 373.49 312.8 359.7 312.06 350.94 C 311.32 342.18 313.17 332.31 315.06 328.76 C 316.262 326.428 317.266 324 318.06 321.5 L 312.8 309 C 312.8 309 323.42 305.84 328.64 307.89 Z" style="fill:#fff;stroke:#263238;stroke-linecap:round;stroke-linejoin:round"/>
    <path d="M 317.83 383.18 C 317.561 383.021 317.3 382.847 317.05 382.66 C 316.05 383.12 313.59 384.06 311.68 382.44 C 309.54 380.62 307.25 377.35 305.07 375.33 C 304.543 375.967 304.247 376.763 304.23 377.59 C 304.41 379.27 306.09 380.2 307.4 380.95 C 308.71 381.7 310.56 384.49 312.99 385.42 C 315.42 386.35 318.58 385.79 319.7 384.86 C 320.82 383.93 319.51 384.12 317.83 383.18 Z" style="fill:#263238;stroke:#263238;stroke-linecap:round;stroke-linejoin:round"/>
    <path d="M 326 306 C 326 306 329.64 316.9 329.64 319.7 C 329.64 322.5 312.03 362.19 310.35 366.1 C 308.67 370.01 306.15 377.28 306.15 377.28 C 306.689 379.428 307.981 381.312 309.79 382.59 C 312.86 384.83 313.98 386.79 312.58 387.35 C 311.18 387.91 304.76 388.47 303.08 386.23 C 301.4 383.99 299.73 379.23 298.08 377.84 C 296.43 376.45 298.08 373.37 299.2 372.53 C 300.319 371.505 301.346 370.384 302.27 369.18 C 302.27 369.18 306.46 360.23 306.46 352.4 C 306.46 344.57 307.86 337.03 312.06 330.6 C 314.368 327.212 316.246 323.551 317.65 319.7 L 313.17 310.47 C 313.17 310.47 320.44 305.47 326 306 Z" style="fill:#fff;stroke:#263238;stroke-linecap:round;stroke-linejoin:round"/>
    <path d="M 310 382.76 C 308.37 383.55 307.22 384.14 303.67 380.11 C 301.787 377.987 300.025 375.76 298.39 373.44 C 297.49 374.72 296.78 376.79 298.08 377.87 C 299.76 379.27 301.43 384.02 303.08 386.26 C 304.73 388.5 311.19 387.94 312.58 387.38 C 313.97 386.82 312.93 384.94 310 382.76 Z" style="fill:#263238;stroke:#263238;stroke-linecap:round;stroke-linejoin:round"/>
    <path d="M 311 195 C 311 195 292.5 197.85 291.89 198.91 C 291.28 199.97 297.61 234.7 298.21 237.41 C 298.81 240.12 294.6 247.19 292.21 260.87 C 289.82 274.55 292.68 277.87 296.74 287.63 C 300.8 297.39 312.16 312 312.16 312 L 329.91 308.84 C 329.91 308.84 333.97 277.11 332.01 261.77 C 330.888 252.67 328.245 243.823 324.19 235.6 L 324.64 227.47 C 324.64 227.47 329.64 224.39 329.83 220.47 C 330.02 216.55 327.2 210.92 324.64 205.81 C 322.08 200.7 315 195 311 195 Z" style="fill:#E54068;stroke:#263238;stroke-linecap:round;stroke-linejoin:round"/>
    <path d="M 312.31 192.69 C 312.31 192.69 308.4 193.14 307.8 193.89 C 307.2 194.64 305.39 205 305.39 205 C 305.39 205 312.46 202.9 313.21 202.9 C 313.96 202.9 316.965 233.063 316.965 233.063 L 320.13 203.8 L 325.54 207.86 C 324.493 204.845 323.185 201.927 321.63 199.14 C 319.23 195 315.62 192.84 312.31 192.69 Z" style="fill:#fff;stroke:#263238;stroke-linecap:round;stroke-linejoin:round"/>
    <path d="M 312.61 183.67 C 312.61 183.67 311.41 195.25 312.16 196.6 C 312.91 197.95 318.02 205.78 318.02 205.78 C 318.02 205.78 317.42 199.78 317.42 196 C 317.63 192.74 318.186 189.512 319.08 186.37 L 312.61 183.67 Z" style="fill:#fff;stroke:#263238;stroke-linecap:round;stroke-linejoin:round"/>
    <path d="M 323.14 164.56 C 323.14 164.56 320.28 171.63 317.42 174.19 C 315.825 175.651 310.102 256.818 308.204 257.855 C 308.204 257.855 311.86 182.95 312.61 183.67 C 313.36 184.39 319.53 190.73 321.61 189.83 C 323.69 188.93 326.88 183.06 327.18 178.4 C 327.225 174.844 326.77 171.3 325.83 167.87 L 323.14 164.56 Z" style="fill:#fff;stroke:#263238;stroke-linecap:round;stroke-linejoin:round"/>
    <path d="M 325.23 173.31 C 324.428 173.659 323.945 174.49 324.04 175.36 C 324.04 177.06 325.57 178.42 325.57 179.27 C 325.57 180.12 323.7 180.64 323.7 180.64" style="fill:none;stroke:#263238;stroke-linecap:round;stroke-linejoin:round;stroke-width:0.5px"/>
    <path d="M 322.51 174.16 C 322.51 174.16 321.65 172.16 318.93 172.8" style="fill:none;stroke:#263238;stroke-linecap:round;stroke-linejoin:round;stroke-width:0.5px"/>
    <path d="M 323.19 183.36 C 321.983 183.631 320.719 183.316 319.78 182.51" style="fill:none;stroke:#263238;stroke-linecap:round;stroke-linejoin:round;stroke-width:0.5px"/>
    <path d="M 320.8 175.44 C 320.8 176.15 320.61 176.72 320.38 176.72 C 320.15 176.72 319.95 176.15 319.95 175.44 C 319.95 174.73 320.14 174.16 320.38 174.16 C 320.62 174.16 320.8 174.74 320.8 175.44 Z" style="fill:#263238"/>
    <path d="M 325.23 176 C 325.23 176.7 325.04 177.28 324.8 177.28 C 324.56 177.28 324.38 176.7 324.38 176 C 324.38 175.3 324.57 174.72 324.8 174.72 C 325.03 174.72 325.23 175.33 325.23 176 Z" style="fill:#263238"/>
    <path d="M 295.31 198.56 C 293.546 198.501 291.805 198.971 290.31 199.91 C 288.2 201.41 288.66 207.28 289.71 213.6 C 290.76 219.92 296.48 237.51 297.83 240.52 C 299.145 243.445 301.996 245.379 305.2 245.52 C 308.06 245.52 326.86 235.44 326.86 235.44 L 325.2 230.78 C 325.2 230.78 309.15 234.8 308 235 C 306.85 235.2 301.53 208.23 301.53 208.23" style="fill:#E54068;stroke:#263238;stroke-linecap:round;stroke-linejoin:round"/>
    <path d="M 312.46 231.8 C 312.46 231.8 306.29 231.64 305.39 231.64 C 304.49 231.64 300.28 236.46 299.22 237.64 C 298.16 238.82 299.37 239.14 299.83 239.3 C 300.29 239.46 303.13 238.24 303.13 238.24 C 303.13 238.24 300.58 243.24 301.18 244.11 C 301.78 244.98 303.28 245.61 303.89 245.01 C 304.708 244.321 305.689 243.856 306.74 243.66 C 307.9 243.713 309.015 243.207 309.74 242.3 C 310.95 240.95 312.9 235.54 312.9 235.54 L 315.9 234.63 L 315.9 232.4 L 312.46 231.8 Z" style="fill:#fff;stroke:#263238;stroke-linecap:round;stroke-linejoin:round"/>
    <path d="M 311.86 231.64 L 313.51 241.72 C 313.51 241.72 334.12 236.01 336.67 234.8 C 339.22 233.59 337.73 227.13 335.77 225.48 C 333.81 223.83 311.86 231.64 311.86 231.64 Z" style="fill:#E54068;stroke:#263238;stroke-linecap:round;stroke-linejoin:round"/>
    <path d="M 312.16 312 L 329.91 308.84 C 329.91 308.84 333.97 277.11 332.01 261.77 C 331.603 258.623 331.019 255.501 330.26 252.42 C 325.872 254.199 321.245 255.321 316.53 255.75 C 304.88 257.04 297.09 253.69 294.12 252.08 C 293.42 254.65 292.74 257.56 292.12 260.86 C 289.72 274.55 292.59 277.86 296.65 287.62 C 300.71 297.38 312.16 312 312.16 312 Z" style="fill:#263238;stroke:#263238;stroke-linecap:round;stroke-linejoin:round"/>
    <path d="M 315.27 274.85 C 318.281 279.982 320.525 285.528 321.93 291.31" style="fill:none;stroke:#fff;stroke-linecap:round;stroke-linejoin:round;stroke-width:0.75px"/>
    <path d="M 309.82 267.26 C 311.076 268.652 312.226 270.136 313.26 271.7" style="fill:none;stroke:#fff;stroke-linecap:round;stroke-linejoin:round;stroke-width:0.75px"/>
  </g>
  <g id="freepik--character-3--inject-4" transform="matrix(1.700009, 0, 0, 1.527073, -186.192017, -111.087418)" style="">
    <ellipse cx="252.79" cy="391.38" rx="45.66" ry="11.18" style="fill:#E54068"/>
    <ellipse cx="252.79" cy="391.38" rx="45.66" ry="11.18" style="fill:#fff;opacity:0.5"/>
    <path d="M 249.33 162.85 C 249.33 162.85 247.65 159.78 246.42 160.85 C 245.19 161.92 247.19 169.75 248.72 169.29 C 250.25 168.83 249.33 162.85 249.33 162.85 Z" style="fill:#fff;stroke:#263238;stroke-linecap:round;stroke-linejoin:round"/>
    <path d="M 218.21 269.13 C 227.594 273.076 237.5 275.639 247.62 276.74 C 263.87 278.38 282.8 266.66 282.8 266.66 C 282.8 266.66 263.87 237.45 263.67 236.83 C 263.47 236.21 240.84 235.39 240.84 235.39 L 218.21 269.13 Z" style="fill:#263238;stroke:#263238;stroke-linecap:round;stroke-linejoin:round"/>
    <path d="M 232 244.81 C 232 244.81 224.45 276.96 224.45 288.42 C 224.45 299.88 224.45 309.1 223.89 318.33 C 223.33 327.56 220.26 345.44 221.38 354.67 C 222.5 363.9 223.89 382.07 223.89 382.07 C 223.89 382.07 214.11 389.89 214.11 392.69 C 214.11 395.49 219.98 394.69 225.01 391.57 C 230.04 388.45 231.44 386.26 231.44 386.26 L 232.56 387.38 L 234.24 385.7 L 234.8 379.55 L 240.39 329.23 L 248.22 279.23 L 261.91 339.33 L 273.91 380.99 L 276.71 382.11 L 277.27 384.62 L 280.06 386.3 L 282.86 386.58 L 285.65 389.09 C 285.65 389.09 294.6 391.89 296.28 391.33 C 297.96 390.77 297.95 388.54 293.48 385.18 C 289.01 381.82 281.48 379.87 281.48 379.87 C 281.48 379.87 280.64 351.63 278.69 335.14 C 276.74 318.65 274.21 304.67 274.21 292.93 C 274.21 281.19 270.31 247 270.31 247 L 232 244.81 Z" style="fill:#263238;stroke:#263238;stroke-linecap:round;stroke-linejoin:round"/>
    <path d="M 251.3 181.91 L 230.43 189.91 L 232.1 247.31 C 232.1 247.31 239.19 250.85 251.67 250.67 C 264.15 250.49 272.67 249.97 272.67 249.97 L 277.62 187.3 L 257.49 182.64 C 257.49 182.64 253.72 181.35 251.3 181.91 Z" style="fill:#fff;stroke:#263238;stroke-linecap:round;stroke-linejoin:round"/>
    <polygon points="251.49 191.97 253.72 197.75 247.39 242.66 250.74 250.12 256.33 241.55 255.59 198.12 258.2 192.34 255.21 186.38 251.49 191.97" style="fill:#263238;stroke:#263238;stroke-linecap:round;stroke-linejoin:round"/>
    <path d="M 251.33 179.28 L 247.95 183.28 L 248.57 195.72 L 255.63 190.04 L 261.31 198.33 C 261.31 198.33 263.61 187.43 262.69 184.05 C 261.77 180.67 258.55 178.52 256.86 178.83 C 255.17 179.14 251.33 179.28 251.33 179.28 Z" style="fill:#fff;stroke:#263238;stroke-linecap:round;stroke-linejoin:round"/>
    <path d="M 250.41 173.45 C 250.41 173.45 250.41 173.69 250.47 174.1 C 250.66 176.15 251.25 182.45 251.64 184.5 C 252.1 186.96 255.32 189.72 256.55 189.26 C 257.78 188.8 260.7 185.11 261 183.89 C 261.3 182.67 262.54 176.98 262.54 176.98 C 262.54 176.98 258.54 178.82 256.86 178.82 C 255.18 178.82 250.41 173.45 250.41 173.45 Z" style="fill:#fff;stroke:#263238;stroke-linecap:round;stroke-linejoin:round"/>
    <path d="M 266.48 165.43 C 266.48 165.43 268.98 162.97 269.84 164.35 C 270.7 165.73 266.56 172.66 265.22 171.78 C 263.88 170.9 266.48 165.43 266.48 165.43 Z" style="fill:#fff;stroke:#263238;stroke-linecap:round;stroke-linejoin:round"/>
    <path d="M 255 152.11 C 255 152.11 251.17 153.75 250.34 155.67 C 249.51 157.59 248.15 167.67 249.52 172.37 C 250.89 177.07 254.18 181.13 256.09 181.37 C 258 181.61 262.94 179.18 264.31 174.8 C 265.68 170.42 267.04 165.8 267.31 162.8 C 267.58 159.8 269.77 161.43 266.76 157.05 C 263.75 152.67 257.43 150.47 255 152.11 Z" style="fill:#fff;stroke:#263238;stroke-linecap:round;stroke-linejoin:round"/>
    <path d="M 256.2 165 C 256.2 165.75 255.93 166.36 255.56 166.37 C 255.19 166.38 254.86 165.78 254.84 165.03 C 254.82 164.28 255.11 163.67 255.49 163.66 C 255.87 163.65 256.18 164.22 256.2 165 Z" style="fill:#263238"/>
    <path d="M 261.53 165.33 C 261.53 166.08 261.26 166.7 260.89 166.71 C 260.52 166.72 260.19 166.12 260.17 165.37 C 260.15 164.62 260.44 164 260.81 163.99 C 261.18 163.98 261.51 164.58 261.53 165.33 Z" style="fill:#263238"/>
    <path d="M 253.46 161.58 C 254.187 160.508 255.58 160.115 256.76 160.65" style="fill:none;stroke:#263238;stroke-linecap:round;stroke-linejoin:round;stroke-width:0.5px"/>
    <path d="M 259.7 161.18 C 259.7 161.18 261.44 160.34 263.38 162.6" style="fill:none;stroke:#263238;stroke-linecap:round;stroke-linejoin:round;stroke-width:0.5px"/>
    <path d="M 255.13 172.38 C 256.435 173 257.91 173.166 259.32 172.85" style="fill:none;stroke:#263238;stroke-linecap:round;stroke-linejoin:round;stroke-width:0.5px"/>
    <path d="M 259.09 163.07 C 259.09 163.07 260.02 169.56 259.32 169.91 C 258.62 170.26 257.12 169.44 257.12 169.44" style="fill:none;stroke:#263238;stroke-linecap:round;stroke-linejoin:round;stroke-width:0.5px"/>
    <path d="M 250.87 149 C 250.87 149 245.65 150.07 245.8 152.83 C 245.95 155.59 247.8 160.51 247.8 160.51 C 247.8 160.51 249.64 161.58 249.33 162.81 C 249.02 164.04 249.18 166.65 250.26 165.73 C 251.34 164.81 250.72 161.43 251.18 160.97 C 252.25 160.3 252.934 159.159 253.02 157.9 C 253.02 156.06 251.94 154.37 252.25 153.9 C 252.56 153.43 257.93 154.05 260.54 155.28 C 263.15 156.51 266.68 158.5 265.76 160.5 C 265.162 161.477 265.289 162.732 266.07 163.57 C 266.07 163.57 264.99 166.49 265.76 167.26 C 266.53 168.03 267.45 164.65 267.45 164.65 C 268.508 164.436 269.313 163.571 269.45 162.5 C 270.128 160.051 270.335 157.496 270.06 154.97 C 269.6 152.52 264.53 148.37 259.01 148.22 C 253.49 148.07 250.87 149 250.87 149 Z" style="fill:#263238;stroke:#263238;stroke-linecap:round;stroke-linejoin:round"/>
    <path d="M 251.48 151.65 C 251.48 151.65 257.78 157.17 263.15 159.32 C 268.52 161.47 275.43 157.48 275.74 154.41 C 276.05 151.34 270.83 146.89 269.45 146.73 C 268.07 146.57 270.21 144.73 265.15 143.2 C 260.09 141.67 248.87 142.59 248.26 145.66 C 247.65 148.73 251.48 151.65 251.48 151.65 Z" style="fill:#263238;stroke:#263238;stroke-linecap:round;stroke-linejoin:round"/>
    <path d="M 248.69 182.84 C 248.69 182.84 247.95 218.25 243.69 230.36 C 239.43 242.47 234 254.59 229.34 258.88 C 224.68 263.17 216.48 276.77 216.48 276.77 C 216.48 276.77 213.68 271.36 213.68 269.69 C 213.68 268.02 226.68 256.08 227.85 254.96 C 229.02 253.84 229.53 248.07 229.53 239.5 C 229.53 230.93 227.48 190.67 227.48 189.92 C 227.48 189.17 245.15 181.91 248.69 182.84 Z" style="fill:#E54068;stroke:#263238;stroke-linecap:round;stroke-linejoin:round"/>
    <path d="M 227.45 189.92 L 227.04 190.54 C 224.492 195.256 222.231 200.121 220.27 205.11 C 216.81 213.53 207.69 227.48 209.65 230.27 C 211.61 233.06 216.65 234.74 219.71 231.39 C 222.77 228.04 230.33 213.78 230.33 213.78 C 230.33 213.78 229.31 192.9 227.45 189.92 Z" style="fill:#E54068;stroke:#263238;stroke-linecap:round;stroke-linejoin:round"/>
    <path d="M 262.3 183.21 C 262.3 183.21 262.67 207.63 263.41 224.4 C 264.15 241.17 266.41 247.51 268.26 250.68 C 270.11 253.85 283.73 274.91 283.73 274.91 C 283.73 274.91 286.9 268.38 286.52 265.77 C 286.14 263.16 276.27 246.58 276.27 245.65 C 276.27 244.72 280.56 189.74 279.81 188.25 C 279.06 186.76 262.3 183.21 262.3 183.21 Z" style="fill:#E54068;stroke:#263238;stroke-linecap:round;stroke-linejoin:round"/>
    <polyline points="244.78 185.08 239.37 198.5 243.66 202.78 239 208 241.61 227.94" style="fill:none;stroke:#263238;stroke-linecap:round;stroke-linejoin:round"/>
    <polyline points="264.9 185.26 269.94 197.19 264.35 200.54 269.94 209.31 264.53 223.47" style="fill:none;stroke:#263238;stroke-linecap:round;stroke-linejoin:round"/>
    <polygon points="232.01 256.27 232.95 258.71 226.31 263.83 224.22 259.09 232.01 256.27" style="fill:#fff;stroke:#263238;stroke-linecap:round;stroke-linejoin:round"/>
    <path d="M 218.87 226.36 L 232 256.27 L 222.22 263.82 C 222.22 263.82 208 233.9 208 231.39 C 208 228.88 211.08 223.84 212.47 223" style="fill:#E54068;stroke:#263238;stroke-linecap:round;stroke-linejoin:round"/>
    <polygon points="232.95 258.71 235.23 259.85 228.96 268.39 226.31 263.83 232.95 258.71" style="fill:#fff;stroke:#263238;stroke-linecap:round;stroke-linejoin:round"/>
    <polygon points="267.74 256.7 266.56 259.04 272.66 264.8 275.21 260.29 267.74 256.7" style="fill:#fff;stroke:#263238;stroke-linecap:round;stroke-linejoin:round"/>
    <path d="M 279.81 188.25 C 279.81 188.25 282.69 191.32 283.07 194.16 C 283.45 197 293.51 230.42 293.89 231.94 C 294.27 233.46 290.47 235.94 286.67 236.5 C 282.87 237.06 278.13 222.26 278.13 222.26 L 279.81 188.25 Z" style="fill:#E54068;stroke:#263238;stroke-linecap:round;stroke-linejoin:round"/>
    <path d="M 283.8 228.25 L 267.74 256.7 L 276.74 265.19 C 276.74 265.19 293.91 236.85 294.16 234.35 C 294.41 231.85 291.86 226.53 290.55 225.56" style="fill:#E54068;stroke:#263238;stroke-linecap:round;stroke-linejoin:round"/>
    <polygon points="266.56 259.04 264.18 259.94 269.56 269.07 272.66 264.8 266.56 259.04" style="fill:#fff;stroke:#263238;stroke-linecap:round;stroke-linejoin:round"/>
  </g>
</svg>